<mxfile host="Electron" agent="Mozilla/5.0 (Windows NT 10.0; Win64; x64) AppleWebKit/537.36 (KHTML, like Gecko) draw.io/27.0.9 Chrome/134.0.6998.205 Electron/35.4.0 Safari/537.36" version="27.0.9">
  <diagram id="Ht1M8jgEwFfnCIfOTk4-" name="Page-1">
    <mxGraphModel dx="1240" dy="731" grid="1" gridSize="10" guides="1" tooltips="1" connect="1" arrows="1" fold="1" page="1" pageScale="1" pageWidth="827" pageHeight="1169" math="0" shadow="0">
      <root>
        <mxCell id="0" />
        <mxCell id="1" parent="0" />
        <mxCell id="cVnY-JXB5LHUISSboKDK-10" value="Streaming Ingestion" style="swimlane;fontSize=14;align=center;swimlaneFillColor=#203E53;fillColor=#182E3E;startSize=33;container=1;pointerEvents=0;collapsible=0;recursiveResize=0;rounded=1;strokeColor=#432D57;fontColor=#ffffff;" parent="1" vertex="1">
          <mxGeometry x="60" y="150" width="1030" height="560" as="geometry" />
        </mxCell>
        <mxCell id="cVnY-JXB5LHUISSboKDK-20" value="" style="edgeStyle=orthogonalEdgeStyle;rounded=0;orthogonalLoop=1;jettySize=auto;html=1;exitX=1;exitY=0.5;exitDx=0;exitDy=0;entryX=0;entryY=0.5;entryDx=0;entryDy=0;fontSize=12;strokeColor=#FFFFFF;" parent="cVnY-JXB5LHUISSboKDK-10" source="cVnY-JXB5LHUISSboKDK-18" target="cVnY-JXB5LHUISSboKDK-17" edge="1">
          <mxGeometry relative="1" as="geometry">
            <mxPoint as="offset" />
            <mxPoint x="172" y="240" as="targetPoint" />
          </mxGeometry>
        </mxCell>
        <mxCell id="cVnY-JXB5LHUISSboKDK-18" value="Aurora Servless" style="shape=image;verticalLabelPosition=bottom;labelBackgroundColor=none;verticalAlign=top;aspect=fixed;imageAspect=0;image=data:image/png,iVBORw0KGgoAAAANSUhEUgAAAFAAAABQCAYAAACOEfKtAAAAAXNSR0IArs4c6QAAIttJREFUeAGtfAnUZ1VxZ3290Pu+N93NriIIIshmQ0AEgiQiajJKcIlEgzFyOBIJbXA0JnFJYNwYZdTEuGA4ZHSME4moGFm0WSKKItKQVrbe933vnt9Sdd/7PiQ5mePt7717b9WvflV17337HwbOevXDB2JgIFgGsv4P+4AeSKzxENCcwmGDeagvLLR0IB8HIC3b8tlwpFMcyZt2rshvH+YyJ3UssuvlUNxlIht0ypfxsoRsSExy4xgQdbMprvI1Qp4PgFKORY3BYO0xYW0ukKRcxoCwTzNbwU0ztz1tWSQWkGGioC2X6DWk/FNpXtYtcKDoc5B/2sJYsQmcLQjljzyUq3jiKKDW8fd8A9Nz3/PDWKiknvwiELhiGVYNIg/sxyYLeVVwtJOrkreo2DDe1GzvFwf7XRFBxwueAW4AiKHxmosxuJhfXGgSZl7LbUw5+yio2eZmnMWlo35okW3KWTn//YalG/s3LxWDWGA0TMRDyCsQ1UiIJKBQcCJhkmLKlGDfgkajBQY5B1WFJumn+JuNEdinL+KE72xgPMhegCJQLDK3q8KKx0rnglikw0SnL/qhrKhU006IzqfsOBZQaZJRE6tDuBKrpc31PHhJ1xJmfCTvH07yT4WWOcnJw01xOCIqhald+WTfyVAPm+RXdCSA2B6zkQSykaJs7EIm9E9edLLleNJWhNAdAMhxkghFMTN+dTIxMZlchkI6NzS1AoWnZ24sajuA6h/Yj1kbKgdhCxI6tUHGmv/QaInQnn3pUi5u7JikPWOveNkztvkvTiHNSx35bCP6NE9b6rLsZzs32yhr2dul9YqFZuqyUWYUuM261sOwArjugpYTGZuEejEoATbNpjAqUNS0azI0ikcrYRAVsDwViKoGGp2hMvbLjnVudj/YF2Pq/JOZ/j1xiski702gNqwGDzz65lECZMk56gKgntsI7qjVFbTvYEibpp4d4zUFaNK5i0PUXn4zObkmbj9MsNLyEPcUwjr7xdKmltx1WacDxQn7ird42UehX7Y0UWrDv45RdNgHjv65EllXkRxWyqPEtLNExF3e/fjNoBXYDZ4ZFGR5SKrUNGnDZObUC4MA24WDtkyQG4NEZZ5MqLF1DeL79jTqfNkZOYxh3zIyNP+cFIltS3vbuBYnTymt9HkdG1XFR7xK1ejo6IF4hMjEbgxnp++MppqBml8rIUSDyUnPNBKp2e10ZsVeziGHXgllTT0tq9h/YiSkQ5obJbfMXX5sS4T0oueu8NSgtL67irTnX4DKgLxD8LTq8zt+c+EiQq07dEelwNmmrK+HMvVVE4CSHH37TpbqCix9lh/76K0O+HAspqZPbhqzIbGaOQkZRmJFgABsY3uOTJqLuPynF1Epfq5gCsnFKq20tCRLOXB5EaED4nGeUt0Zi6CIUDenKRuqZ5+OjbMj9s3fyalXkIK7Xdys1ZZd2YACAdehW1gPdM9P8vkQczKFVRzgYKGsBkl3CClToBwyxiCksZRLpphSBoJhhtmR8TRLU4mzT8NeaV01TF4DQpiDA5MCNkdf3/mgE/w1wrRNX325RKZKPP1CWvbZJq58yZ5ylQamwxJaU+fEHgeJNWEpK86i4mIbxtsGK0xohx6QalPPtvq0RnuQzKZUyKGxtjE39sBwMLXCe6vAnEmQGMl6/sTR63/5uhnxzU/PjskTeK7Mi0HFABzjcwwppPuevX0ynry3ZU5ZGo48jBN/zsG5UVA+iW33gc2wmFDr/IG6HKLBjrYme4bjziFVcJcOYdcv4ukE4qOMEbOgGjpwVnR7XWkFxw62LaaksD1UORBl6QHJXsbR+S8U6hwA69BPXiEyVgygnStcAqrLgOC4ghpaM2BtMKCugmXNfm3ElIzknL3qi1M0dCytatron+oU9Z5kLLEftYHratuKg/bYyp9ye8bqN0/DkCjt6unJooxxiP3AGRc+AA2vTnCkEce1hjUZudOfr16dHGJhBGKH4LRX49n7gDIU2osjfUj4H7xPvOn6OTFpgg6YGDnC/vbszYED3xsXrYkNm5XKYF5GMii+LmaJU2cYdNVH7fhoTy0KZfjXj99PItYJw51WRso0ueIlC0xt3cNATpAcS+m+0dinf+g7XtoQxklTU4HpkBQdebrC3ojh0QauNDWQ1a+6+alk4YyD0eQZq8IuI8nQgTCzUG11DiZjTq6GW3jBv4HdMyswEhjIvmYAfctNIvJyRgXabaaG9MveAYnYVLnS1OHQoV9Bc7hbX34cwKhRnZ8v/DUuIBOHx5sWrYr1m/yIuGs3GDIu2jsU1m47zpysHi/VLf6yZ12bgzSmr4ecMeNJhIicIbTkLqcmVTbmzChGzySdkq9mddjwgThs/qg44rDRqpnghAkjYuL4YdjQxkb85q37Y/OWfaq3bNsfm9B+asWeWPrE7nj86d2xV8/+8szAEBljGxa7dtF5rSSpJOPAZV5CIyrFpFow29SKIbhWfjOkOyaedeWksSBH2pCDeWuNoua/Qe8DCwgdrTg6rsksIfsuVI3Gqjh74eQ47aQJceJx42LcWBxn/0mZMunZAbt3748HfrYz7v3xjrjzvu2xGQOsxJr/wbZKFIFokAXM5NhmDgySaaDJZNVICtlIUTbAEEITDQ7bGDDawdAD14wF1LuKl5x//4FSyhDG5jVxHc7kERn0Y8cMize+dmb81rlTY/y4btCWrdwdS/59R/ziyV2xeu3eWLlmT2zFIOzEKtm1i4MxEKNGDYtRBw3Tipw5fUTMwsaV+5zDR8X8OSMVKMPcCfy37toaX/765li3aZ8iZ3zkGDdmIIZjxW/Z7oS6+NEnhoPA00LWiYKQauwEY5258pB30mXew+H0Vuq0E3SYT3sDHEARF5mClItGIj3kNDz+2PHx3qsWxPRpIwmKHz+0LW6/a1N8/9+2xPoNexlhz64fLMDoOlnPa/WtCB3up75oXJx96vg46bgxwm7eui+u/9t1sfiBnfLXvvyhp/XRO98pMaIyB3rxuMix7GsAhRGUurRJAmNS3jAEVfyu1T/9vPu0Aq0thcEtEAaE8pwjxsbHP3gEVuDwePBn2+ITn10ej/0SiXHQhMDuWQawJULcIIwEklnlCZg3Z0Rc/nvT4pQXjo19+w7E1R9eFT9dsqsNiCeCFjSFd25D2g7KfKlURXk7smRkjoqxuJWVsN1E9DE0zcsvxSDBxmU/6CRqgfRvet0sDd7/vW1dvGPR0njsF14Vuv0QwkmUvUTk1Fphz37UIq8armgpa8h5s80Ly7XXr8IhvFGH69sumepD0nDFaG8p6MnrUUsi8H30mqlx019Pj+mTbcG9MYyhi6n5x82yc2Is3myjg5XGegwkf36VE2MLipNZhuKHDz6VnP7iibSJz35pJZJN5yTjv3REfTmTI8gJtZ5aFMqypty4/nOpApDNF76yXivw8AUjY/RBZWb7znaof0SXvLSYPHFYTJ00PI9+YPk0QQq7dg2ZbGjQ8jeGosYH3sKx7t0AGkwhHXAQgOSew6N6WJ5vzl7oS2k/EAJq4PoOzCPzxml9F4i0dqHgyp5uF540TiuQvnkvKB2x2ApXsVZNuWOxX4HZlNAy65NI+bGdnMzbZD4zsK+x8LIxg7F+I02HuKrIsQwL73NbX07jK95ycMycPjI+9w+rYvduExGp7x5c1MDIVZ6XbJ/Jk8BLXCh2+3qdzxDPcFzc/9tvT47Xv2oqISrEVSzMJ+mfYU/M/1g0PaZN9h3C9Cmur/uTqbEvF8e7rt8QazbUQKOumFDTnkk0fnhveiaHyXQceR/I6PTgLBL2UHIGROaO5VRBd8mrZ8WF506Lr+N8ePudG+OXT+xqNgYCpDjoEYVVRcQu+uqqUf2BmDd7ZJx12vh4xbmTYtqU+uWJE8y5JRuKCG2o6SpChzFj6vCYOdX2xkdQVmW4jj1OiFl5lHm5AAFR+Wr5S0CfKFkxgYHTzlncuwqXGZPLNkFs4++uW0+U/eVXLYl3vGVeHPO8cepzt2LV7vjJw9vikce2xy+e2BmrcB+4Zt1enb9oL5/FBTzv46YjQa7kww8ZjSv86HjBc8fE/Ll5ogNmKSblxi+ti2uvmIUXCcPj1Zc/jicYpopw8nSCZsbHeCvmiNm4vxyG8aLv6/50hlbj1X+zFqvO7w/XbNwfe317CUze0zFPFlXY8Y+yklOFtvynTIcwkZ4BIUjhkiAt1woOmp89si3edtWjcezzcc+2cEq85JSJMXf2qJgz66A4/+wpZa1lvn0HbqRxU6xHMWh4HuONNG/G65zaDNBYs24P7vm2xZ33bo0f4alEbmvG+0CuXGVooWO0iPJVazE6GoiIvfnWZiVkq9d7ADkoVIual1z/ecD61JTDlwfSvpJWnfYox7FqQBiQA4I09DFvc++J/enDW+Ohn+N+8DMDcciC0fFC3GQfMn90HDJvFOpROARH6vHuVz3i7ce5aN2GPfEEnn+fWLY7nsT2syU79Ews34qyHVTpGnHxfSJWDP2zEKFokYAXgRLRzzaURC4CgZlX5cS2CIzXaJOTXfJiJz3b5KYdfbHOcyDN8yRBYgPVoAZFo65WUanjqzRI++k9/uSOeOIp3hdCyqDxxx1X3DjceI/BRsc7du6P7Tv2xS5cfAAkqNXNH+WKB7q+62zv1yDSj6y9w4Qc89zRejmxbBVWHxMFgAkvun6tXoet3bhPMXsSaJwZgFeDn/gWh5hzoJsrcMIXndN/HsLkymjgkHGyl/Gq1ycVMnFQqpQ5OwyahbKdeIuiNyab84RTCiGIAYh4EaTntO/8G0xerQDZ2E82YzxeZPzNNbNixeq9cdmi5cnu6umVe+yHXQYPI7nUsBlj/263+AF2RN1kEOGxYCy4IBeYvRZgcraKSG5DimxTLghmpj0FEI6tDXbh+hyQDfIv+85P5tq3EKcFdkB74ubj0Y8vWFkf5Mf0tIMW0L6fX+fvE335qZizpjM5ZNLcUFoAav/6fl8n/vQhR+mrYtDhkoqCtRt4T49imzvLZyOujlnT0M7Y+xNaORS3JrecqvZkCJeplw35qu0aABDorpeCEhaI5Gpz/KAf5Iyy3mrp7GugCUBREllbwI62oTblVzZA8NAcWiwyd2fv2I88pLv9OQptnt3o3gWNIXzNXrnjypyxKo6yEwH4FTOYKM9NOIyBD2GSQ0G8miJNgSPQr5qyGSN5iGSGJCobErTAZY4dCnkrMLbpqw1Q2idIeLfTRpLiIdFgOXmHg+yc08fbFvuXLRwHmIAttvrCRnzFXAaKufw4GfSMs9htcZIXG2Esvh1lVmnYyIlD0SFQSVoUF543gwpvxCRhBSeJbEBKXOlRs1164lmyQt0FXbqxeHl6EO4bXco+jYBn2C/Gu8Opk0fEhk2+cT/x2DG4cYaN3NsHB0muk4lO6/RAX+RB9V/+faJWoIIlYc+D2vYtl5UQO1e+/ZB43Wtm40aYTgHin7zTwH0F2OMs++78JVrZ2ZdISNS2Q+eNjI++b0GMGV0DCBUOG2FojiZ3l77KN+9/d8v6+JfvbdEN+qUXTTaOGJnwBhqe8vsyLft95yHCUhHttqBuE9eXcwgaiLOgxBHkr3ofVsAReAx7+1vmx5c+fWy88sIZMXasLNss1mAVX5dw56s/kPZFdvM878jRsegdc+Oz1x0eR+IjVVd69pqwiJefPTGOBv7pFbvjtju2xBfx+msXvq28/OwJ8ZzDDoJr2Ahbty5mo9zeOna2NEC4z2wFuMrHPHWwekLwXbgEbugeB8w2Shetb9qr37Mk3vnHh8aC+WPiXVccGle+bUH86Cdb4v4HNutZ+NGl22Pb9l4QGRgjJr+C76jjYDz/HnX4mDgBTzInnzBej4T0xI9MX/nG+rjwZZP1RKNxoEJB41kab1v+4HXTKYm/u2WdnrvX4Wb5a7dt1pucK988Pa543zI/88pYAaR/x0Hbblocn8/jNcAOtAaR526Nb57Eeb0nR5ZMjj0BQCKLPibi7sUb4p77N8XLzp4W5710Wpz4wolx8omTtBXTRpyPVq3ZHevW74mdePrg8zBzGJ+fOCeMH6EPS1Nw7uKzcb+sXrsn7rxnc9z8tbV43NsX55/l949KBSSMZszogfira+bqk+nd92+NOxZvVcxM9Iv/Z32cesLYOOrQUfGut86MD3xyDXROqb8wyMT8yOtJ5eiY3xNdw+D89QIjh6Js9COJvjEHTk4A1BiSHJsGEnWVvfiAe9t31mobi6eA006ZgoGcEIcfOiYOXTAmJk8aoa3wz1bT13J8zeNj4JKlO2Lx/VvikaU77ZvJMZ40JpYbv0Ffe8WcOPLQ0foC+IFPrBCCOuJ34AXGn123PD75l/Pjpbg6L1u1Jz7/lY3gMRPzAtQ+YFl2/bofb+Wv0w7ONzW4JBg4+SXfS1YQ1jTBgdtFgx6u1z/47ukSnH7OYtV8CTuokJDRoUybdlDMxtsZvkjgAI8byyeEgdiG5PQ8jEN86zZ+VN+t1Vn+asDMo0DwkmIsbIfh7cz2GIEpf+8758WpLxofmzbvjcsXPaFXZ4qYvtM/qxOOGRsfumaOXp39460b4zM3b9Av1irGqmnLPw1I2hePkoGswxLmSeWY4BzotxuaHJJwalhpbzDJOTtV2kzxijaEvHDr1uHwxdb05GbJAOsdnES6mSJ/rn60yhvNHnxou/oz8Cn1g+9eoAsLb1ne/aGnY+XqfM4Vv1coebg9ALsPfXJ1vOvymfE7L58cc2aMjA/fuCZ24PmcyVesDgk2cCoZmmRQRMwPbY5L9ZV/2vunHfnupgBGmqRIB80ACatoYDkjCIqyHCCpsy2H1iYptLSzgZoOl+YS9s0hOxAXXzAtLrtkplb00sd3YvCeitXruhcUNRgkNYWyie8u3hIrcU59/ztnx8IXj4ujcGW+4Qvr454f8as8fKU7x2iRhAyPut7AKajcVfgDLz7tu3gjTamZNDPqoZ/yWrL33LFQ5qe/9AcaY1nJ2EErZN8cpndW5Elu1Mag7/ysVyJDMOjysD3jtInxuotn6CpNf3fduzk+8PFluDBlhjLrDrGKtYvdMczA8/FfXMXz5ijlwAH86m2b4scP+1tzP0YBMmbKlYNGDM6qLxBeZ8k/YtEKYoIAyiAB1rSOGj6Z1kxTxEMnB4uNLB2PZdzDSjfD1PFfFZ5K+GuHo48aFwfPGYUL0eg487RJulIT88snd8ZnvrQ6foBfQLA0bpO2uLUSwc0JYsWaEP7U5O3veVr3ja/HjTev0txW47PD93+4HfeRe2L5mr3x8GO7cIjTri4WtO6KKHXaY0vnwATIm4F1OChZwQYP6ryDceO6fKcHrbjLHo7JmLGnFkyZVE0UjfuhTcZ321s++3w8Zw++MPH252OfXh7f/FdcRcsAXC1G8UIh/+k5gQ3OKKDnq/2vf2dTfPvuLfHa354Sl148JWZiZV58nr93E8Yr9puuHvw+UazpR5xo0wX2v+J9IB+VVFjneQ3NFjyk115zVIwdjS82kiceACbFjYM3qNCY25CiQUg5f/J25+JNsRbfRGpwCB+NHyO94jenxvG4orIMYoFtw7KN2FsfWK0R7CBt/injufBlC7uXD+Tl584VuCB9b/G2IfGLoOOFn/77xIGTTvlO76scnWJcYaPDS7OKdtb33HUmfamsXr0rPn7j4/Gvd6xF4DKAvGo2c9URnfZuJoZ64i2UDw4OoXx5wEP43LOmxHnYpkz2G9L7HtgSN/ztCn1D0SkAWNuQs+MyKUWW1XmdtzV/9IYZccQhPg/yTTUf/+66f1uswOHLm4rGoybXGEV5VMhN50cxnHTyt7Vk+gNGknKuHNnHvxrAR5Zsjec91zO4ctWu+JfbVuPpZH38fMm2lhDt5ZwE6bgl22UoPyXn/eJJJ0yIx3BDzZ/GsfDz54X4Gd1b3zAnJuIHm9u274v3X/9U3PPDrQyzS3hQzIyf1toJ85oLp8QfXjo9huP2gz/Du+Hza+O+B3cIV/4VMzoamIy/Yk9C6cjcbDiALdkKiCS6z3FNA7Ti3rt/Q62XnH1XXPRbs+P1l8yPOXO6h/0tW/fGI49uxbYtlq/YFauwStfhJL1j1z7dLO/Hr6wmThypX65OQs0BmYQnlsMPGRNH4pdfRxw2Bh9/BuJzX16BbRWCxNzm7E/COfIdlx0c5+GzKb/oferzK+Mfv77OkWWyzKOfKJMciZv3K/9gVrz8pZN1mN701fVx0z9twPlQKaU9VxiT9sLhWYX5S8RxEIrqwfzCawWSq4IgWEBU+EfjMqwBPPWMO4Uh7LhjJ8aZZ0yLMxdOi/nzxtD6/7vwZ2wPYxV/49vr4hvfWm+/ZFPcjuV3L5oRf/T7c/TK6uavrYkbP78qAekWQSledPnI9+F3z4+Tjh+np58//8jyuP9B3pQzszRjEnJAAQrtqy9dT0Y9BxaFe/KM4PuxGjxrDODIPeO/1xWAhg6BM/XgTzfjSWFz3HDj4zFz5qg4/LCxeB4eF4diVc2ZPTrG4ResfJxjzcewLfjB5GY8gul30ltY741lWK2P4Q3Oo7/YjudYTZk8scVIr3zrPL0T/Bh+j3gLBm0FDsH3Xr0gXvvKGfiuvCtuvX1jvn7LALO64s2zNXjr8MPPP/2rp/DczG+pKEyRgwMHusA0oVXU82JEWEqAy3HC6q8FRev8Liykdr6KEZQnThAppZqNpPQjoF2UE15YuN1zLxIinoEQj3ZNkuTpTj9okp4CYognp4NUC/7POXOKXkx86u+Xxw5o78bN9Ic+9nT89z9ZEO/8w7nxFD7OP7QknyxoDZtXnD81Ljp/ilbeog9i8Npvd8hqjGJRgJWBFPAOYebbBhJ90JbYAwwZP/GrQ6AHT6m4TYsspWO3vQyFWhDW/VsIDoT4CDaB7AmW3MJORpz9Mz0NZOHSXiw9rtvv3IBfh63UfeNfXLMA59Pu1wpHHzkmrrhsts6Vf/nRZfohaIuHRIwj64qBC0JtKZRA9onFBn3ZFY61lpnmBJ2qqWC7/KjROvKQ+iTXKDkokRNrMs8Y+7LvTshkqUDMSIFlnIyKpemqIR774oXmxw9txW3OiHj9a2a2mC5/4yydLv73P6+LH+D1WE1icdpvt2BEbUrF1OJqsqQAgfPrYtUAUkjyMmRtoDJq8mXLeQBFHIXHrcL27SCUXvYYBPWLixrqKVezGyR9p0gZQGyJny0+3k3Cf3PC2xe+vnJcpIIWzj9yI9444wnjogumxoxpw+MUvNE+/phxsRYvcj93M16kkq0fV7YhlG6oXkLobJMYYvnXk7PN3HUIl7IYqahSztlfvNi3DX/+nqNjKn44RFZyN/tsE1scsqdcpYEZTQmt0V0smj2OCfiPdN6/6DCs4oG474ebrSsr4PgSic/IX/3GWr14ePMls+Itl84S4n99YaVerDp+AIf6ox+WTKAGxMJ2APl0lUFVTsaYIH/akWz0U+cyENfgyRD9T/zPf48nn9oeRxwxPm7+8snxqlfO8TdiBZKuGVDalj1Hk+3qtxqDVu0KnH2+0PnNc6bGF288Jl7w/PFaTR/51JPA8lGBPKzNyRX9tVvXqn8BbPhtZSNW6u138dnZsTB+tpsvtAfJMv3iNtY2yl0JoA9fevPXO4qGz5nze+9rV0iGQQvMuP7ZmlKtgj17DsTtt6/GITwhjjh8fCw8fXpcfNFc3b7wAxBvnBmzCjlkn1cvEvNP3CJMIMX4h/92/tijx8drXjk73n3VYXHBudP1Jvuhn2+Nq659TDfkxcs6qdXifz524vHjY9ZM/zqB/xXBvQ/wSUUomWUwtrOEwahV+SfQduVANQYu+8WZljHwohfe6unokSVr8nEgAOfIsMbG/nnnzoo3vuGQOOrI7qF8F544Hn1sKx7ptsZyvK1ZuWpnrF+/V08hO3by5eeAfubGn7pNxvPt7FmjYi6eZJ6Dc+rzsFFe5cmnd8RNt6yIb+Kmel/+DLcSracEjoYTGojfvXhm/PFlc2XO/wSDv5alv8JwXo3tauZCPXd9ndZAkxs/2B5nPh3Wvd9I6+SuxzeONqy5zFG3ZU8/KOTlIfStb6/EtiqOP25ynPUb0+OMM6bjM+fYeMGxk7QJ/F/c8bmaX/zu+P4GfSbN7FAppQwZMfFQQmz8V+WpZb7Asc8b80HF5hYptcyREo0Mc+rlq/w5cNb3zemy//tE/0ofOIXTIyN3FYlF6nEnsxYkvD/4k43aPnbDUqyqg+Loo/FlDk8jU9DmKps0aaTqyaiZ9KZNe3SOUs02vm088cSOeBjPzxs38gE1c6I/JqCSKwSBMIKa4H5iy/FxioX/TR5fidE2Q842yUQgRS2M4hKYehoyOaNVKwzlbLltCMv/9RMFGhoa4nDRiwSZckdC/nWBN0KqYVNBbNy4W1fqe+5dT43lNQrwoYSeIS+cFDRLOzW9y4REMEgM3+yDmJ9Ff45JWPp4rkTnahPYs+s8URdHT8485AZK5UM8cdgpdxNoLKywg4ETjvtnRVFG9mgPzWE91vXIiev0ciVnkD7r+0Q55igyLtbVpkLiqgUwxmDuVWyHJv3byG30K0eRka/4s6a8HzPFNbCFbbXMFVRvQdmegVT8+mWCRj6F7fzCgMROOBotCPYhKSO28c/J5EpmYvRNTAVZDRqj9GeVbRYlJFdm03nJRArYKBmLWy9+FWdqsu1Q6ZhyBWLy9ENfLfyevQZFMXOgiHKxqATmrPx1H6hwgVLA8suUAIRM7qnjjW5inFjRM0TPPgAZL52YT6iyoz63Fg50lWNrJr7Lkidu4HJT8JlhxSIZ9Iol3UhGjzLlzm3WbYBk00AK1wbEAsiCmvnbR08OIr/d6gP7hDmY5PAgs5VFpHZAYg80dL2bTMnYzzhUs02RNtupkwTFVTa6aa6YyjdrE0jCybZ5TZrrWhh0KL1IHQD9aECSypR9GXF041qdZi+FYmj/1w4vg9zDW0tErhnCr34fVod8c1NTC8Ez3idCp4DAr+R6ATrBnpxJ++OMYlc8sP91////WjwtAQ/V0D3VXt1oMVjmiSbvCFUkY0sz40cldwHQLPicSFzJq52iJq9HrRR40GwkEe2MofMMAC3x0T/v8yT2iqjJrFox1rOzGM1hXnJ3fWK1EZdyNXtHRt5mQuyMyp44FkRRGgsoSy6tQDlWIhhjrSBIAHAYaSMDyHMV6WqWJH0c5TVTDsf7cqiJ4/zID4Nz2NKLnrsK0LZd37HIJuOwhDjHq/ibvbXc9/nZTvcKQA86mYTjN96sDKe7OMqOebOBOl87y7+8kVzO5FUi4jyYFRidUUYFCh0RVLUCtIga6aQnwCbC2j7JUiEZeU3mRBUAcXWxImnn3z0KLNMKNkCqWgocCCVTvmoVkhpF4cFX5VV59GOmfcXNur0PJEEZ9kGUs9+CYxudRi61B6/sWastu3IIKwRch25hK2i6kZ/kI1b94io95YnxGIMzD2dzdvEZSZqeTDGlTATZBoSx6W2L4GVd9q4r7orV7wOHDAgDdHAwUsAOIP1RjZIO+gFZYdtsN4fZlxlMu6RMpb7dCFm+mlzSBMhn+k/eGsTitzgnLM2Ks6g0WGWgQaamFwSaFWcNmHkpd8vvA7NDY84CjRxjnTzhmmQYTDntrYLmIH17lcmzeChW4OK0I9r4FJIJpi2rdJwxZGB0P8Re0Lo3k6F3DccEGCf+PHDlq2pzElN6cdIufSk3tKlvvAY1WTsHNkDPobA5qIqEgipyVJ0MhjJGzFI8GYyF3Z5QXf0Ex66Pk6wGHqociLJ2wtkjkczNURjVeaXwQECSvNLRLgWi6PsXAP7TkewpM1B1yTCAnJGcBXD2R9uOuxkwFucJcdmuBU9ZBqTBSN6Kuf8kw1gGD1iiGKBYUGdCFZtjgfgZq5/Qfowdd/m0O/t4pr19KXO7p2v7hy/5VTftpbSewP8HUKgOSTY3mF4AAAAASUVORK5CYII=;fontColor=#FFFFFF;" parent="cVnY-JXB5LHUISSboKDK-10" vertex="1">
          <mxGeometry x="44.5" y="60" width="80" height="80" as="geometry" />
        </mxCell>
        <mxCell id="cVnY-JXB5LHUISSboKDK-17" value="DMS Servless" style="shape=image;verticalLabelPosition=bottom;labelBackgroundColor=none;verticalAlign=top;aspect=fixed;imageAspect=0;image=data:image/png,iVBORw0KGgoAAAANSUhEUgAAAFAAAABQCAYAAACOEfKtAAAAAXNSR0IArs4c6QAAHjdJREFUeAG1nHvMZld53ffcZzy+m7GBYBt7xphLQxxiSIjAsWiukJtKovxRVfkjEkqlKIoSJVWlSIGIVola9ULbSFVVtX/lVuUm7AS7FAgJl6CGJA5gsAPB+IrB9hh7PDPf3LJ+az3PPuf9ZkAYtXu+9+y9n8ta69nnnPc957yvveP2t37q3NixY9B2VP815wo9V7GJl4F0jDs3cfB3rLwQmOOcrJ3bnDMOOOso3MpLB344ghVMfDTnrWpo7E5xjibNlXhnyrZNk2miQapnTmM1124znxOkiQ2txaDPmtAHSyBld7JCmJOWLNHM9OSTS7PZgchU09iUms1I8+MMLv0Urig4N/jJVbK1ObhGMpoPHOxu2XEY8Eb/ilsxK/oVD1pw4gffAA5uLTt7QOS5s3o5w6wWR56p2j5VMUh8oBmfNQbzpRlgwRXODl4KMMLEDRYa0oJvLA0JC27sScbOXE09Y16Ji7l9+Lc355adLvWfTVjRhD+4ODZQlLTTwNvAW4h7FQSIICzOIBRppCpJ+VO0BlOY7CyqGynF0/gzJxHaFhdxjl9ylLyR74AGsBanh6pjjRNnapEW+7SjiwsebA3lnjxHLJzOYy3k8k5WT6xP4S6sD22O581Dug9h9AG+Pp3Mj8OHOeDg8LKOKMLpmN40J/MUg185hW91AMgcxhoUgHPs6JxQOAV+cDWpUfRUrgHlO6eg6ARIzZrR70kVZqSAO9GRqU1DH4GOh5kXzeMI6Pm5s9pr2+0CnCLl81hg9PzTYBZCPnP7ym5sbSgyzNpaL7PETv7GdGRw8YGXHMNXeuXiq3aWcb2S46qdH8r4rYU0Txl0GoaM6ft42NkB6RfRJnFyQPAbwQUwDJpltFD15E2bBo3jI2EDSrG8FRiqF1qT7TbmnUdfr9BvcqFp4QcZ/uw4a4op2wB4rKzNhdc8OC4AlNpHiwD8vHazwetP0DXBtjGp2TuJ9y7QEPK0SPTWvFWcqYk7qxQdaXWKZxcqu+aNMnct2P2xDoF1Kr/1Ni5zNXgZeUd5LH6fo5owVxz8HIn03WxXlutoM3mxGHipe60/CD4Cl8ULgkU2Q0GVZ1pnTFWO3zESOD84yKVAXohUF5wqaKItA+LX+SQtXCEDIzHMYwNh8rNTbE4u+clJb0zeUmZb40YbrsYj3q17TXz2yLzbYEZPDHtnTUaq90Dv3zhl1IDi7KeMivTeXXxB1dbkssvvgqrHT2a38FeMjRCSnijTUrt5kkuE/YZn0/F41OY8Uytd8TugKwB3WzxZa/zoD5Y+RPBmAh1OB9cY29ovZ/m7J0CtMNb5i63cLaw4myccq6NDHNESaDh5ec22aQ1yASKjYg0gAclJPitT6QZu/mIxlPVzBGMEi66yfGjZVnbF1YcIBMTrfcr9kmyABlI/Scu23c8c4sSFiHnwFzt+i3R4xo1N77HzOkcQEtynbsdmoVc8hZdTLMV0rHUIg4atF8lXCGWzUJYMDY5MLHbbrKlsAtiZsBAlnrRKtbnmJK7anHoQ8F4QwiJOSBYcjLV/4YBEfxOwcotrbbcpUBUPr6ydX2Pimsv52N1mMIRtjKffE1cYAHuHla0xG4qDbTeXDTv8EICovPcQwIxGEu9LXYg/wUS+YSPK6FnIylJm4jwXIBidB+eCWUwV03BWJO5AC3ulZckHUyeSnVAyyJTeegWwcIXXOlg08H2eE72K80Qb+zMxhuapg0toXcbYZc4Qr8EatxNbXGMD3s0xniCoI0RGZbVwXsglYezUIh556d7xisP7xw3X7RnXXLV7XK3XJRfvHPv27Bj79u4YZ1TjM8fOjmef08v9uXH0mbPj84+cHp9/6PS49+9PjZOn4PBfFoNSpKFlpOA2bKiwNizodPyqpq7P+fEuyewoJWgBJ3MUiDv8HE0lRKAtovu5mAIxFsRgek5imqYuKnnEnhsvu2H/eMs/vmS88bUHx6UX7+rQC/a75L7q8l1+XSjg9Olz45Of3Rp//vGT470fOeHFtGxtWoWPNvFyLFvHxtHftUWbDyDFOpccClrXX2csOLQdb3zLxzWqPUAwNE6ymymWLOq0y+Yx8WrOK9vXmF+ixfq5nzo0vuvbDyZfsY8+fmp84r6T4/6/Pzkefvz0+NJTZ8bRp896IbZOZRH279s59uqIvPyyXePQFTpKX7BzHL527ziio/aml+4Zu/wWNMax42fH7951bPze3cf1zmThqNmmb9Fs2aU9YeSs/T02in3rtWANdrzhzX/pBVzAliQCWGcHNnCYgghA2z22M75VHDGXXrJrvOsdLxnXvnjvOH7i7PiTDzwz7nzfV8YXdCqm1sISffZteA22jaeLROnBi3aO137zvvH9b7xo3PLyfQ6/576t8cvvOjpOn2n9wQruwhOJXe9SS9fcPPSzTiXNsey7rjvytrfPQDPUYUsg/wq/ySY4hmoTMAonAXbyMf/MTx4at37LwfHZB06On3/nI+P9H3l2PP3MGSMQl1Rt9dd46RcB066sztnS+98Dj5zR6Xt83HP/qXHLK/aOG1+yR++fY3z83i3XEJlLLanpfNzEFT9BCYxGtjVvHWiuC+l6AyWGQJ/fvA/wPpjSsHFJ4utELk0otGM7hrkaOfNFjmyv/7aD9r3zXY+NR79Y52YQHGssIjQwJ5jGqVsuT7VRa+yZY+sY93zm5HjHf3nKsze8Zj/pwUrSHBt/FgBgAVTf+AVgp23zidLyPHHjeSArTGAW2pUoGZlCtrGZEFaklcPMewaHbMFIDKYrLzeVDElMEYFtLB9VLLjz0QIoGMFk1K3zmbOjxahRax7j6iv16WMtYbQ/1IZwjvE5+uNAs1PgB1eTGlnTTGcgH289fqTfwRhJAATMFsncY/fxzQVyTgCT2OMlf9rl+uWffdG45gX9ySsRxUmMxy6CkkLW2r6e54mvvnnP+JWfuVIsaa2/sY3pxaLOVYxJ0Jv9RZ5zMVT7as8TcwQKNAtXCS6Co6MHAGdPLcRB9lFDmkOTH5vGys+idNYYh6/fN/77v7l+/PH7nh53vl8fIg9zOhMrDIQbymAzHxz+lTPELnKMiw/yIbJ//MBtB/X+lw+RBBRkHdHBb0+g2C41htP8rttCJEm3t/zDtm61uH4eSICld8zzeB7mPaW8PD5aM1x4fNcHnh7fc9ul461vvsIvLmP+9tPHx/2f3xoPPXZqfPlJXcZ85cw4sXV28AHBMuzbp9eeMa64bPe46opd44WH9owbr9NlzPV7dE25d17GPPX0mfG/3vPseNtPXGby3h2ZsJOyQwXJkpQZDua9f8rO4q4uhfpA2P48sd6YItQgxsueyTwEkPtIaeLVnvXimdcbhdWetTSEFYbmv/4bj43fefdT45/8wOXjO15z8XjR1Xv8+t7bKvh5die10B/Xh8dH//rEuPtDx7ToYy6gofqobv3qU1ce8IYuur2tI9tHnAqrA81H4KzLMapx5848D+z19zJCpD8fWatiPMclf4DKqaQ6YG3AjxDH0OvVe9sB2nz+wZPj3/23x2V/fNx0477x8sMHxrXftGdcp2vEq1+wZxzYv1OvHeOALqBpx0+eHSdOnhvP6UL5SzpCOVIfefyMbuW2xifvPzlO6XrPO1ixG6eaq0fNUg/l+YtCBtj1YrSuD4Pn9iQgc43Vep2w9Ufj9PhoUYSFIIAFm8tg5DAK3Jc1JQSuKQQ08pQfnMB7K1sEIHKM+z7HXchWAiaWlhywBq1+WRz80UVP7MIFelrJD5FMfmhS7qnVPJ1RmplaQOvvpFz1dTScPFLQQuRaC0PWVzbsFdl224jhj77IPbbtaz9PBC5YHhT6Ylv7MhYobcXZdvquvcfxJWXJSy2G0dvO/+vniTlH0PgNPg/LMnv1SjlFd+G9ODWvCDrWxM2DFNkLgt1jxXwjzxMDnO35iyo7uJN3NUdT6WotjitbnE4GwATLTzs8DXCSFKA9BmDA1ntvdcTyYeLcAHYufY9bTFGYHNsS055wxB5/crVFClzVkzHzu+qVr/30xmg9ldenfY5IjESqsTAVa/3YoN+W71AddD6FLa4Scczm94Ekm6BJCCC+WJNaCzaTxZvqTT7NxTPFlWMKFGzSQiZU5bPD1uRMNV+ZjLfSBOz2hcPWjVBfPRgDrJX+wk2+XHUgdW6V5alPYcgxzqIKrK/+iWxfTqnMYwu55ULcUzBE3Hlg0K59sS7oaPL75QWqo1im1kGec9W3DfBc2JLa/owNKf9hPeLq5piadC3GdPBKG1rKZo4qojkmP5JZTLX21XtgwAiUh63b8qmHTTH6Z7ACWV+e9FECsHEKw90COX7lF64d1xxaffiXrwvrnhqipyRFguHO+oiUf00kTa88sm+8/WcPTebkK3Fdk7ytlcCFI0LO15+6qT8vbalff+T6e2GAphqREYqTPi2XDRi8iHkDWfmXdOJ7ESosYIV0+KX7x//4D0fGne99atzx3qPjAV3LuUCvRjFXwc3vIuVfcGVBi+K4XnzNNx8Yb779kvG6bzmgMhxtto43aokxprGQlVodfIE8DhDnauvLptIVDuXKmVu5NbjQ1iJKibu5yJm5gKU4GUHUG8v8kkcm6ypi0t7zvqfG995++fixH7zKr0e/uDXuufe5cf/nToyHHt3yhTK3ZNxhcFfBntyjs3L/3p1+In2Vnki/UHcvN+iJ9E0v1UX4kf1jz+4sGnm/c8fT46f/6fJAwQCStd7xUzOCpM31qmex2CxfspGtaOdr7KGjZAtnziVszKvvPZcQfLX3i8xUsjU4id5DBZOFDJwFeRXlVPu1dz08fusPvjx+7IeuGq+/9ZLxomv2+vV9t9v9vDcs9Mf+5vj46F89N+764LNj6/RYFtCLsuzQXsRZH3VtMCpW//C7ty+1UZNjay1ckjY6hSk0MBgV58XwehbQeoEK04G+1y5A22sMjvcIYJJC/tLO6VbuxPi3v/GI9+jNRw6Mm3Urd91L9vl1zbyV43aubuX0FcAJ3c49d/zcePyJU7mV0+3c5x48NT51/3EvGjvQO3FFNenhj6gpoxcRgxfWOlnQ0pwFSBmKWQ6WQDhHoTmF+VJGE6cyNHMCm9hPIcrkON1I07y3euE07yKybNl7a7ge81Uu7TN/d3zc99kTxa2sKnQe0evCNd6wQ6KWt4wqfR0vsuihuBonxfYazqPNxyP5iOyu5tSMrSidgynfZ1UCiTl85XEGWLoGg5zodSOHl5r3Bn3l2+KcUtFgFd3+3lEFs8oPlrHbucrNMPzW1THqG9Mxpo/G7UcQ2teXJOAYZnWZYlt94m7QV+lw5feB8jrYPSOX+HU9DwMEcSziXOV6PGPpgrN4owpXgjgqOtYFM02dFXV+h9s8VIlEHxnRmWiMcWWurVck9v9fv0/UibQoN5VIXaTN2aNZJPTUkeiY3M5FbDDIR7MXRePGSyGJ7G1fSzFfFq+KBWTV2DnlmdbmaPn4J9+MKi3G48NhWeBZyyqWIfZcJ5bD89JjnGD0taTuhcnSn46MKUpKAhQfUPYRvAJcbA5wjAuZ+cQvGOBcrw8L8vx+Y2KWJ9zGUwwYjZ0+c2sFpAetxX1+w334en2fWS14JaDeinA1z5qDcdvnkd48lRO/4vq0FnQdgUuVDVq702eKBRssZZe+SdjzrEcIWATn0eGo9vZful6XLbndWgvB3QvXhdAHJ8mNOQtZFQjFK2/aP371519YTOqKljAPBZD64muexu2+eSe8AaSFgML0UHZfgjqhPm2IahInVI7ft1pJ/bakbc7Xp3JwlEAORAJoIhu1OXzDgfE///PN4467nxzvvvuJ8cAXtpKnSL9P1VfV3lUloPVZF0DYQzD26/uSW199UL+1uWy87paL5IKxm0XM2N6Rnd6ha3zyJ0/BpBTZOfJ8o0CMnIrVh0iiAJ9v9tLQMgLWhhmcpFagmW/WmVdIAIRahSZhjD957xPj+9505fjxHz7k1yOPnRz3fOrYuF+XMg89enJ86YnT44mjp8aW7vC2tgQmwXv1aH+fXpf7SyXdieji+8br9o2b9COlV9x0YN6JPHn0tL5vOTr++T97QRdl/pbpU7OFWCh6EczugitVZ1sQ+BsAE+HuckRqAflypc5kMmtFK04+GfXXe6X3kHsewsrvGMOu4sJS/nKq+9f//oHxm7/3xfHjP3L1+M7XXjZe/MJ9fn3/m5aY5zM6qQvsj33i2Pjw/z027vrTr/hHSb2AaI42Coi2qb/OIriyPksM9erPa0U8Y9aFNdme7zsRfwxCUAEZBITxFGKksgNK84JnD9odNfHVuBc/Rn2p9AXdifynBwX04Lj5yEXj5S87uNyJHNo7LuJLpQO7Nu5E+EESry9+6dR4WPfMDz+2pTuRrfEJfSV6Wj+xiXYYSmSRuez1QraI0t3hrnGmC0OAlr9auE6lJx2muhc2/bR6pg09ba66Uky0sffKBmcLLVJYyI2SYPE+svy6lDuR53w30jHmMqeZrXKxITl6amA/G/NI8Hr/9aI431paY96vjUVNtVr0Pt7QD5UXIkdgv0XF5GLtrjuRAAPYpIzTgCWtXxrVx3jKIUoRCPSQuDQX5eHKprnz1dfJkQg/41vh2Fqbpi4YuGbbZlv7okd82/K/2vNEMGf+up4VH5h9DUj8vBNZ77oGoUC42fZeJCkLQ7H4qvWulzE5ImrfEmWBzq+4Dul05pNf4NauvjkDnqOe2MbSgEwsmN0mDjP555xYhTKvobL0r9I7LiiF6sDUFiyY9LXmDKYgXhxdbvR9VEHW0mK3Vg3Py0dUIcyO5As055aPDu55F1A0xpKzeTaQVnYEJn+JIDcLBHjZp5tBcInTyNxgbOrXzOmdL7+wkuML6XVl5YDMSeomcciIjk0BzVTY5LR/Lk7lP/Fkvjy/9pu4E1l+X+ecEkSuIZ3jkjb5KQ5d7GT9zdjWqPzDeshK48MGDb0gRqu4zu8CiOtSGKy1r3eo7cI2buXki/W+zUEXJPpzM2EKyVxbfB1XhTQgjiZB0MQSzoc+etQQ7/iXN+rnG7rdUm7HLvmV0wJai3WQXuTFsz3/VTcfGO/8pZeY54N/8Yx7ZynNp6gtYIQn+dExsebO4ZR3KNG91m2wdnJ23Pq6/32O9xFiOdz7TSGflJrmYwZH/hxEmIOTR0wBYM4QP3G6xtTwkkt2j//6H185rr/2wDh27Mz4wzsfH+9+z5fHQ4+cNFbnLFrQJIH94FAYLIIMwS1dPHS99ZaLx1u++4rx7fqxEvl/revCf/GvHtKDVvITX2I8by7gaOGQVbHmZ1g1eR0SZh8xyVFPPAvYBgNnIid/vbAJ7jj6TaCaF0BEG6BCk8+v9H/x524Yb7rtyoiR94EH9dvmTz6rO5HjXswvP3lqPPX06XFSPyY65Z+3jXkncpnuRA5dtVffiehORF9O3aTbwle+THcie7ST1I49d2b8pr4u+O0/enL4hxbrYgmwDGryrpjzDAhQY1EcmPGGjUntOEEF59tuvctH4OaC4FZzJ7gS0jHG7yOj4rznSEGAXllLFMfmedm5cP7Rt1wzbn/DFePSS1dfcYL1PBv/ncg99x4bH/zIV8Zd7z+qX3KtjrrSPfXUnDqwuVWN2GiL/sZxAfJk3nVMzO0LGBSAcuplJdaEjDdPUwxTUAF4voqbhC1ccbt37xxHDl80XvWKi8eRGy/ykXW17kQu06Lu07dw3AOfOXNuPPPsmfGsXs88e9pjvn373AMn/LpX34mcOKGyXD/FWkD0NJfN7aNP0NS8XT/usvE+mFo6Jz5YsOe/F2ZWDSP//AZpWxL7TVZufbLJwUDNe4TeTE1W81lNz51S+2SHbsHOjU/fd2x85v7n4hBk77gpXB40wQNcvyeavjRYiwMSi7LWH33k1yhOAgkqq4bTT8Dig9YNQREQbDTJ5jcPUgDrfpKXKHz2E1A2Dw2KoV+EJbbArLPzEVDpMCbWo9o4VaXok7C1OK6y2LHGqvm8HCnQ1mQNhR+c4Ddm/OKx/oXbXLJNe+G6JJymR6TGdHJ4ARk0+QaIMxdABPdtTJOs8+Qk3cApziyef/h93zk+/H++47z/qQQ5vs+svFYHftCCh902ayqbV6TGpsrvEz/wB/9ofOD3X2Utraf71g1vt7Z1b032V8yKMzHRAv3mr7MKsXR5NkEnmwYWCzhAq3mNCW0M52OfTRML2jB6ET909+vGn7/ntcZPOPh8K6iZXmD+2Z3fOj54xy2ZA9VOCyFrhYt/EYhztiWc+GVBOsD6yee6sDi6psRg1wJOAmaVkKIDijlgyxx/3kKw1ZdLwRMGIIkNdgOAlNZ2jrwet4/eNnDmRa2tshdXBTuuT/dauDVe46Cf8fRpvGFr7V7IaIKe+Cyatszhqt6K5J/XEDPYGUnwe7SCwPcnUQlPchYWX1DNkTgn9MJHyCq1RJUFpbKEZR2FOfKjLeMZQV5pNYRVkrLE9dALxySBhojuJdYx9nBFwWClS3nBXeKDtSNfQHTyLEIJ/ufeqHmfYq6X27Zx2yDmHwTE8lrR1imBOz7ytsfIED9Xwxp3jAe1WfLD5dUkNOGOynv2Zj55car3eKVRJrQ2tmMV0zbAOQt6jj+X8CD6XE9yE7hwSExkayVzKkVIYpY8QG1LuONEO2cM8gFTB5A9KWIjSJPlaCIflE0cfypXUk7vC+M4LRCO9sJUXkO2rXvsS22m75K1VHkr4Uid14GI+Uaeh82S+nyBqxYcTPxsX/9df1ZaZXUsxa4WcVs+4ic22vAvBkg2pqv0cdsP/Y2BybEUpTank2wPWHAR0ozwxNd0ePDPuoiVk7kfqJooFlklVvd7nWwlBOtfk01AgAXSdudokwcQQWARDR0NxiGtf1+3xn3okRN2Gd+j2lRBKXJxUMDUAh1xOgp8sR36pMjONHW6ooCs7OSSDqDrydBzawyAawlpCHZ866vvsIpOCmPwJ2Hf967AiVv8VTJ+/fPP3qLEQAs2qhJrW48dS6gBnNP4nlScIxgDod47J8aVFhtmzMxhQIbyejGB6jF4Came6LItB1TyiWv9+hSulS+jP6qVaCKjE65BEzBV68PZY/lTDOIqCR3s0hbZAxLU1ns1OaFwCvzEaFKj6HGmk43tHaXYqaXGkQpxF9D6mafZxXCV70WJgI1yY0IRLZjN6etAi1SUBZuXkhQoWxfiu4WKSWGBY0t+pGmbBBM1CTiMjenI4JLrGOek3smnePK6fbX/Xre1GEfx1kKa05MfKAwFqT6LbAGWbK7mcwKxycc3r1mNUXYB5unWOlBjijCgBg2SRcZRzaABWoqQb/Vp7sVgvvBljMmvTS4Lnfzh8adr25qbPgC2sGM2Fl7zaHIBBMdvIYiJv2sDisZ8scXY84ogqobqFb98K5dly7YWDlE5pEjjFww60rgaZ/d5F4qw5gW77Frw+2MdGFSS7x7UoLdAZmBMu2Zfz3+vS76POrIDCbHRwMNmf/NP/TiRlTxLjemC29bW8a5fRt0LJx5K8wtwfcvkBEjkLS4nRHhy11vs63ySjEGQccLT121ZtiBMfoq0ruQ2V/fG9CPnZk4R5EPRfI3XvLMnThyz9qTL6oyZv6Czk2gzcMbkMsYunNpXPrIUTuHkdHPxstdR5KOxFmQdh733eEiLumKB93WoeSKJCBetQY7umpdsul4U5Fhp6Yg8I0z79njnwF/43hGk2CG8pHsa/eFrs+sJug881sYD9cudSK0C4FPstEX0FIZdr46zFuV1b4GEVL4H+FuRfB46oMAssDCxB2wR7Nj+sHKtkz8zCJPvtxWMzsEcISxEbJnPozDTqanr6joqvST1+qSfzwPDV0giDsgyn+IsKn7XaJ1ZvDWxx8ROLA112vSp27HLQq4KJsen2Ga+i8e+4jR+nc6L5ugr9QphVDZrQpZsVYDHmqKNt46Ek5OW/OT0OEH9PLDAe0FI8xgwCwas3wcCytxtLahca5xJuE4DNypLbM1D48jGcFxRhdPJJDSi+34oa1nTVTuMuV6NmQTNZVNEnBOv5gThL53n8RGmlueBNTGc9gJJ5NGHVFvmWkyTro6CSQBaxdhmjAAbYzU3LpC21TO+hGL0K74yztjMjQ/dBZ4nzjxw0Kk/82uwHP3hNA41oZ1Attv5Ncc/cRM0bfM9cAasCB27ImY+m4nmbBK3kClccRa1hHpEuj9prVubdZxtVTiuWoiGSME1Kx1deMe47w+qiqk1Sgi2uWjQn6+z0hf9xtnUqgVMokXJt17tFtW2xG4+D0NDL5CQpjjGFhWLjxYZZuz2scOqKONULBiTH67zjv7wzxiAOvcCzxPPz3cBShIC8nsKhrhmbZrTeg4Hr38AgUhGBI9r35QAAAAASUVORK5CYII=;fontColor=#FFFFFF;" parent="cVnY-JXB5LHUISSboKDK-10" vertex="1">
          <mxGeometry x="219" y="60" width="80" height="80" as="geometry" />
        </mxCell>
        <mxCell id="cVnY-JXB5LHUISSboKDK-24" style="edgeStyle=orthogonalEdgeStyle;rounded=0;orthogonalLoop=1;jettySize=auto;html=1;exitX=1;exitY=0.5;exitDx=0;exitDy=0;entryX=0;entryY=0.5;entryDx=0;entryDy=0;strokeColor=#FFFFFF;" parent="cVnY-JXB5LHUISSboKDK-10" source="cVnY-JXB5LHUISSboKDK-17" target="cVnY-JXB5LHUISSboKDK-21" edge="1">
          <mxGeometry relative="1" as="geometry" />
        </mxCell>
        <mxCell id="cVnY-JXB5LHUISSboKDK-21" value="Kinesis Data Streams" style="shape=image;verticalLabelPosition=bottom;labelBackgroundColor=none;verticalAlign=top;aspect=fixed;imageAspect=0;image=data:image/png,iVBORw0KGgoAAAANSUhEUgAAAFAAAABQCAYAAACOEfKtAAAAAXNSR0IArs4c6QAAIr5JREFUeAHNfAmQXkd17pnRrpnRbu2SZcmyZXkT2CDZrCZesLHDCwZCgiEJNqb8ileV5L1ASML6eEmAUEUVlZCECiFxEkIS4wcO2BjwDja2A8bWarzIlixZ60gz2peZfEufvvcfCaj3SKrS//y3u8/yndOnl9u37y91vf+K1cNd4dTVxVJXOEdJdVEkwDolhinFsuqp3ZIvdGROLEApdTrKYBF1uPJdpyFbsx6BqE8qwbq6ulUyjdyGn7SaS9J8ajOJV/w0pcUv9Ea/SJBOH6qvXTGanmdAlKM2zNYUo1KFjhvZyBKlLZaNpbz1pYmLG9yNBjORRyeERDOF35hjMMUgsybpiO7gjZTJxlJhJI+0Rj/LkuRFqa0PAMUkeVB24EAY6X93GmOe36pYCqJ3QgLJYFWfIRkeEgbV6EINQ5EdQbUMdJSKzNAQCjlMyFCH2zcL8mpkXqt9+E9d+pB8Shqq8UY6ZBBDgULesjFUg9eSLLFJNeVEAL27ERPFMkVBgUOZyWU3VmXQOJqZWFeua1MXLXnI6RzT0FAT6LYMy5ohkLONJnDys4UFgRpno1LbiWL2t7FJ+eonyxSVMeRUUHJu2ya3deQ3u10dBVm0fzTEDMxhig8VOJyJTV4m8phomiUDmyYGLjlNcjqkcfKTlpDJS52UGcIIyvWN7ZIfdKOYajyi38l3wX6ZZntWzDa12+OYsS1ef2lfxkr7Wa1tFQvoxTjpWR5tJwoIZOhwNo4gbAxlBEY+bjkug04+riODIH3IUqDyLEwFpW73kGxJhsIt+dRreAYo6gQWDn0jFnNik9rpPz00jViqUNTqtt+N9VkAZozUJ4/sljpsek33taBSMZWbvFlTbIPu0I+2bHEo9emnhWuegSvKcmikTGJmEOSwMKUlLxUM2he9LCkn9b/olDVR8ZJPFcG+jfA1fWILmeqaSDlDqmD7w4ERSCcEX9go1ypVSgXG2YMEZJ4iqicwqKLLUdhBJSVpUKMJ6x+7sk2XUnqXwFmnB6AR0jlwqMAKUtt/UZLO5toBwaff6YeUpU88pKJn1LRHJ9KO7VpfCrxEGYEoQc4YHFnuWUnAcyoZh4BMI2RMNAeytdcomfqlnKJc6zTimn41i+2mvZIkU+otcodMytJHytO+k8Akm21LWd4IZDpFix/2l+03o8P/pIFL/ykzmgZFp1FY0ToBT9wIR5/XbBQdkShlpAhmpRGCGFIQl0WmilcAZKc6TxdKhfqUZz35wndFo7j4WgXE4sX+2zzqcoTWIQkd0q2PG5VqFaEW5Bf0sr1Shmyt27mCwxFovyTHIgWzMamknE4LiDK2l3wb8VX6FKChAp7ybZq4YNgWsZ0wfqqz4gEn/XHsGx37lZpFn5g0iJS5HSatBKKYa0Zqemqd1CswwqHVVn9UfE3hBEpFGnSZlrJM8KZxjUnTiZhTn4apr1x0e0yap3dimt5JS12CyLyxCk76mDnI4nfk1WcDpCxzfVs60uN0btEsA1l9Cj7dkb6nLstM2EiPMEIgcjSCWs6RpjRCnkD8q+um+VUa/A9/dUl85GtLotz5i7wtt+Vkk+olUcJrDQktRgqIWlrAxp1ESpveSk8JyhrPgUBNAUl+Y6Ch2wNJ4JL05lFOOgTyKKOAR4bBWLdSKjMvssUewaVTZDOox46SEzEK23Ym4XBqSq59w0qabaW91PGNxzaSZhnjQ7vlU+OvV5Omnri2X3ThS4PZxEDEsiZKD2JtfT3KNYrpiChlyWoZBpkS+aWUawZN4IbqG83xY8YdNaqKU4FiyrIhsCRajv5cc9q4tmefirR0suMM0FyJmQOhLV+sQ9BWee20UzBqJ0OjDSBNbWOKokaElbJBbac8mhojKUONHGlpgc4wMjlCDx/wKOudxsOfZg1Jh9s5dRO7035pcgZechgpRV7BLg1MfefZJtslpn22nSwrF5pcrz4Qv5GhjtuSNnQToUibIQ1cyjJIrki+puxIWqnLQY48Ahhh785j0p956ljlOSJaBuQwmXQsk7UVItGTl3u43IpQXicxyFMmfXbeYEq2BIFlpxHB5GAio+R0ifVEyUFAvtbAkxklTR/m2SiV2QPcDhCQl4ZvA6w3awh1t208THeCAcwRIG3qlo8EykW2Cy4y2df+DHz5oobZbvLxkE6uEDr1LUeG6el/6jd8KVe5E/mJayzjNTeR4mgu1AnmXhhppNNRAw7HR29dFn94+/IYOx4tbKXn1x1Q7bRzJjTUYk8BARUWauAppHpKF9kR1KojsfSfW5K2+VawE444TLxW++iJ/5/zxI7DBKEW0Ix2NQBzOfXEk3lPVbsTMbj7qCD6tNY56JRd//C+4I3kVARw6uwxHgmQHHmTSJy0SbAsM8/R+1/pPNFrIJyjg02PuCmN82xK060pZz51vZgP9nutYwAdHEnGwcHjsf6hQdC64nVvn8awWCftlpxW0maW6RU/1bxds7/Qq3Kl3J5BhURzNbHobw6I4ktSpZRPHQ2+AVrakGO76xROWHpKjDSSilo4pURFP1dSirKps2eHR+CsU8dJxsEw3rdu3hFDx4fj/EsmxWnncSp79BKDwaas5LMsbIGbV06BIaVPx+htTVPeWGzXmPROGmVdBpMMkpVYtA7lkmZfKg7IzezrUPdpTBXMRhBKRnx8lfboSCbqpF6afvqx/WKfdVFf5Snw0Nv+/JF48LZ+jcK3fWBeTJnFLY3xmCkgiVmCSLCUQSubVNxLXs1hh2WKKi84xYy8p0V9ZatsSUSxTsWiEGUReGrIvIAqgmx0O7LtiFtTwaJCUWqAASia8GWAPH7XPLhXa93Sl/bGKQswCvWheaoMxx1/tS14Q5k4aVTc8MkFMXOh78qpb8sSlg35YDPSZ3GY71OEaIZ0SSk+2GarDjo9IN/5T/YfQga1pKpJyRGYudHKRrpqSZG+p5pMVoeTTi6BOhK6aB/WwB/ds0ej7MobZpkNOemBzxvJzR/dHFuePhSTZ4yJd39qYZzzqr4OGMqmk2SwXu22bHqtAw+fjoRqyku/Bo/0RrItU6kcsfg0bROY8LxkNAC5Fx114cJ3fYSrQCYK1g0qydBp6mTiS5oFU616t+Xpg7Hyyukx+7TxMbDraGz+8SHLFsmjh4cR5L2x4MwJGIHj4pxX9sXsxWPj+fUH49B+vlCCtWKXKiyqTqNMrliu+F39K/wiInGTiOIkvwlFoYYMgvFlHwzVEgh5sS67lE2/Rr1s4fUfaeQaRBmSnaR16eUN3fjYLefFL75nXtz95W0xhBtvytKpQ/uOxwHcdZevmhRnvqwvtj13GOvf4WLQuyYeLjx214DuzovOmahgr7x6qrY4OzYdln5iOjjwgX/AtzcMMkoKBOn0yhxvqC0rqpngFh0SkQq5g5422wKNTerYf1oineYVQCqksvIm3OTg6zsl5ZiWvWxyzJg7LjY8OhD92466HQWQ+pufPIjN9Kg47dwejLBJcfjA8diEEdbuZeJs2nAoHr9vMCZNH63ROPf08bHy6imx+PyJMXpMV+x+8WgcO2K19E+uZawIUuwWN92O4r+CBoamOeQyJRZzfpjatEZO8HI7+UXYItDXFG6DSBCYSXPwUJMDNjb71Amx+NxeBKk7fnRff9qzteLoj3+4T8dXS87rjTMv7AsG57m1BzBNj7PNxY+uOIgRu/r+QQRyIMaM7Y5Zi8bHtDlj48yX98bF/21qLF4xMabMxL4SQeE+kzfF6huA2g1jOXlJZ/BEb7UpeZkTsTikNrhGbFDZGSwIuxFjSbjvecX9w/mOU4BSALOASkhIqdwVvVNGxx/cfF6M7+mOL3zomVjzvb2Es0GJsWw3zn/NlHjzb86PCb2j4uiRobj/lp3xwFd2Yfpye8BkWYt3xfje7jgb26BzcXNZvKIHnWAcSlJ/+3NHYvtGfDcdVb5z05HYtwdO4y99Fmqxf6L/nob5XjplpVtMuWw0XrMtKdvk4L3n4vuHU0DGoOC/Vg6NtgwBXnvtrPil9y6MwwePK4hP/hufNFKORpsG9SDg17xnblxw6VSqKhCP3bU3HvrX3bHlKd5k2Cj3nH1AFQATEfTFL5kYi86eEKcunxCzThsX3d0AHpF4dx/cfSwGdh7Xd3DXsTgwMISlYxjfIYz64TiC8iGUj2NJoPzwEPa4x2GVX/TlMa7lMquQyX5jqQliDTz8kzwDWANWAOif2JAQHKNBWitnm9/6W4vi4qtPiWNHh+Ibf7Ul7vnn7ZLhdsGixUgJ0LzTJ8Rr3zozznv15OgeZcydWw7HmgcGYs13B+MF3LG1s+K0o1NMAMpfHoyfOCrmLR2n9fIU7CFnLBgbM/HtmcKT2p8/feotL+K1A+yqL9MD5GqMlwJGRP7AHD3UCFRJjbbT7UDRrVqHYLvMxl31rrlxxTvmUiw2rt0ft/3l5nj2iQNkUVr01CGRn6mzR8fLXz89Vrx2ckzHzSgT18eNaw7ExtUHsV4e1DHYkYNNMIlDRLcP5YI3ZlxX9OFGxJtR3/RRMQnP4nweHzexG9+ukrPcHWMnYOFH53Uj5hzN3XjNoBz1T/3ytsbvk/jvdtiD/P1O140X30d/1LDa0NKirMtRRuQEOTYi4vxXT4033rQgps92MHh3vv//7sApzICmSFtfGLkdgO6CMyfGubhTn/6S3pizZHzHFOVml3f5bc8eRjCPxK6tR2MP6nu2H9OU5TSsPrIFxcfGT5cY9Vznbb9pCxugGi4sCUM91DkAOrDTf4B1vfuie+sa2BguBghOp9zltKWU0XcNIADktuOSt86Ky94+J8ZN8JTq334kfnhXfzx+/57YvOGgsaBkZwjm0ZXOTegbHUuwhVl0do/u2nMWj9fNJ+208+M4mOBat6//eOzfi73nQPnuHcKdfSg4crlpP3oI6x++x1jG9xjWv66hbp398VcmPODoGkYda6ETRmVZZxXabHMGF0KN/wrgPQhPCRSZ+PCPKYPXrV8vkVBoKrZ0FFlpxsTJo+Jll82IVVfNiDmnNQeoe3ceifWPDMYzj+/Hd1/s2XHMtoqdYrIGmcZof+qsMTEXI3PGvLHa3nCLMw1nipNPGV3XUUD8h6RPvHlLy36rra32ZWeztSx33bCKAbRwBkwMKdmvdp2Kmdr0bLBGFYHx4fRcdeWMOGvV5Jg60+9DUnf3tiPacG/Fox8f/7Y+c0h3UPI7cUs97Qqb61ZE77Qx0TN5NLZVo7S1Yt6DDhyPu/e4Cd0xBvvUcVjzxqLMPesYnJTX9Q/rIGdirn9cEz/5lq2YExiRYLiVkOGgYa3YFYE+qiHgXL/qbuwDsVvnOKQQNSjAvNBEKLQ2X8ApW/OWPgBy7Tll/rg484JJsfSCvjj9/F5MzfKSOMGRc0u0awvWutZ3L7Ym2qJguvIxERMMkm6k2lXsdvhPv8vdtPpbhLPu7UjbVwbF7eeIypjkdAap8lVWnCDPAAqmFbA0ovxkgS1gDVAJOAlywsaa3qJjYiJH7yIGMxHQuYsnYK2bGFzrWOYJzU9Lx7CR5tMI1z0+b3OtY1APMcdBBE++td7hXPfo4SE9BnLdO34Eax9o3P/xJ29c94L7QO7lWVReglmCSD8yDtkm5ylnT7vetfIuQILoPymxDtwKwFGUj0RkEHgkuDCKTvLaNJpr07Pc0LFx7huFc0Q8ys0aiwPXMcjH4DFurNZB5pyW/5npD9+0qWlbaWfj38n9Lx4xXBLVVG7Ow0ADi9sJBYNi7gDRpKJQu8QrRdpnbQw8P+JxniHx2mGDRHYgsSGDEzlSmmS1pv6fWYKtE/xPv1t+pAx+oQqqpi+5ZQFFQ1IgfWWdQeSHTdQIojF8HFXmJQiUES4IJluuzOMunAzMxEibtwRTmNN4yUTdaSfP6LzRCLB1ySnMNZHP0gex8WbODbin85C3Lpy+3LZw6nLrUqb0cb7z4hRm/+DLfaR+fASaTu5pi7OLYnS8+E5CxoPtdtssdcJKnoIEUqAER2QkAuFDVVZ4KuypWMKY4OSWsnLoMGDLLpgcZ+BGcvqKn3wT2fkCbyKHdSPZiZvJXmx3+LqUe76D+7JFxpcXsGMf6FHxDFknjQTTioT5pZO97TNHo5+LWrY/c6JDJONDaaojgGg8RxfXOeVmyDlZtZIAqSGGkOQUq9Zzz7TlFi7rjYuuOgWnK9zGNI9s1Nn94mGcVh/A8+/BeIHbGBzz79l5VHc/8glOh43nu2JDJ284eqeO0Q2FL37sf+aUpK8EYNEzhn6KKppZvHI5oS0y2/7DCogkiyEc1lOGuf6ZA4ka00XBaqbSaCYqZKpBAzgNZb1nEp5zL58RF71hJqbnxBTHxvlIrHt4bzz1o8F4GpvpPXhK8VbCInIW+GmNpni35gaaG/LZ5ZxwyswxMfWUMdrjfeUzW2P99/fJ677p3bEcx2A8R+Rmm8/CTJzu/XgEfPLRA3g3vR91Hr80QckWpf/VAegycJUuRkoLWpeuX7vwW3qUc2wsoCsIzBm0JnBNuaFxdOBRbmxXXPrL8+Ly6+YFT02Y+rcdjke/vSsef6A/nlvnV56p12xWbQNXjNIxsfQlfXicwwEsnj5mLRwP3BPvvJsxav/h45v0nNyHzfSl7zglLrx8ys98MuH25YffHoy7/343Hv+4CNI2v7bhFsv12ubO9jey2fmawlTJn5RkAwuM4t7uBQVXPcgmqxYrXjMtrn3vopg+Z7zU1j2yJ+695cVY8/09ALZMJy7EOG0Q5+WrpugVwRkv7dM6abvNlSOXTylcG3dsPqycJzZ8F3PWyt542/vn45TFHbb2wcF4Aifbm/GqYN8ebrpx+IuRuODM8ThCw+iE/AVXTMKbwN645dPb4sePHKQbdMYGGUy2yS4ruOJqihdikZUeB9c7L7wTSyYjawH3BgFLeHIEgpQy3J0TgBJvvPHUuOrXF8qBZ1YPxq2f24gpisNVfPyHUsW2DZ7aXIRzxFVYHydhBGU6cmgIx1n7NMWfX78/XnjqYBzAQUH6ZBzjXfyL0+Kam+boUewpvD6484vb8WjYHM7KPoFhO58qFiybEJf92nT8MmKiDhPu+Mud8cg3BmV+pI8/zf+UpWK9C3shRQPrndXGhe5wo6goyjgPRK/7ndPjVW+cowPVr/7Fc/GdL29xYOE01w86oQVYIDi6OqMnrr5+vkZcPiLt2no4nvjunlj9vT04R9xfthMMkjvIquxQjxN2wbKVPTV4d//jDgWPfDYsZws1sqFv//BcvCHspUhNtP/6G2dgbT6OkXig0WuNNnd3aYFdsA1MV2Lz630gYelxSXSiI0kYDRDZyq9781wF7xDeuH3uA2vxhm6vAKk3Up9PENfcsDBec+1sjRi+23jkrp3x0Dd2xjNP7INGEzA3mot3xAQ8mSzBc/PSFX06svr232/DlBwVv/K7C4Vz7z/viG/+9bb442+e0+FuVn7/qvUqjgxe8hnEa//nzPjsTc/H/n5uDp06/Wdcmmf6poPgIP4UQD94O9KMUS6QBa8GhCOKSn3YPlxzwyLRv/Cx9bH+Uax1SAJXMJrOOPcV0+Jtv32atjF8Pr3r1q1x9z9t094u8Rm07By+qDofa+qK10zVDSVfKn3mpg0Sv/yds3WT2oCjsa9/fiutJczPzD/4hiclQ3sf+9elKvOU+pJfnRa3/ekONgA0jyxHo6CDzDrHWJGQLmmawhlVsqmiHqBflEZyA1nx6OPddiJOUx79zvZ47L6dlKijj/I2HnHp2+bGm/77IvFWP9gf//SZZ7H/44teabR0hmPOognx6jfNigsvm6Z3ypThuxa+Hn3igT2xCXtGPqm8/PX8eVzEN//2RVy5RETgvy1AyckjmOVOn0hp9oulYaDxYPYll/bFPV/arS2Omo1AJk7Ghjm1SOfvE5nzq7uwe78wi7Ljx4Bmcokgi5b79yx33fJCHTmUIqAMQuvyt89X8Lh1+Jc/fTbu+Rc2WM1SnkGeMXd8vOH6eXHBL0yXPhu09qE98W/f6Y/VWBt5miItYJ9zsV9Grfv+AH4Kgvcu/MAtd7hqtg8i6ezKkYl2mzZFPPWDA1gfe2LZqh7cUPAKYkTwUp9tUyqQsgmCp3B5CqFAEwSbz7qUgUGY+Uu8IG9cNwh3uD6UUVv0z33F1Pilm07F8dFQfP5DG/DyfbfV6UTxg+vPJW+ZHVffsCDGjuvWc+13v7Y97r91Oxb2o/KDHvg8EVbQsLNWuuPOWjkp/uRb5wszL++7/Alhf6K1Hn7g9WuA0+wjP/6NZSle8yfuHVAAl144MR7+utdxdwhEEKzafvdj438JKF75U469wiAQt5QzJxHCbLf5Eb955QOlgS0DJYjcRF/3/qXif+nTT8Vj9+5SufYgcChz/UfPiOUrp+iOft+tL8YdX9wS+/byab+MHjlcHrMKrf0GD4InpBwVbQan7YaHB/GE0vkrMMpswE+PX8QLK6Zpc7CdQgNttplJxJTvpeMlDCHK8TpaP9MiMwW4K2RZSLqUagaZgFS2gp22Aq9v+I2FMXn62Fj3SH/c/7Vm2ubBw4SeUfFbnz075p/eE7vwPPw3//up4P7RXQTUgq1OtZcyxc7LA9f3XfFY6yUQdagkxeBIzM5KrC9+eJPa09DZSZbPM0b9rjtRykhxKCyXgeTvE+lk+ot/7pqmUVDydEmnsldZz5FKsVyQU4cofOx65TWzwRuOW7DuKcGA9KDP9xHv/ZPlCt7zG/bFn71vPU6Yc7pWcYLXBlKXKR1mmRTuWzt2C2hnaars16kLOcq7PSoJwQHp1o0KBIMya8kTr6P99IuySDkg6qOcBemFeweySGmwDcQyWJBzoSmveNX06Jk0JtZi9D23AaOKMiUR/803LY7Tzu7DGncYwVunB/3SPEjJoGAZCvlDdZORDcdenNbMXDAqPvXNFQmr/H9d+ph8edf/WYx1clIHj5X1mMJf/NDzov/RHctP4JOgHy4xQGo/CCg3rWe11Eq71TaQ8CPzgldyClpYGGKqDnq2p6pUZWOcsWKyCmu/j5sG4ysXzOPd9hJsvrkX/PMPrIsBnPGxF50oCVTqdNgvtILEc8Kflk4WPMov4/onX9mCk6fdW729qvYl6pZSVaUWjSiU1U2E/8DEEXWugEElR5Btq3WyzunEBntaoQQBTplFZ7v3N/yg3zRGRGrDceU7Fui05J6vbImN63kEZV46QlvGKaOPDPW2JFRcg+3NWSsna1/4hQ89Lf/sS+fm/3cu+xGVpfPJO88jgBKXnd+9gndm8yhz3Qfnx/KL+3BDwWMk+GyH2quQFR/VPvvFQNItspkVaQfBcVasJcVSx7sLKZKKr60oY5HGp8zwoWk/pmgmBqUHPypfddVMbWvu/IfNYrmTiEQ86jtXhXaYQCNupsexoea+8mzsB6eV39RYP/23pJASoyg36CxZnnfeZat6hbn2wYGWZEtafqHe9k9VWy77QEUGAK3eL3DNKKRRxtUy3vuxcexNe9uLw1SmfXvxq9VimLwzXzolRo/ujse/uyv4cw+mxMmyiLjUXUEhJDbxuHY+dPtO/SLsg3/XPP/+9i/8oHSDlbIzmjCw/a594s5z01TNH769H7/n9haKck3sPbNIkDZ5pf18/KWs/9MJSdhAOkwVTg9GjRzHqA1t+4BRgeeJN77qHhmQlBTMPQMBZHryMf4QE4L+M74oxqCMbLLAVMypUXYgbv/rF+Klr5tWD20tSDcbjE9/u/MmU2Wy0Mr58+Pv3Lyz6mf7iUZf1HpUmpZXpyShbbqMM7Ig6cug4cvpKwC8f7CDmdth0lLesKwRw3KcfpRZsLRH9GfXDGjjTG+kC17KKy/2kpd58pjv3XUk/vbjzwiH/Ns+v9m+AXPtQ+ygExMf/bwUDGufePsXXpQO1/5//OPNuKF5Vrj19h8C0qENJseCfnPWZfvKYUISPDwR7dLbyqBvCOGoJwhCmZRLA6oXnqQLzqRpfl2ptRENrTctR12idJT6NYfVOgJsWo5QZvX3+uMrn30+3vQ/FsY1756PZ/Pe+OrnNsXnf483FgrTN48g1UzEujk2rrlxLtbQSfLhts9txXsav1OpdtMPohS9EkNCKTGY5JFdzwNTmBIZdYuTUO5yUOSHsgZthbYYO5l+BnAAo6c6SlCqs8HIGaxMJ9inGG0WHZbvu3WbTnbe+cHFce4rpuCxcBIOZvfGap7cPHlA/0aFcjzxXrCsBzKTdfPh8RjPML/0R5u0P3QnJT798OhiqSYUJaf2W5ZOMwb1JqKA8ILpqlt50TaMXDcIGyOeAVj8WeeJY3BYwHQEe0DGQAkgGagMjoJLK63OUBk6VCO58SSCR2Qfv+5x/Ep2vn4FxjNEfn9S4h38oa/vim/dzPNI/iDQzsi+AmDNtn1S5CdstzuZqvRFt005V+AYHDeEqjaRBtyIfI9KOEoXeTW6TDt1RFFGxkc4puPH+H7Do5cUO+qOaDvtIElFd2X/PrGETvrN3Z8b8i9/emPc8Tdb4rxXYiTiJRX/DUs+N/Ppha8N1j00gBE6oKcfeQMcfhxCBgdJftO/pNqHbD+j4X0i+NSHUte159wq6aZBbpgaRE4xRGFUpMRcNfFUBJ28EpxSlgwuwqKulaSQ5UKt+mxRYkmw6BtDHiR5hJztu5FEbXyUFnxiShyVKWWysVo6HXJsT+FRoahIR/+HKoUVRRrAxz1AsTKiyE0BqZcHefQUybVXVLa+te1w7VEQZVxKntZEGHmeWEcg5OQb7eCrRgnAdJhr6NVBd2IacnOLPttGJSQfRJAOCbZfPhHXmJZi3c8a9Im8kf9/Yt3GuGEE5PRoQPK2bUBa8ZeA/NBR5XQOVTVUUgy+69RgMp/y/OIjry0jHNRPRqOugsdCpmKL1baOy2KC4+WmmCl+GoByqWePjJO0Jve2xXZ0FUD6PzqPZdQqsBpHaYC9AyL9wcc9xea36PSOMvwy/ZznicaQSRV54ShKP/mkIh+LPZkvPkpWdI40yNFVEYFHNzXSsAWjs2oY6V5PiyQy8rLmtqoGAOrXLUwR8TxKeSjScG4aSVZPgZZlFSCn/+GCfBHaFwa+3WusF/2WdI50ayaKRzHt14Qi9dVokkvjEnOkBxRpeOT6Q7ykU6bDBpnAdUzTfxKRYFt6sktNpkam7gPTN0bZshAiqOXlhiugqEFCqhc7RwXo4+sYJGrjPJ0UrxYAUcvsZfwEWDLprE0Qn57xA89kA5n9Ao0lJurS69roAkOdwpQD8rHoKKNTUCa96guXNao0+BKlDXxaI9ACFExht9ROFnUZr3TJ0mEkC0g39YtN46GSzSyiplu7Xqt9CKvRlYNCpRnh//U8kfbtO/VLO9MZUcimVRObdqCuxnhgsEgJ8utNBHURlBdwQxVDhZbTO8HZqDqdZcQ4zTS2fhqUnvwhpVjruHEV+fQSImmLub5JU0Q6+ULskEt+Czf1KYyU0zntwEixKa9b9v1sby37j/+9zYWqbG696nip1lgo8gyoqrx2GiSZ04GcdM40XBkYcpQ7Y5EBLxyJ5qUGrci36Syf1P8SWNpor7WJn3mjn/4Tz19NF5bTTworWSLpXgNh0GsLFHSXa2S9JiSQ1x46NXLvZ7Nl7SnqzNr69EVrDwonO0+kfDrGMjEpbww2stFPHEqZzxI0eK6WAUQ9ecZN/5lzf8dgFEzm7A7RDEAu9VnrkIWM7Q/hUU5SLQEIG4rKbAJSUWCxJhpKvgqSFLBlYKTQZUI+6SK2pdMSR6rgWvoU8yim8w4EMZEgK0zXUE40ajQ2stjoU7kkYPImmRrtAFlipP/2pWgro3rHGshAMRnMvZHAI9c+Op085WXKEoF1fq0Dys95niifGGH8cb1lYNKGeCWAohW/ks9cMiPz6n9phzAlWrHlf9Xz1qyNx/K/A2W5a0JEkhdvAAAAAElFTkSuQmCC;fontColor=#FFFFFF;" parent="cVnY-JXB5LHUISSboKDK-10" vertex="1">
          <mxGeometry x="399" y="60" width="80" height="80" as="geometry" />
        </mxCell>
        <mxCell id="cVnY-JXB5LHUISSboKDK-25" style="edgeStyle=orthogonalEdgeStyle;rounded=0;orthogonalLoop=1;jettySize=auto;html=1;exitX=1;exitY=0.5;exitDx=0;exitDy=0;entryX=0;entryY=0.5;entryDx=0;entryDy=0;strokeColor=#FFFFFF;" parent="cVnY-JXB5LHUISSboKDK-10" source="cVnY-JXB5LHUISSboKDK-21" target="cVnY-JXB5LHUISSboKDK-23" edge="1">
          <mxGeometry relative="1" as="geometry" />
        </mxCell>
        <mxCell id="cVnY-JXB5LHUISSboKDK-23" value="Kinesis Firehose" style="shape=image;verticalLabelPosition=bottom;labelBackgroundColor=none;verticalAlign=top;aspect=fixed;imageAspect=0;image=data:image/png,iVBORw0KGgoAAAANSUhEUgAAAFAAAABQCAYAAACOEfKtAAAAAXNSR0IArs4c6QAAHnNJREFUeAHdXHmMXld1vzMej5fxHtuxjR3HjhPAScySEMhCAyUtgj+ASqUplBa1BdFNSgVS6T9BUNFSpFZCatWKCqjUilYtokJsTZHaNGVJQCSFOJvJ6iR2Fide4rHHM54Z97ecc+/9vkkgUgFF3Mn77r1n+Z3fOe+++973ZpyRD77xjjMjxW1khKOR4h4jzSWRAee0OEMrjjVP784+5OjcOIBT+gyMoSLqmar3nIEczX4Eoj+lBBsZGdXIMmqbPmW1l6X19GaTLnha0ulD3vzDgnJyqFxHyhiZZ0HUY3aG2URQucLHSTZbovRmmSzt7S9PfDjhUSTMRh1JCIlhQt/CsZhSUFmbfCR38YZtMlk6DOsoa/45liU/1Hp/AKgmqYOzCwfBMP/RDMY+j+oYA8kHIYFksOrPkpyZFwbdSKGWIWyHpLaBj1rYzM9jkMuECp1wc7MhP43Mzxof/OlLDqmnpaEaG/lQQQwVCn0XY74Wr7OM2qSbeiJAPtrMJLFNOKhwGLN57GQ1hoyrmY1z9fpsc8lSh57k2ObnW6F7G451hcDOMVrhxLPDgkGts1Hp7UYz820xaV95ckxTBUNPBzX3jm1x7yPePO06UbBF/mMwMzCXKX7owOVMbOqyUcfG0BwZ2DIp8JGXSV4OGZz6lCVk6tInbeaxgnJ/Y17iQRoRqjEi79R7YF6WOZ4dM6c+H9eMuXj/ZXwFi/w5rblKBfQITnmOx0wiQGBDwpkcQZgMbQRGPW45HkNOPT6HiyB/2NKg6mxMB7VRnyHFkg2NO/v0azoDhDuBhUNuxGJPbEoH+ZOhZcTShKZ2d/xR7M8CsGLYnzqqO3fE9J7uz0ClYzq3vu0pjkE65NHbBqH0J08b1z4LF84iNGyTmFkEERamvMRSxWB8yWNLeVb+4RN7ouolThXB3Ia4JidmyFb3RNoZUgPHP1OwAklC8KHGuE7pEhME5xkkIPs00TyBIZVcRBEHk7RkQK0m7H88lb1cTskugXNOBpAR0j1w6MAJWs9fkpQzXRMQfPJOHnKWP/HQws+oGY8kMo7j2l8O/CixAjGCnTG4snxmZQHmdDIOAdmGbCy0Brb1rNEy/WOcptzrtOLaebWKeTNeNNnEvBMP2KQtOdKe8d0EJtvMLW15I1DoNA0e5sv8rRjgnzJoyZ82YwwoOYMiivYJMHESrj4/MykSkSlt5AhllRGCGHKQlkO2ihcAilPJk0JM6E97zlMvfE+0ioNrNZCKH+bv8JiLCKPDEj6U2x83Ks0qQh2IF/wyXznDts5NLnC4As1LdhzSMJNJJ/UkLSDaOF7qHcSf8qcBAwV42vcyaaFwLGK7Yf1UstIBJ/m49s3HvNIz/InJgGjZmzBlUYgI11ZqMrVP+gWMcBi1Ox8VX5dwAqUjA3rMSDkmeEuuhbSciHnpMzD91UtuxpT58k5Mywdl6UsQhTdW4CTH7CGWfqCvnA2Qtux1dD7y4+XcyWwDW/0EPunI35cux2x4kB4KQiBqtII6cpSpDdkTiP/VfdP6aq1AMkhR2DtyCkUoLo8qA7D3GkqIu7D1SQ5Gtq0eejG0d1qkF3lbln1aZqQmt0bW+Eg57sJcmtzPtMBD4epJBp3yUiDY0DZ9VDRo04ZEqcvoQOVzJAXEgrL5j+a+EjbS006WFUF7klydtJ9L8RUqeNAQQ37igI14YuwputjtIM98Gn/HUgz6VUxZElR8m5ywrFXLQ1/laEhQB+eMDUbqmpyw/UG1JQv9acdwDCZcEtQhhccYWmwb2qopsPLRdJgXvIQZ1rLRNkCwoUZMbxH0as1jfjoqPwfjhC0wfXXBtgeQpx5jwhGkMz6BePSkEiSDvPfPt5eP3XBh2blneQRgwKTFYA6c9jWJuP1nDHlFYMkiEY4H4wd22souHoUg0yqMBBPbPSOQjvcuYnoeeUsXMmJqTnvrLfEcnzXX1OsmYicGSEMNvQIt7T5pY1sKHbr5Edgrj52XUnCmuVoWswsgwlTa33bhrbSSsGziGS4uThnrTcyAf2VGqWzyo+2rKXGxOFN8LiZOoid/zhMlTwb12gNlK7Y04YCAdUi19wII+aN9SFJ/MOhz7aOyAKT2DvkHVh+D+Irb8Dzip/nkd88WCwSVkfXNPffWhiCUbn/LfbS3yL2WMhWxV2Ks/FSUHMsSd+EQsuPY3xA6b/BT2cLOGjHXsPmz6D4672pDjIEW8aq/CtoekxQzHcI2mKQ0eMXVEDY/7feJ8VVuMLksRPZkzITy0sukM5PqHUVOv+zlr+K2bYI+cYXXM544PX6O2ef+9UJ6n+g9MFYOEzBhp9LIswS8VNyonZ6a02TRYvp4M6cgfVwcIVJavb0S8UmfjBt9759jr0TgZHhTq77VDhhs/RUUIoavjUMfuSCCS0rlFDelcMyc0pO9uc97D/T1n1G4hyCKCDNxDuygfSyoHD88q9GyFXgnC5v0YeFaQGh+xt8n1hXIauSKYMGyIrpso7ZcDdmeefq0hmdvX0JPjZu/sSisdyyNJeEHT0ktNIuvFYuBit+dhHoydELlqnD0SV3tA1OnHAZ5MmnLxq4eihVbiqTGq1jpE48/Ci+giqD4YyyQySuGx1xR+BkJEC5C+vpO5DcZ++8+IYcdF03URAKBCzIaAWKiOD977xOxArNKzpmzPAuUaKWETcpps+/WZ8rJZ2bxID1RNp6DVYg66UTQo3tOZOXlpzpmrCEbBopG27xZUcR5jYtxNu910AW3lHOa9pTJIvw69wGb6guOtM+bFWcwlG3mlrb5PlGPMQRuRE1ScwGIhfUeajyPe8j3bjqqVfkLv342flPVHkFYTeOJgmL2+Bybm8klaclh7SvCOiNwHDcdcshKkGociW/2FId/CFJPMhrLVVbBtfHnuW42DuGtzGBtW8J3cgJGOK2i4UBcWQ4jNZFlT+m///3BMnlstrz8dWvLlW9dDwnVae2x0FUwan2z0TRsqe9bjd+t2LQnF8bN1mJ1sp/y+8QFNxFRZBF4kC4+OCbxmpzkZ8oJFO8Lf/UoXcpbfu9F5VVvXKsxndIn/ajIVRRG7kLOSV76GVO95C4QMX159/j5i5+UESfGpu154JiXbRiTbVgG75C1vNNO2J3PokvP+a0P59co3iT0SIMznTLAS+ZHHS0BKN1T9thDU2XqxFx56WWrykVXrinrNo+XH9w6WXiJhzXCEbAhhrtjWUtKijmoizhpE8qKRMx0oA3nETXlLIbkpDCkSxvxgz8MdWRUQbOGA3JPbT5SFl2y7Tc/nEDqfbKpV3NwQ7qYFJuULUp5+O6T5fDjp1XErRcsL5e9aR3++qCUx/dPlVk87SRx2g/EAo4aE1cI3v371pInCltyHMH7RBs3Ln2cROn5s5gMxBjJw5hEB55CJCcjUD5o2/Egzvuu+PqZNFCwAEpA9V3AalsDjtRfbK/fMl7e9vvbyoWXr1b009Pz5c6bj5W7bj5e7r1tEpf8XCXjWCZ59a9sKL/47g1ldJHJWVrKsUOny99ct79MPdN+CcQHc7YsuMctqZ73c9nIR/ydHblwu6B9q0FmHtYGU66U0JhR+TUCZwRnET/aCyiNk0AdmwP4TNNGcxi95k3ry6bty8r/fP7JcvSp2fLUwZnymesfKLtevgI3lQ1l92tW6QbDmwzb0wenyyM/mCqHHpkphx6dLsefOl2OH54rL3n1igXFo/3qDYvLxu3jZf/eU9r7GBe3++BDi4XclFXwZ8d0not/rZqKR2w75J6ImQQKG3H5Jm3gbThXYAYVQbpEtRf0MEzZ+JJF5cP/sqesWLO4zM2dKd+78XC55atPlwfv4P5Hu1KWrxxDAdeUl7xqVdn+0uVlxVp8cf4h7VMffKg8cPuUYvz2x7aVnS+bKPvvOln2fedEeRDyx+6bZv2cJwKQC3+yJbeURxpMSE6SD4+hIoZXIDE9J2xi97iUEoxXAkf198JpTDKDZ4ASuAFZe0icrZnpufLXH9hX3vCrm8orX7+uXHLNWTpOnZzDTeR4uec7x8oDe0+Um7/8VLn5S0/Lf92m8bJ99/KyYetSra41WGFrNoyXs3DpLxojPhui8C6qcZE9fdimp+bLw3dNlYf24rhjqhy8FwUNw+fm74R/Uu8TR957+U11DyRJEukrrjFJooA8O2xZfc8KirCkXPWWDeWiK9aULec52dTNnp7X5frE/lPlyYenyzFctiePz+FbDI/ZcvLYfPm1688pOy+eKH/3Rw9ipZ1U/Pd8fLu+5dz0uafL0uWj+tXBhm383t0aC/rI3SzoqVbQ+SH+WideAOTPVLKYZ20dKy9+9bJywWXLyuf+7LD2WlZglDcoNNYi3DXu65KK+PM2TLM6cGznH2Nc9KPx10uuI5c7v4Q3oseemilf+czB8lUc3Ld2v9qX7dZdy8tarLrNO5bpIKnn07QCY2Xd+93J8iBWHNvKtYvKDhR6B34Ps+NirORt42XXKyd0UM83RJ/8wwPlxFHcrFCExUtwjI+UJcsXlVXrF5XVG8fAZ3HZsmu8bDl/vCxftYhuaruvWlZu/eoJLZJ6BbKO4MHaiE7u/+yholx/3ubzEoZSRnEiCQLWAqfMkAaHXg2ARw/NlJu/cqjc8pWnJBpfMoobwTLdbPideRX2weWrxkR+xWr3E+jzrA/EEgKxSXikTB6ZK3u/frzcgYNt5dqxci4Kee7Fy8rFP7eyrFw3VtZjVbGA77j+7HL+JYNXg5y6D+Ldf9upsu8WrOLbp6Hhyw7epLy/MS2tK1LwooysCcKtJvbAgbuKqk0P2dQC1cQC6O3X7SjbLpgoj+w7gTsrDvSHDszoBqJ6yu5MOT1zphy496QOXxIGYEy3kfI7f7GznPeyFSYHsWKFlsyJx6uCLv3fJx5HoVjMO78xiX11XCuTidKfV87Mqflyetr9JO72R5+cxaPRXHnioZly7Im5MrF6Udl+0ZJy9TtXlQP7DpXpE14omWvtySySStaubD7GUMnCyYhDj/u+rsBIbM+Va8u6TUvKeRevrKny9xF8T3jkyZly5Akc6Pl1bwp73tQk9rzjs+UUSDKx2Rkmx55VCQgmjoOFZsHY2hd3F3Ik3rFJL9qWJ4ZSAN4/f/TxMr50VCudN6t1W3BsHtNlf/HVE9hq9AQXgUs5H/vg3htP8kwtyJ8EefLMKFwUSH8fSDEzIPFUDhozIS9tkEWRWMyPv/f2cu6FK8tOHFt2Li+bzl1Wztq8RHdV3ll3XJhgz79n8bIAyZbsRBwKxuV3YfbJVXPa9Nlh8s4PbS7nXzrxnMF58g7eO1MevWe63P+9U+XAPTMtNr06PBUPc/esE6JzglbfxmgGBYmQVG0Y5qoQaDBPm1wp1f7/MTAnFtFvihNKV4biJq+FNmnLBJJblT3LgCkSjQfjRj0kULzwYX45HyhLTPx7YXpLwLOLDVTTJGukLCKrT9A//tSectampRHGHS9h3kSOPDmtS5jj40d8CZ+cRD85j0t4Ts9zs9gbeXAlvOdPz/MeWBkyo4gbETKJpJo8pA7bMBX/z37kYFm8bLSswJ129UZevjzGcQkvLpvPw81sPW5AFy3VcdUvry43fPJwufWGSVWScMyR/6lB0OJzkUGhiuMSDpPapSENCNIuFpgQSLJSbv/GkXIObiIP75vEcULHoQPTuInYJ/fM7OncbhyM76xViCgc+ZpcpaMBZbLGye1rzEnipAf50f6dH9qimwpvIjxJ/Mp4DDeRpx49Xe765gmc4LmybGIUN5Gl5bxXLCv33IL9Dw3rFx9glflnz0r0haQtCMdzIImQHHsrCKbihZMA6SHFSPnXTzyggsqGtnSMXkXwpCxePFLOPmdp2YRnwbPPWVZWrVtcJvAYo0OPMWP4OujzmPBkVsdREMfvnz/P4KvhmB62+Uy4eWd7yKYvnwN5ExnXRbKorMEq3PYSUawffJi/77apcuM/HdFNTn4sWATP3HhS+sJkLdjHcyAxTY4jl4IjFjOKhnEWKeUCAjgDufgjZfVZfpDefdmashUrlDeWfMaj349qLVpYRnzK+dzH38HowPfkjUPfTPggzW87YF0++5EDZWx8FA/To2XJUvDCnZiX8tqz+SC9pLzogiV6btzzuhWFx9c+fbh858t4vuwI5Gp23lT0lTE/7YHDhbGKn75EEqA/QypeJMevcq9969llz1XrytZdg3e+udn58vgjp8rjePHK4xgec/ho469yc+UEvs69+/qdKMoKxctvOcnhgktXlj1Xrynn6ZdXg3suf7m//84pfFM5qa+AB+7FWxusA6bJfubUnJ4Dp1CXo3j+K3ed8iJALbhC124aK7uvmCgvvXxFuf2/sf9BrtWWwdFnbbhA+JNXaj476xKmPfZ/BU4HY3AfBCics4g6BwpUyrZdK8o178Cr/GvW42WAb+h6mXAb3gF++2i57/vH9T1Y+yKW+0pcvue8eKJsweW86crleOTBqliPlwlYpW6Mls3j11+7MQX6a4iH7jyJNzYncJwsB/FqTAXD9qPskUHyp7euDGaA/9raiRFyOvLYbPnm54+Vb/3bM4pBX/6kMaZqLX9OzUtrR5ewZK1A9NZZkB0/TCqf//iIwEtyDHvbdZ+4EJfVuG4c3/3PQ+UbX3yi3H/78TI3CzyywH98Trzk59eXF+OV1uZzf/hXK5EixRxgzNdjd3/7eLn/+5PlgApmPqTN/Jg0V22eYEq1UkBdeWBOHXnLJmwzhP2tU1yCukbqWoxmIx9qifkbl36N/xzFxgiUDiSigEHUczGWMXWvfcsmFGWi/NfnDuKV/nS1575z+Zs3ljdcu6Vs3LoMTm58M/PwPSfKQ3dPlsOPzcAHxxPT5dr3n1t2XMRLeGH72w/cpxUnjfiZLeOLbXCm3nw73tBJrqysH8g1MWSV/mlHnKqoOSsGaqf4MPBzoKKkNQsbpyD8iUQwi+NMoORf/+LjApJ7kHzF1WcVfk9eu9GX5fEjp8u3/+NQ2fvNI2X/PZNlbqYRxUi4e791FC9cJxa8leZXwcceOCk+Js41xfjxOIOvdfxmR7bUq6eFiLZ8SA2RJE9bevVm1GcbzJ9y/k22tyjqHMuBR971yhvO6C5pZGH4eY3JNVCOM4jkxpWNdMB/x/t3lat/abMwHr3vRLnhHx7V8+LcaYDTP+D0sJ5s0XPOJjU+Uj8Qn9EDwL0JiFUDFkbq017YjO8IwrE3Y3W4wSL9pOt94MQyZTFprgewrCrVDKIzkBFgRCCflag+6xFy+vB5630f3V0uunwdvmnMli99+uFy4+cP4nuzI/6o94mmRUQ3x8pZxEccrhglpwE5eNXRUt42CK5D/tQxP61eAWFsm8yfFhTlnNocs5ceTvz7RBUX43iQpqnJ5WYrIAa0ilqNCKKEMXDAkfK7H9tddl+2Do8K0+UT192hX2cqUdk2EulqBCO1kwMpMwJRJ+aTZr25BZzi0o7NLhhjkCffyVFrG9lV/s6JBYETVbUlF/ZstrE6ZQmZungO9LcQmlYQAnRz6hhP0FL4snvju7aqeE8/fqr85R/cXp5+jA+y0WCXeAwoEsE5CVV5MkOElhuTpYP3tX7FeZuhHFIknD61oEHBK04IsAMf2HMtSQ4bzpIjXerYYds86x3882upXr3G4hQJJQQgBWEPZvRlI0kdHONnI3459Lb37ZDNZ/7kHrxQndLYtqye/TnPgnGsJiwjMwabYmksJSR+/Ai1YspwwJaSYf8Wt71PpKyzJVqNS34CtazjnTY6j3RnC3rUjfH5TsqobP4bW3HSy8u6BmDGM80zRpSRcs21W8sYHqBv+sLBsu9/8ZdaFLMxgEf6pN/w+8Q0Zg4mb4fE1glMECVEO8bH/kNnG2pOLq1RlzMCxES82/NgmmjLSnPYSk5SaHy+C0nkjfh+cq/y+i+VKgZSHzxr3ZnqyrJk2Ui54s2b5HbDP+4Pdyb4/N4n1jPbYRKE1JuOc/9Il4lhwsQHGpN19sE/tLATXugspYzf/Rc22hI70TlPPtnTK/8+sX6Vs9IsfKZpRhhFriAkCUy8yl+NXzeO4aH4mfLkgVM0RvPeYpukEBo48Wzyh/R0ScPEVBnD9i4CTwTmTWw7K0VAHMNHneyBLpvwF0DAUI9mbpSZh4WClDX9BQF7ejh76mMWAMkff2ApiOQvw6x06jTHJPOhy649/vuXvbccDgB3tJU9jE2hU1eZg/IshpdtqU9/KHqcoE8hNTqkN5RgJKW/9OGfOPJjYQ2RtnLsPmp8JltxYtTJpAWYbiLD/0zKIExOYZwUZyQnBqVseJG/oh154hRkLoR0pN/ZZaDspQusPL32M/5Cu5R3uOlPY7S8nBMHBMyz40878qw2UZyUD/aZK3r58dMyX94NP74TNYFdYI2lSrckRwAvQRd1xSr/ncsRPPuppiQHE4eStT5UsJrQoJwzRK52VaszTSV55So1dsbIOPZP/s1mwcmp4EbIQqqHqMXJCHawnQwqAikrL0i694F0zL2j2XpPCQeYcE7nxfj2wTaF33X0zQFT4r3OGEyy+ScOLTMGx/WpgBO01GUi6Ve/UYRNsBc3eMlXMvDlLHk1f+bBkwNt2oRdnj94QYU8ISAWE6j+eCNFTP9xkSxkUgnLOeQmQoQGnaNcAfVpCGRaQxBMGMiFQE8lhMIMPGPYy+l6nOGaf8jZAVOvkWBEzL5AtmIsaGgHgRK3on6aqZkM+yc/eWNiW7rGCLgcaxnJmSsLIh0MiiOvd77ycIDsexzLGhliWNbvOVpZAM9/DEg8Y9oeiJo338QgI+sG+oghbyYDAuzSpvIPoVdbF7OPX7eJiMUqSN/2TNeCYt8bkr+vQ5FpiiyyFpOxCKnDBAlc8OJ0Xn8bSNlgAErQcjVGEkJAoiqi9LLSRy1m2LKQbCpofqaOvdTttDkxiGusulaEYix+0sa5aixJ87O/F1Py7yBlnbmyTiNvv/gLpoJkfZmZFD89p8/CX0nyGZC/c9B3UZnY3972SX/2GjMSg0ZheYk925jebFWX/pR1PpopIHGGdeGPmMRJLON63aRPjUU7TtSaj/x7jfBohLrkGdNJxUZWzyTUqqzAvA44TNmpk7NaSfJnVABwzLMz3CjPOAIIk17OCHq6H/JX4rBPcWPCKA2Xesf300DlAG7ySQApTGAgPvT9vPozCnX4GWgRz+8DoVENsodDngm6MQmDeMwi9WeFOiWKIDyHnFfAzp+pGMvq9JE5l0O0niz3zhfy+0TchdGYQZ8cc4misWfxW360bUWiqdzlMvhlnYVoZfFI8Qjo/6AXArwZw7iUqbg21glxsWGUshikTwCIjLkGljCNLZuECNK09QlX1BrLGBEMPubJ8M5JPpDq/6EqEoFOw1TSXHOSrVhOWO/DQILiBc9kkGdZBhMkETQ5eR8iArEc04ka1XbpTz3HBrCdoFJeCRILmgjkxIEoTtDRCe3H9T6xPsY4HgPxDoUcxYJ9u2M5c1Jgiv4hUY7ImC4mahkxOU/S1lNnfYsBCXFoS6PwSxnnKh4H2WA2YAt585cSkp/8+0T8e+H4nap5d0SZDM6fquCEczWQWJUzYdrwYPNLNDpApg+pWEatZtjLNxxcBAdJCPrSMxv9kif3xH4lKrzdZZ7Yipcg0NuOJ/nH+z4xngODKgPhpz7nQKyzGunkGWfu9QVEZll7Fr6t2rYqjJ1mudI9b5ky0YE7OebEYBFFAx1b5RLcLLVJ03Hun96H0QZiUAlcFz/5U4iG2MJT3OTZbOrvhamiDc+ubWFEUIGYiCeQKCEqWjNpOsAfBwtBr0AwCc7s3g16IVfX8/v7RK1CwINlxFBA4TNmTdpi2zE4G/mTo3w5t4zOwk1/J6zPPCnJn1Wif7cCHYmGacxAbDT0KLJPuWxlYhK07fzDzHiYkL64pksaxJxd9WeoiFrVVWY2L4T3ifUmkuTVkzoLkT9K1LK8vGuRkVS9nKMgLkJexonVFQf5V3/F6m9cYU8s16naGpeswp9nJMdDvWwly1gdbmeLYb2cKyfmHjmTRMq57eQ4ycX/PzCDEG6w6SXAgMhZMQ2NIlAfUOa6RBo5y/CZxNR7yqHIUS3D9kHcPJqU9o0H5TmXTRQWQvznkyMb2nWHZZakf+rj6q24jtZQ0t57IAL6mkYA3eVoiAYv7wlJMPYO3snyN/wwsw1DxN5D32i9P3PmnMH97Mfkct+xQxKLmewTv/dPHNplDI51wrOAnc64yZ/90O/CaYuEbWcAZcR9kbgMTpvg7x7/4x2dElhUA5tZTDnncO5JykTZhJ4hugDSw1OhITcRSknFzXRMmhKcN2kH4zAlQmd8YlLguE6N40QjRouRw+ZP52jkJdOFBbLFMH9zSXf2dB/YA7MILqbPRhZ2eO8j6dSpj0s2E6bMPpA8y/tE6nWABHun7UIkdr/naGVB/UJ7n/h/oOKikcvlMOIAAAAASUVORK5CYII=;fontColor=#FFFFFF;" parent="cVnY-JXB5LHUISSboKDK-10" vertex="1">
          <mxGeometry x="579" y="60" width="80" height="80" as="geometry" />
        </mxCell>
        <mxCell id="j30cdUnKlF8bIS7Feb2P-1" value="Lambda" style="shape=image;verticalLabelPosition=bottom;labelBackgroundColor=none;verticalAlign=top;aspect=fixed;imageAspect=0;image=data:image/png,iVBORw0KGgoAAAANSUhEUgAAAFAAAABQCAYAAACOEfKtAAAAAXNSR0IArs4c6QAAIJhJREFUeAGtXHm0XVV53/fNeVMmZXSJgiJCFioiCE1CCKiharXUJdXWAUdEVJzaP/pHV/9pq8t5qi6XrrZYrV1tbdVqRJAhQUSDEoeAgIDKIAZI8ub38ob+hu/b51yS1Vbtfrln7/0Nv+/3fXufc88990Ln3nePr5ROKWUFHXu81GMoebGa06qDbR3THqoV2nGA1t3DNlri05rjjkCopA1lRspewNAYzzgcO5a8FbwjSdpl3+AZJ+eOJ0xx4JzNnLpjtuQc0p7xo1bk2SdaFNBAR9CzEDNSc1NATJK8RpjTTzYysC0DtBtVDEZf/tNYJo2di0Yv2IW/sWkDJkGAKo3RrxCXvd1kx1kTXhpxbMf02Dnbl2NGQ5OATFlQcrHYMYltueOslB5buFBUrizbgaTZEjhw4Ae5o6rPAJStLDtA+hrJJGwXJK0QTMrZ+0XwtGN0x0u7xFQvn7CPse2oJQZeUYRuufWKxyHsiKL8q6HjqnChq5h0iTr0aB3gTaIEYUwBi5BBLbRcvqEjuZxrQGfiJLO0CxkL7ELDDEMvjjEUHzL7S115UCo/JWf8miexqQ8uHFqgkRZVRaRYhuw9yMUxF7oF/7CllW0zT/vRXSPExA6kkV9JnqErOAnamuLa6mrFSgSnAEJArny1DrwgSHETk+Nm5yaOi2sAh3dyAkXMQ/0JChvmIrcWbwjaeJw1MRnfL7qpYMCp+Ucs+jQvGtqnh071XI9AAqQN5tkckDITMyGMidS1E5kE0dPf9tx82YSbO4buTCiUGoevkiFxznV50BDTvA4lF6RBG2IQlwPOJXC/HLu/kUdBYJMxqXMtlJX9a25eZKUmXPoX7ECSp5Rx0TloykxQhGigl/wkamwpM2BbZmKKZm0Lv0mkO6aL1i0ztvFN1LyywOnTYEKPP3qYD7xywTKHFpdkSFvZw7bmkYWXX3KAHf9g35Mri7ladLRoXnA2IAPYsatgsKU+baiTe8Xo9nekiJd+adsmSpnmjstTVHwrAHFl1MT31PNql9w6pe7EFq4gWn419+rfzd/2KCZ8tANNktW10O/ErjZxSbJuc9pwhXRO2j7j0Iag0gUh6jyEjwwDVxOP7c+xbVyUmMOOhHVq2dB2BtNYvMXLBkqQ8+QTtm15O4a8REUHxTOSYys+uQkneXES94G+l3IUEuVuz5U1OJ2DBf1ZPBk5jDRx0KkiHs1O5ZRbnk2FAJZlElWZ9C0bxbBJkM+47KEwZHTGrD6IEWqYNvwzt7ogCUVjFOLQ/JVMk38GJhCa3oU1wulBViyUioWpCUAGjcZwYh2Dqm3lbDD7Q29ja1KlNAI09G07GUeclHvRImbLR0NxTY70ZqAWf4pgmGdFHVMuW6h1FjVz+zf8zcNz5cz8Ye74lPNGWkEJYkGdtyybRHJXGZS2Wt04nTMgKygfYOS7tvHbMZJGW0YSnLsnfp2LX9i2bi28u4geOvporM4JC5DJP4q/dpGLXvOWb5IgBvUUEj9jeExdH03YHMPBRdxiyOltubd9ztk3QFxN72rYdnrK+kuvLf3HPkM2v8theW5/mbzigrL84G6xcNQIHGcEFaRJfqoYBZJBmHKS0FlmBB5hEgf607Al4BDN+XtMtbwTB/F62gWyg52Il855vViOYqaPbQzu6F7NzuiR/y/FI3LP0JoyvOUvVSDHJy9qvDPERQlBJM7suNM4oR1byzbGeWrXN0NVD3bYCOmaeeYu14mm3Q9gLd4KHiYweJS2WQCNFFikkglXWA09yeUUQwcjbiNcmnig7H3PidSGvOkTpktHYbgTpjO8vqy9/LbS/+RtpfeIDWXp1z8Kg1oZwfCgotJHEpUnJ+JmWgEOqwYBMk10lYM3bSCgjE4a4qAxewZIH36UY6MxQdmzoOi1Cjjwr9FBHg8bWDDb27Y5fTwnIptshE1QzgOvKhmPMqnVc0S75emHytzNn5FsaOO70ZNj+AuLKvPOHZVzmpljY0/rCGUcqtjUR/4xp8gYFGTctj/H8SbSnZgD2o3JtYAtjCKSMvTxyntHBu3gGtjVxAY41RYCyjR33ySWcqBj1ee+/ZGysnSwDDz1wtKz5nj5uIj0zvhOhhLqLG9wOGLLGHkpcnxipC5zZd6Jr6Fs0j5xuCv1OEu5iAyRTIJGlMs4wCTLHRg62/DI1iZjiXxSjV7J83RAS2z18qXcSaTf0sR9ZX735/C+1FuGNr4rikCb5BlnQvKXf/vs6NYTVwUmF5EIHhwHRsYmV46zmJZTYI6U43EWW5OQV9dznc4YCkOGIac95ganAoA4KmB9nigBNPaRO0R5iVDMxJAcKl3AjUeRW6fM7PwAsJfL4KkvLz1jx6Sii5eTM4fMh30tlgi0+BNF8SNejJWTItAWLyx2Yksc+VBHOXYgjIjRUshQMhKyG7ssrntis3D2J9GECRfDCMA2FQsGFkMuXHU4cE5iNKDCdsuP3FUWfvLvpdM7UIbOepsvIdB5cYyh+PSRf7iHP6XGooHxk4vm1MdZwaET0UiLqiJSLHz2HjCmLlYUWNhOlIECDH2brEkEEHS0M2b4OHYcU+ZEU1VjxgLan/EYFLZanLQuZXbn+zUZOu01pbNqXSumeST/xDFf+xPRBXJ+vkwl5/SHTXKRW4s3ANp4nCV/3AcKHc4ByJWQjHN6whgmuvBygFeSJZC8aRM6BSKRRzUHpK9tc0GwdIpB84YLgzRzyg8+8MOycPv20hkYKUNnvrn6yJ0JRTzi0t4vSp1P1/0drH27lVywj+hDjMw/MCgiVn2KU+XMMXcgrRQodmIURGR4TUPSTjjsaEsxkTF2oR1IotDbhoYcOSBHbBSlbfaShy1lLoYE8p7Z8T6alKEzLimlfzT82zh5JnXLumOzoFlkYgd/AmOaXLiwZOw5rFhYtejD1jswJoSr25gye+iYxWp2YhCJO/c0bvsougQmLHgwSpKe48hY8VIwJkWxDhzYf/EXN5aFe3aWnlVry9Dpr5dp9Utbpd0k6eIRiwGAQ74OgiNxPevCYUiaVzvPaV93ouKU/CyMgP4nF++oJOGAesMgYqwEbTwMuwwGed5s9645thz73onUHLafv/Oasu+zfyCddjn9yZ6wSUFDFnWlcBcOPGFjWfXsy8rcTR8vZWk+cG2spMUt5sSiP88q9p4pxiH8+VwPTS6RJyfyg6OhGlxiNl8q5U4iAp3pCE9D2lmJUWYk6aQPmeVYpakHy8J9u4n0v7bBJ51bBk5+oWMJF7GDvOJj1zAQsTk/eOdVuB7egtuZo8rg018pGcuSetrmqY9hbYLWwblJQQO8KBZ3OUDPMqdchsS3HaeZJ807t79p3UoW2z3E8CcMW5cshUD3ivo6kf52ip0Ztup0sI+YBe7IWa8vq1/0/rJw783l4U9sqTEVv/qIhg4ZZ+DkF5XVf/xPZWnfPWXfR0/Fc9Al6JkOGvz+p5i2CS6sCu3lkL1xumX0Cp/YpdSzkHEbI9ha2ay+3Wgof/UaI2r2ZOCxAes8fIQhg9YuIRz009+7oixN7S0Dj3tmGXjSeRWHg9wR+a5tHMdYuPXLZfGhO0rv2ieUwQ0vtW3yAK7CMT6rk/OIadzkzL2aY2PLJ2yJQJhmx/kskJwKVFEFrAIGrA3AGIuMZNSFPki1rW2XkrQNcnEa6hpXsTBYnCvTOz4qyeiWd6p3DPtjzYN8qNRBh2AzO3xfuGrjOzDPImTcsBdPZsHmYjU5WJ75Vf4Uk69iY6hPVpyjRR51UWCLb+Wsy2NzvwStY0Blgu3V8xaGiSJHAMagGw7ZEzcv4PkhPn1oM3XjZ8ry3IEyePym0v/4M1u+beyMTzTL53f/c1k6cG/pO+LkMnDSC6wInWObC7nnLnP8Rl45qmB0tg7sxeOw+UcttBlg7x0YK0hABlTQWIUEpcYro1EUiAGRHFU6WGcMjoElbCgrdsptuzI/WaZv+JQmo+e+yz5WKXEOs+AWm9/K0iI+I39IolWb3t2Kb71ix4XMedm74ZZz9ypmFcVulT8XT+ShJTZb5IwRCmiDrCjVCZY7yTbUNMkIM3GjOJaxaIEBAf+qP+Wx4ys2ZFM7P1GWF2bK0EnbSt9RG2oxxIPuwdG4gQfp7M1/j2eGe0v/404v/U/coki0JgHht+4sXIQsBntzTG5N/o3OHCOeeKQPewLkDkyCDB2GZpOrKVZBELcpMoIuVoiKSlBWXimTMiEj4Mj6xnVFegiWZ/aVme98VibchTzlZRg7SJDa6ZbzMiPZwbkycyPuBdGGN/OBa/K3nXFCxjNKuWURGSHiyI9K6ywnWqPnLGtT84den0SsSGMHkiwKk8UhAcpdGI4twBGN/mhxykrFKZXhI1nuwNBJDcXkjo+VlcWFMrThxaVn3QmBbX9hwN7xCeZYlM/e9GlcQyfKwPFbSt+xp8OovYMiPqXwcSxMZONiMQfjB3/pQgaHR+tpW/MHUjxMSKLe+jTJplUUECUpj55yGXpO8Fpsyrnq+EebJDl+/rvKMX91V+k/8qmWSdHBG8L9Zebmz+PBaU8Z2/J2eBgzd4PjBKYmBl6ePVBmv/tpKLALdS2k0r4SYmxenLXl3bzSpos/7GuxMqZAAweyehvDReVtA4Oo6hjRR6dbXXGTS70ItU4NYQsjnNkpsLE6w2vL+HnvLL0j68v48/4idoUCi+jEtR9CvKWy6rSXlZ7xYyNxxySZipXj4DVzw8fLCk7ngZOeX3ofe7L4m3z6RE5x6isnYHhxXAyOjR8FD+4Z0/HNRflziBZvIhFIxGyUladRBcnihCzlBrRfk2gQohgv4o2fc1npGRgmZFm14QX4pu0p0hGHr6WH7y6zu/8ND077y+g5b5POC0oPJ8oRW42JBVye+rXeUHi2jGzm/SRsMWbobE2xjJMxqa9Y8MucbG9v4Wix4MuJLlP0YwFxoHF1xBdCCW6ZnbhqbXkG6LIhOAOxRyOxTGRlYLSM/d7rJJ+769vafePn+8Kv6xN98Jq85oPyGznjVfpaUw6B5fjmmgXBRUcxpnd+GF8+LeKTyUtKz+rHCyu5sefmyya5CkLgyD+UWQvHolPm7+siJYypSxt0OoXbgZS0ceWcc+I0zUnYTxxkywrXoiUxvmlgxcY3vQGPoVaXuTt2lIc+93q9YQw/7cLS95h4wyBP+Bx8YE+Z2/P10ulfVUY3XSYZk1QiLRJKJOT0W95/b5nb/UXs3r4ysukd8nMxZGRPDM05imJVlZF75pt2njP5LAB9M398FqahcHjgWBMHIO0kbjn0sRNTJ3n4yRXgiaM5EfqHcPq+SS77v/k+PAS4D5+Dv+A3jK3vdMwwZjd5jT+mjZz1utIZHCdC8CI/74RMqB1/6np++bRShk57RemMHtHgRsIkkAXimI3+iXHIQomTCyc/4vDe0q44tj4LSxbbuglC4iacWzt9FTQnXB348o/N/hzjhWijZ7269I4+psz//GbswOslP3A1TlWcciPPvAgPBY6zbdjP37MLdtdqx46c/QbhNfEdS/eCYQ9nteW9t5f5PV8unb7BMnz2W1McCSMXSZIjJx7bkGPbtPlngXWZsaHtoordT6QldCHsSEEGxDj0wcRwFPPFlZGeLvDBRPKevrJ662Wy3X8lHsnLfqUsPnxPmf7Bv+qUG996OWxpTwDEh//E1d6FoxsvxQ4eti7xdUFjjErBseA/fV08ZDjjtaUMroHcdsanPTcFOrzYayxZ8IfMi4W54XW0DyXOzcJ6GwNhtG5QCy2jTayQxBjzdCZgzJNckiKDsTNfXvrwZHrh/j1l9ifbw5Zdpxz45vuBsVxGz/iT0jvO73uZnAs5/7Pry/wvdmnnDp/5KieDwopLxJStEBsOB+/9QZm/4+rSMzhWhs+6RGspE/jwT0CqjLEYs92oSv65oIrZ8tEQfpTHbQxFCegYwfgQeQMKn4jtgAxsHPp62FPWnOdTaf83+e7aJoc3jF/fWWZ2/6dOubFz31r95Qvbiav8JdLoZmDgO2EVjCHQZAMC2i2xIy3Dc8Zr7Td81pvKSt9I2NonObpPLIJG/slRcVzwxGUvv3pN5TUwDCtgbHlB00HkOANV2qY+xzI0uVpRyXBP9owXl/4jTigH995dpr//JWFIRVy8WH/tQkxGn/3q0jP6WKmtwe9i9mwvC3hX5g4exs21dpAsml3j5JB8i+fC3TvLwi9uKj34ddeq0y8OzOzsS/rCizwSpysH8aQBG63pG7HtEB/lZAOFKutzn/pcLTpynBwzGGW6q1cAH/JaSJQ1z+VHslL2X4V7NJyqwovVi8skTu0fl9kffw032KvK+Bbftgg34k/GtXDs3MvLciQgHHHKhWMUJ5e+U9d4F45szN3b2NImc3Iu9HdLf8qtc+E4PtzzRP02BrowJkhUmD2zREsgTaqes7CNojR22H2nbCuDx55SFvffXya+8wW7cvdGo61fncJbGzbeaPcMr8Eo7fC7mFu+hMf3+OyM+8XhUy+UnfQk3WpOnEL7zv90ezn4q5+U3tXHlKGnv7zKrffpyjIqd/YehB0x8OrKHyK15OaZbqR9GmehoABYeyVoyjlBm75bpu1NEzSart3m3bfvqo/hM9qiZNYlDg0pKTjdbimzt/LCj08rm3C/CLmLi32ML4wmrvmw7Ma24gaZN+ZoyS9t9ckg8LIYU3EtHNn8dpghceHSyIUzKcrtGO5ENz5OuVBpfmj+8SZiBWklFqvsrSsZD0GgAQlZ6FxY+686cVMZeuKz8IXRw2Vi5z/KggcTPPzzxH3feK/sxja/MW6ezYCXlanvfb4s4mnNwDEbytDJ26KIyc9cXVjvpPyYNfcj7N6H7yp960/AY7ILXUQWj9cikaEvm/04csEi//YO5NkTPpkrGcT3wk5NRQqQXOFcTQWRjrbdAdtBqVu3DV/0oO3/1if1pNkBTYC2uVslh4CI83d/t8zesbP0rlqDNxR/30u5sBcP4tOJv3waP4+P/Z0Ldbbhkc0FkZwHXHenrvugNCPnwI/2lHcVhrL0deHsb7l1dEHOMEtbf1sYH+UUOMDTIcmwl6wqTDLlKWZPcoPHnVaGT9pclmYnyoFrP63AJp4kWz19OI3ElyZ+pVnPqnH1esd33cvUd/5BO3rwuGeVwRM2y1GxdcjksBhxiifm7Pc/X/hb7f6jN5TBpzwPfgHImOLsUBrrlCWjzJE6568wXXJz1zWwJgFw/tkYvgpgQMpSrh5z7STGQOOi8jqz7oJ4573uM2VpbtIJ1RVPLO86EY2E+tYdh9ueP9THu8kbrzA74GZMfmcyuePvFIvPFNm8K1wI8ZbQPsmXT7nzq9ORLbF7M5fKS3BE1MtnBoZpp5pwcSjAPy4SesasbyJJVM7QUw0b9TpGsFxB2tmnWaGBY55aRk7dhtN2thz4Fr5pM0AtggkKVLJ2zNW44ebPeKd2/UtZ3Hev4kpPjCA7scOP74dO3IIvkp4JDCj4L17ijDGbFlfjTpnG9y3LM4+UgeOejS+fNkpv/nT0AiQXk4UM+QZUgwfUzCFjxiN9KsTFBvQkdiCwb36VFHa1oCZLm/XbLteuOLDzirI48VD4B0GsWgZln7uX496xI8soPvIxqQNXfyQC0J6GToT3YCt4fD95g3+1P35+PDglY9rANAvNsaY8UHxwpkzd8EmNR8/x0x/HJzaMIhdhsEgBkHP23HzZJA8f/JdKDq53Lmhol4Tc48QEZk2YKAFmW8frP+L4Mnb6i/WL+keuxBdExBG2/TFstUiYNpCPb7209OCR1/QtXykLv/ppxOcFAXYoPHmYL758uu4TuNW5pKw65fdL35EnlcUHb4tCm4eCwJjFr/whnP72pwo/Eg6eeH45+m8mW1w85H3j/iteotodPn/YISmnziJ7jB3IEU9HvhpcDpt5JEzTuhSuCG1ou37bW3QKHrjxizgFH7BQcLRrCsaCtHE7Q+Nl9caLZbnvyg9AGeQCVwocxBM4i5N7y9RNV6g447ovDN4kQTt3HnAigb86nbr6PeDPHyId2gafgtuj6gy+MNFcgxb/xkgg2oEJFyWxoyciwH2pVRFsWAGIMhr0rT26rD7rIpBbLg9v/4iS9Y5hYF5xuYM45q5yIw/arN6CJ9VDY2XmtmvKwi93S6liGUBZMIfcFXSa+NZHy9jZF5fhZ/xROfD1v8aC3WNQHgFs7OAZMvpPXvfhMnU9bspFG1x6MIBx7kjuePuTHBz5QlN8TFiHFGYM3wfSCDoR5w4QkB3pwjl1tGFzT5nH65/7ZjxRGSgTu/4DT1juhnXq6GAWxqY35oHDx/ZrtryRwrJvu5/WaMLiRbwwjVgMiN8k7ftlmd6Fx/d40xk773LJzI/WuViCkC75Z1xf0BoeiomDOJJfLJ7zs12Tv3MjFvVd/52IAkFTgWDgVSF6axwRadc7ur6s2fQKSR7+Gh4aBLCwMGarRIBGkcX4nuTsV8p/7u5duIm+AZosPL1MvManJBKj9sDVfkAx+qyX4VniUQCFvfyDv90tw1Ex4S8uxKYMk6Co+SHxIW1CkkmAGkxY2MQENYz6eg1KWepbyUFlF9z3PecSfIYdLpO7ryxz9+4REXnqkEmZH0WOBaxOb1nzHPzaHu0R7D621DGroKQENQ5ZxtWzxB/68f3Ylrd0+ad9Vidx2ds/8aMo8k6ZiJiLYjpvmtC3jUVZ1yN9roBbJt4ULxRVT7BefGJYt/U1kj30VbwBsMUCeIxp602n/Txx/MyLSv/aY8v8/beV6R9tj8QyPr0Rm3A8qJmThkrEzxI553cuHfzw/NH8hSEQ+KLXDhJAE6fBlyIwHItXbBcsdeztS1ji+V04hBlQTgrMA5tXwcEMSue1Wy8uvcPjZfrWnWX2ru+reFpleNA2V4u2HGctSWzd894q5Nx9mtAPRvJlxhm+xqfMXHhqLdz34zKz50qcASNlbLO/9cu42RNXb0Do80dBycs2tMhmnilPu+78nVfmhE8iUdGaMMEApC5WgohhR7HGeAC6/jl+A9j71dYbQLWDb1xA5N6Sj532wjJw5JPKwYd+XiZ34Ul1FKWxAz3uZPqIl4LKLkaxQHhgwVsftDF879zBl/du9GWjv4sSCVkcuDGpXVMwi1gktm45ZV5EbgR/FgbJNJZSXnCs92xBQmBU4nnf5j8tfeOPKTPYedN7dkjmAmCopGMnsfYUxSKwX4dPLGyPXIknLPGkWvGrrSDkk0VN7AaHoHyKc1OZu/MGnAl4isNfPrDwio8OTvzLhCXnXRWadFTxlS3GioUxe8dtFqHGpw+UXTswA9Vi5lsQgQXm6uNjQ3nsBZcq7N6v8FeiXhEKMiBliUN3zokxcsp5Zejxp+L53oPlwA1fkMb+trI/xJpGvLBKnDwVvcPxRPtKf5W5egs44XZKsXRkzIabYChSEZMfY2Szrd/tIe/KHzrmgFc+VOBYbyKVdOA0q5PXI/o5EHVrNr609K87Bu+6t5bJH3wDRXNqBGTjNDGkimKwW3/B22TzyFWfxM875sOWIpNTL3+IKg49oQ+5FiZ0BJj96TVl/pe34DP1EfhMzWeJDe+MTx+OXTxBec7QtXXzz3jCoE3GrLUAq10XHYX/ToSOri+/esv7rVwAecLE85Vy4t/uLEPHPLmG/U0HSzMHys/+/GlleX5KrhmnU/8bjODDTkMwh1HGT74Nrw6+L3l+OfK1eAz2O7T7/mxc3vkf3CevGiewJQ9ePoXJjytkd6+Mqg1XlR/WnHPr45Tgk5bftvHnHHu//F78qnRaMROHpOopgpjkohdjRibJRTtMjnQyt5kf/leZvf36hPuN+7lbcSbRi3DMtb4odQyVArPUaVF3vfRommIMI/zzuHLWXIZUyU4DjOjTtssx4CQnGINb7gKxRCk/NKaMhdvsNgMkdvYuMJFc21ZMZqf4RkvOzC85N3HSJnAImHklT8maOI5HK+evd+EEh0wJZoVdcSBAnquOoVbAp5GvK2Ks0CRge/twbvv/y/NE2vJ/WHHY+NiJbbkXwrKMKb5eKUKJMytMznrjEfmQq0CujvIPnc5EjDXlIZrypzzelBxftzFNEezEY8rokBBZGAd1Mm1b621v/yRDhAwoOB7wSuy2j09TqeWVc+VLIDXjV/+QEVD2LBrwFT8uO45PQ/LPHEiEtjKWjzFTZhxVs+VHFHrSVp9E5JSSAKeRrdw7EQPTNIlIDgD2wpGuCeBpQ6T90Y46+ghP8T0XtoPAwgkndnNvSu8WbsVpFrJCKA5n8ZUqh7p2wj8++ZhEcIG6nXuNQ3HN04uA88UE20R9nxPEA0urSeCaUNJr/HOVM1mZw0xFjlOp298kZCdoz2UvYSwYMBQ/Q0LXFYOcgN/Ep2HwUnyBh4/l7RjVlj60566Vv6bi38R3LG8E/f8DfWFPQPAAFxAnhg4G40VTjfEre028BuGgJMJGawNzB7c/8elerzvSN6Eotzvt+eKMPvZnoQwgsUykEShxIQ8bZsbGo90jV+DKRFroAZD5Kb5CRDwBeCFlTjB+qA+A+knEYWiYwcRNhgQ3XOqJYtCUC5wy/oktWdDKfdfYxmHHCfHcmviORallEZNzmULPN5bqG3ooFT7i1vjwYXGaFvgGg1P6B39Maxw4aQx/cYmYzFPvwt6yDEyzFjCneCUh6j1uZO3dJX9dWxKLPfEaXA1bmI7X6JkgZ8EYg+ATogYLVlGPhpNxGs6Gace0bWJm0RiQXFs8OOSLXZUfmr8e6cuodd6bmdllQNr45OKoadIjUNsu/dvFazw4cgLN7sgiQxULIHvi5jMwRldSsTVyLMNHx6cQmDial+fmRaHlUX8qD8s/eSanJv/G0w9UESwbA7LifllKLeX5IT5JpW0lFoXRinWxd8Hs52KRTI1BW3KI3ZquwoE8bbOWbZw8e8wUEPGuigwwSWnGp8xjXcI4Fdjh8k8dmPHUBVSTP2fG6f59IOVqBMwXgUIsWYwfJaONyVDvgLrQKhCNG5Kpp7S+OFBLO/RxzcqCdes5C9soSmOHknMnUw/cyl8yo5gvdeYqm8NxEDZBWvEClxLfxlAZF8h20LpD4JABTKYVFK6UcZe4RfEYkxf5CJzF9Tzk0hHAnqlz0r7epCx3StMTg47k5nfXNg41lNs/+IfMPpzgxaY+bFhkzOknfylTB5kudaGDzX8DyzrZzCUqNMsAAAAASUVORK5CYII=;fontColor=#FFFFFF;" vertex="1" parent="cVnY-JXB5LHUISSboKDK-10">
          <mxGeometry x="760" y="60" width="80" height="80" as="geometry" />
        </mxCell>
        <mxCell id="cVnY-JXB5LHUISSboKDK-35" value="S3 /raw" style="shape=image;verticalLabelPosition=bottom;labelBackgroundColor=none;verticalAlign=top;aspect=fixed;imageAspect=0;image=data:image/png,iVBORw0KGgoAAAANSUhEUgAAAFAAAABQCAYAAACOEfKtAAAAAXNSR0IArs4c6QAAAERlWElmTU0AKgAAAAgAAYdpAAQAAAABAAAAGgAAAAAAA6ABAAMAAAABAAEAAKACAAQAAAABAAAAUKADAAQAAAABAAAAUAAAAAAx4ExPAAAfjklEQVR4AeVcefRdVXXeCQnzPCUBQiCMQSDMkwwNguBQVKpiQSwogwUrtjiUoassqkvMUlFQZInVWiYBFUVUkCqIIIMiQ0BIGGTKBGEIIUCA5Ndv2Pvc+35AhS7/6Fo9+b17ztl7f3t/e59z77vvvgcj9pm62VCMiIihiBHscWDv4QiKNUYHuXW2tRFlbnBDvQ0bPpXqGh4zx7CPsil8+Wyuc0Df1lUs4ykXz4xfuFfzQ1s2xdIkOWcBiJWketkK4tjEZK3oY9QQZxQ4ZVkODYmOLXWEFsaWO3jhBMChyBIJwxKrFykeEIgq+9Is41LWQSoOpMLw2PzDQeFjBJxVqJ6DLnxTGg8FJcZrJP8KU0yGuGkS5/BEAMO0IMef8JAymZEOZtDQ0JIYWmLHPPJFsEcp7xQSV7Lsia25oHlQXDsrak1Ne0agguMl9NO0HHDhrBsQY6KYMlZ2DT9gh8xtR0NFamrKFVgSc1+CGrSWEDKSaVNgAB1lIyWTlkVEE5fUqpM0Sdi5kqS4+NhErrqEHcAkOUZxuDj4Y98nRIJq5QdKDrvE7auK28lNQNYDO5CS9MGYLCL+DeAVsBbH4XnkmejYoioOlMtfkq6cmP8oZlK8a5v6dKFzB6eBZXTlZic+8ZsHO7AtF6J5JrHBViR8OlFXsdzTHiPh1JcDTAb8Mg4NZOtCsWAqBBStJ7dsMk9Q5azSyZei0YXybygI+nEr6Eg5s7UZIyST078kxk4yyjGp4pGP8R0zBrStexEQzuHtl9cxY+wr/cCbE7bj0jFoXR6Eh7oWlHyYvGISz0RNkjA3ctbu54C8VC7pBvCQw5UN1NHQhePlTcnSpjnOU1gBM3CRtoy2QPQAgGdDKikvNZPjaaKmfkQ7bcRMwTv1gCnEnHc+7adOO6PymHaDtlnEdEo0a9HwmFBmr47T8CnlXHDaYqDFbJcbFrLzoTEOI72y6RAGrUEpZ7REa8H4RpOyklfgAbmVLWKHZ5m7ZqwXQ+NUyapnKDzm2kk9DwN+qU9M35epWNF2YsUhAC91kAmXfshBPFJuP/2dyAKmo+rkgNs9m1zk1GSxPPjTGwFsinCzZ3CdLpYQ2kj0Em87tYDaL3BM+55TJwQvOpXK2Du7ZknPW47RXg0P/8PlhVfvtDQctOtytHyQ4yiml3/2A6IiCxI2hRiDxolCFEjXoJ6wgkqe143APVW1KiJ905lOjyyoRVUGaCoe7/Oy9f2z+M0Gel+lbOhr42CxqOnwPq1tJwUOGRBd46/cIMhGfM3EigTAX/eBFMieVDBRMBhU0uw1FqafFF10L8YitsgWpmxYtAYoW4J6TZFMRlxUnnSgonfhW5wO3uOfuVAnPvDplDsHvhx0aIXp8288EqOaOIXyi/vAbrVa4umE+HJagL5NhS4ifZ2wAmcCMNYFfTiplJd/BjSWYDRM6Ld4KEba2MB+bZp2sDYX+5A/upK7kqFnRQdk3ZyYaoqPufseHg58CsOSyraty3PJy1Puym3X3yUO2/242HjtLWLpUcuU9i/Sv/jyonhg3j3xvd+dFXc8ehNL0ePlIujI/MmHmXJjq88dToFklReplW6QZrvKJN7l6Wzkt5t6VEYMs/tnJw6NBBG2roAc25ayvny7CbvG1Pd/Z0Bmy7/skcRP+cnRMW3mTQOxios5OxPJmAyLxKZxDofxr7wqZ5mPNE5+ckEqDnv75UJ2MUYkBp9EsErEi8vgaosJ9dwFYjUUh+/xCSV03m/PigtuOjteWvyiE0RgBRMXWA/08KQ5ew+s5hEXYsgYnjGWHrV0vHf7I+OgHY+Og3c6Nk64FLswfTPZaj5ZPZMXOUieEhcHRHhVfIdl8PKnPKmCTFxTR9qsLcuglhN9Fq5tSplfcKcx3RJFOQWB03aS5uff8I3g6UaZdCwCbGitnmPdM1KSNmXLecnQ110T0VyQS245B9KIDdfcHD40lE+OFCv7/tg6Hrv4r7zmklPHRzzTnpWxTiTBxLZ9+/LtXsB6mNAjptSqzJTnSy6jXfOYaLccsMkqiF/CuYKkK6L0w8ho/fvE8tEnat9drMYhHZRt7ZaKId8wLnllIT3jCl+FYuSyMEcXkV7QMlZ/UqKKT/ioSri5ghWrr9b2LVxrh1nMoywIJlAdB/biAKmQGlRzh2LqMUFyQoll7CVyppyq+KSh0wlahUwu5FlFoE21lmCSo8r48sciUtjj0HPQhS+C5k+QYIqvET+J2IhHBq7gkuJQgR2xKNJYgBRzpxH7/+954sgqBEujoqnHSMswWNAqrm1VXQ7T1qcrF112xMsNDjJxgTn2tQmD2jU2oQotd4cn9oUxff5ffJ6IR/omV9ucRHVa5GniPCDrbXHKqpjEVf40EV62LAQ0EvZ2sh0m3icgd6+aHQzEar4TV12LDwzDiEXiGbN4tZ4DNti2eJgWhCqipBPe/CVjTWiYzeHMTA9UpeyRcOKwhoz3O1SpMOVBvR1SZ7xGYjSAhxk1mSWtOQEmH4ZTUtxg6ISEgMbWxEoiQ4zwNzLvw8QLcup5dMLGEVXcVGTGyVh1H0g5bYpzjc2SOmAYUkXEWFEQXwr0FNWK0Jkd0SE1mOeTlYxroTW2pY1ZqNe4yVJXznpoaHp4K8iDp3e/6XSXAAyoKl7oy7TfD8SHeYfveRW2H59OXcSGl6SHHwzfch1Z1yMC+a+R1LwLWo5LQtJ6ocAeC11q+aG8S5gTYl7f80QZC0AQcYUfjCPe0LU+gbIyRBLh6Ue3W51iwC/1qZK/9MWu2WlDdXh8Fs6mLcaTwMZ5hjSgt3YZ20YyiGp3/uozMzqDNzh6+1feJISL3hH0KE9NsKtYXPg6jRyqNMXN0kp8kKufJxaeMTJ9jLgYmOcpOoCHwlfXisHvhYurUAYS62kpDTCl4UfY+G+44g3N+0R94Ul4Umj7Lsm1Cz7MLCqu0CR/3eeVm0yUhWHxmw3xLFrauXA+nVOkruPn07oK3HYgHXAVmiHdQtgCQVmgciwinAgYMeW0TaUixra5YtSjUZbDzlezTTeZqBEEaX00HdmfUJ4EyyeN6tRlLKuzp6uUFQnizVPuaSEMvZQtc5Fd4VupIcfp3PssTLDXgR3HnOklgWUViiIT7+NonVjiMW34nrxs2LP5utT5Lx5WdnJfr7sY0uNAOZtwjKmXZZy0XHJMUgkRro8nipmbg33In+QZo2KhAPlJpADy1zu8ltyO0r3sB5KuJa5AZoUZik1ZvtB5wk4X9/5ekrYVx7MOyyS1hOmsilB2tZuGy23e5VW8qzc582DhdPMuITxnrH4/isRHjPQ9GYMrEeK1d91J3l8yCmDDoPRZF+NXs9MpwlPHSrsFjnIm51Am/Gp4ytgqQZ9arx/PNApPDnVqknPzyYWFnT8aw4oYEbY9BUyf2dIfcYVvp7CKQatqNSSw5CWjDcf5UodDsysfZFJyGgmQSs2bC2E7PDPoWoXvJBil0EvoHTXcrl+8ASzh+tcxIta+ypJvRubR8SqdcUxBbyIEu7KQEENN70lF2y3FiCbJtu0IAH994n3Q/O/aW780yT4bEfthnH4MJsmvEVZYZqVYcZmV8Vopll16hXjhpYWx4IX5sXDR/Hh20YJcEOZV78o9P5AN588CdHVgAbIM6Ft87gfVqsOjgF2VO8Nyhl7VlL906bFqzGTZMBm0s/iNHHUpaQQ75MZj3hQbrbU5XpNiIzzM3XDNTWM5FOx/avyF1UIU8ennnoiHnrw3Hpw3PWbMnRb3zLktFg+9pOKRet0TqFz9hcq8MruuAr3iaWHgAfeBgnMBWitZE8CFi9tJuqKJiZZhz89t3Azkj4ckRjwbjxp72uI6GQu3W3832fJw5sGXtHENnlv0bMxbODcWvfR8LHr5BT0ZH42vApYZtSxey8XqK6wVKy27il7jV58Yu2+8n6C0nzbz5rh6+mVx84PX4Bq8uBXx1fMnH+SOY/HvzggKh1zAKg53Ud+YUeVYOyzHFGZT7eGEydcqUiV/7HPFZE5jOJNd6rxveYp5p++0wR5x1JR/jglrbCQID488+ae47eEb4v7H7o77HvtjzJ7/iE5XEaUzEK7kyL3my6KQY1dZDzt2M+3eLdfdUV8R7LDBXsHXUwsfj/NuOiOumfETvwnCF/OXS/CRL/rDyHvMm0iiPKiY2524HjX8Uyso53wRXE8+aHDjKQ/KbrdTN4Rrg4RNB5IQC6uWWOoItMxkmh7yY95yUhy4/YdoErOffjR+Pu2SuOaey2PuM7MaN+oaBj7LrXhkzBJ28bvEV1lu9dh9k/1j30kHxga4FLDd/Ker44tXfRJ5+rePJE4s/ajXMEfUDZPreWCWGADvBBOryruIRZa+2WpVGEgrARmde6xI5ZbW0hHHsY52IJL7b/1eFe/5FxfG2dd8Ia6Y9gNgmRBsGVhdJiE0RMI7yXb9lW3GEsyxCCF6/vNPxs+mXajXLhPfEkfveVLstOGUOGiHY+LCm8/MWI5Je6JbzwEbhC0epngijYCUS4EBJhpzLpLuh/+qFJZuwhOEKe2ziDodNLeK93z0RxFfpmbd7pu+Vb7OvOrU+OntF8fiJS+LpO1sY2zh6cAZ9VzJ0Ll0drJSXMiA4pG+bvrTL2Pqlccr7s4b7i0dtdpENpSdDIjH/bI4yAPTdHy9C5OoF0907KQ584oaYD2dEqOALFjaXvcvD1D4utqU0zaRD/rV16NAfWCXo/Cu+UBMn3OHyHY7Gsok3DlnQk6k8SeTlOXAN+vAaq929GPcyhPi0F2Ok7uXl7ykvnKqTcA10s2+8F1khFHOlIyyAUbt23WgWFwa6Q2CZuXI4zqSD1elTqSSv57eZOVA1zxi1sebx9cPvSSmPfr7uPrun8aND/w6Hsc1kHwUB4n41EZEckSj3M2CJodwRNPBDv9WXX6N2G7Cm/GuvL/6kflUfO78Rzs/WSxtCn08sffK0zwoczzdSNuEMu6mjixNzMG7UMo07hylAMa7nToxJ/x4hyGzgQPuJO9gixzccsab9fTDws1++pEYNXJ0bLXeDnp9HNLHF8yJe2bdjp15f8zEO/JjC2bH088/EU8vfDIWLX4hXl78ksLQwVIjR+lWZpXlVovVVlgz1lppTKy76gaxHm5lNh2zVayz6vqKwwNvup9+bl6MX32jmPPMo5CQsFs/N47ZdDaw90w7kx/n8j6wTkMb0shAjQDiytdKy0M7NDEHMHexXHgvh007fPpkpzYUs5+qAj4an7748Nh5o71iny0OUBHXWmlsrLXZ2NijzIf19MtTkIWvRRpm0qbPPP903D371vjNfVfEDff9Vxy11wkq4FwUsM8v1x3JdDmXnjHqrGXKgzsQoWyYpwgsVPn0M5wg31hKRhOVhl41ZtFZUBeziiultnL3MGFm7sB1VlsfbyBLkNzVceP918B0KMasvG5sse42SHQi7uvWxXydWBuv5fFpRDfOo5eL0UstLd4v5I01383nPTs3HsPp//iCWdjhD+FTyB24h3zI4XEk77Err6f5HJzC1Xjq8q/ybn1ilF4uPmulAnJgwzqt7ETZ03PplbhDqdA9RwN4wJNFGaN+3uVUsagmSfUIXANnonCLccqN1Wm4OC/q1PI+cO4zM8XP1k5OYzrC36gRo2NxvNx4Nh0GemqCYOQnOQ7FlTfabLPm+wxQHcST0sQgd6VDPMZszkWh/QtVClUQDTjhgAD88e2bU7Y2wJDO9EchbNK57NrhNeTEFTFgedvCa91SI5fSDjM1O6k4ju2LgiNmEEx4CusxHDkPazzd+q2w/Fp1zRXH4XRcojeq4XbkQOhwufFdXviJLycZAr0Ts4HIQ0VatitD2jvAcOLd/RIxtHNr+IxBp5QVwVl5HVxn1fEtVsXnlqWrmldP7GFvPi6+f+yN8f4dj1Ag6vqvDN9knFO/9krraMGewKn+MhawWh/LcTWOiyvF9b4wsm8gkiVgr03YVbuvghRTB+gHbTZWyaQRKRmNCo6ew5mtgN07ZRJw4YTVwSFy+O7tDtVDg8N2/0Qcu/fJumYKJyvvyF4djMVx3CrjNZ6t07eK3tQa5Fnv+IMqcHYFVMBKsOuRFKL6RaQv+D36WRh7LYLsaeO+8EZx9azjkbvXenrguHbgONxqVFz1QtmGQ+94z6m/9A/nBt80eE/319scHN/+8JVx4ju+HJuPnQw//A7a8dUTn/Mx+QbChxO4SqmZIWySU//TV+H6Pce9HZhOKqCmuYKZRHVUZUyMapUt6QLQKk89DtVsw+uORm2JeztwNe4M+ySEdPQCojBVRNp95zdfiQPO2D6O+PY74so7fwjbJbHnZvvH6X97IV7fi7/a/J24xdEvWBpn4msHrrfaRD3+6nibI2PXG0/jkKqy5Wmc18AOpKSBoFH3ojsWrWdHPf+lnS18LJl7FsA4dtyJDExXTQ9Y7cB12w50tPJlXsBou3TXxOLwMD4CfumKk+KD57wlLrzx7OA936Rxk+Mzb5sa5x55TXx49+NjnVW8uxl+TL4Dv2md7eIbh1wWu260j8iTacWsnmS91s6XhpWLCmiBL5IEkaxfPtoRrQYbTW3fOax5WSqw7EpCOm7C56zuBcdpB6YNDGsXiDFgxAqvAROiLxaU4yXxxILH4jvXfzUO+eaU+OpV/6pniPxk8r4dPxLfOvzncfoHLooDJh8S6+MTCBs/dy+/zIpxwttOj90m7tvykTIPztMThespfR8IgXcF1NwcRLCG+CxIgItAil2TCW3Qmo1mwBAuHRYFT6X8PNHJ1j0Y/a+90rh4386H4ZPHHro5Jpw3yO/Z4YNx+a0X+fZEvsyDjo2HUwQYKC7mZMi45M+nzz+742K9Nh+3dbxj64Ni9033i83GbqWXqOLw4Lx7dUPO54OH7HJsXH//VeJfemZXnJ1XfRJhfNCYdPwY1YUFpICNgBp3cyqH4rbPz6Qotj1hPdukITv6YNO456Dvr5I+YNuD4uP7nYwvh1YUZviBp/RJ3z8GT6LvGfDXcwt5RXTQ0lluvgRzRBk/sey60RR8THx37DRxr+Eh4/ZHboqTLv2I/ToV2fTjcFyNQ/02pu7WXQLuINbUhgRwzlcfTDUkeuJhG0PoVHBFeeXqEbXfVu+KEw44TRa/mHZZ/PD358Z9c+7GqbR8TJ6wU3zozcfEJmO3iLP+7uI46j8OjIfm3ef4QnS8OBXTFhS65Cv6UEolwyE9Nrt2xpV6IMECznzqobjstvNx6zNOX0Bdcef3DWv55w+YmD990BlH+Kun9O2jXAucdlUw90Lz0JqLVAVKolk5rrlOJ/aQscAu/pA+rp30rqnyM/Xyk+NHt5wPMP9GxPMvPRe/+uPP4tp7fhEnHjAVhX53nPqeM+LLV5wSW+Lz8Hy8MbAAz77wDPBcVMbtYjAWm4qWcRW/hNKGvivh8IHH746f3I74aKqNRvaZzv2mR/4kafeyylD1NAagBNdAtkmCKpNrVmWdAWhAHVHoc/hqzxMP3vUofa/rnXee/IgcsYTCDz8Xf/6yz8TEtTeLTcZMijMPvUB2PBw95VNx/IWH6c1BQmai7MW46ItKspHfWki+0Yxd2TfRs/D4rIouIzisQgpbVYJcGwJK2augil73gczYjYb1kYVOCWgcVaC06zkvLKMzcN00U04zkdckYs9J+3IU/3nd2erbQRQ6PD/f/vuvvyL1IvwHPZf+/jw8F5wWqyy/WnxsnxPlk0rG6zfxrTtjKJhPUVXyyIlPfdh4E106CXAQX+LTMTv6YKue46qRnweCPIHMQZu1VZqmbi5CV2hKTYgjJs4rIka5OkWWYemT82VGL4uHmuPxteQLcd/cuwlU3DaAA5/ull83/ar43I8/GffO/SPeTKbrTeCSf7g2tpmwc2w9fkc9uab//JMbXSqSf2OLQSsUxu0xFnagwMmPDhpeTpsHzFxEbhI6U06QtU8iii53MFW0XlTOE1927LsCdlLKaK7QGLh4EVuN3z6+e/TlIshrGO38yydjy73xntHPz+/4IYo9XeFfwq68fsYvBTjjgxfEZ//mG7HuahtIR1tGZS9eLGKSZq8xScGgnkzzSThh9aKHgfjUsAxpw1zaJG2HfRam1LtFjjAlQIQSQBGbZSrTK/SiC6IVeIt1J8dZh10QG43ZFJ84HomvXXWaMYY3X10c+y+85Mnju9d/Pa5AUZ978Vnc1+0T3zz8Ujy53r7HKbGMT0zjajmfXK+x4tr6KoCP0Njqo2EXP7FJoOS6NNEpMdnrv1jvF0laHJQbCZAIAalYhNOPbfRS/u+E009z2Bl7tUju0+88FT8AWi5+fMtFceDpe8VPb+X3vnTOP3svQhkmOyZSkS2aO39WfO6yT8V7z9gjfnnX5fqR0b8d+PVYdvTyPWiuDCQVR2GQFT/C8TTlg1r9X4rSfX1E7DnRsK51JTfb4l2fhVNLpT7oY8DARb62Luf3zLpL1kfu/fH2KL3lWDiWJfFrrzw2thy/bSx4fn584bKT9ezNfvN0y8+2jSDmwkLQ/GqcfDLGsy8uiFN+dFzc/vDvYtUV1ogpm79NLipu9RLqdHZOvAaz+SlMl6OEOBSu+uFyzqnjFmNxdR/YCSHmRRJNJhlYmUBMzZlXfiHOOfKi+Og+/6iXjF/H4f7HZuiHQJ1/v+kQakJ2osWSEAcGZMHwTzjztiHHaLwmTl5/R3zztqH8lH9r4aDwdIYvicZVAXEpYUs3GHjk9BmYzT1VWRaLeUxh7xpYIDpVVF0btBJpzxC/nXFtHHnOQXH7Q7fg86ZPZ/r7c42/4yO+nRIMQQFav6eIc3Lo7wJdf6SjRXed5m0N25ML5xlHLBzIB3tFtYxD/kyObSa+aNLCpT0r1OVasV/7eSJZ0H5gB3L1KGS1adCqzoklErKIN9z7G60PMdOm4stvtK0/s4762gXs+fnzVyffhjeQzWLzcVvG9Nl3qojUeclqlb3LHJ88GAq94sotDmKlywx1Ky67ckyZ9HYpZ8zxpYX25ZkK+uEbx+QJO8a7tjs49sDPSHij/ocHfwttb9Pg0gGXGVcuM346oQh6Ini9ZHxO9FmYxCSgERqDUtYabZUMxQ7EHqNBOwG8CIXlzzZ+cPP5cdiefx9fO+zc+Kfzj4g7Hr5FftqHFxiTTzUWcbCZH8WMOhoPSLdYb5v42L4n4qZ4fNw187aYjpvsNVZcSz++5OOrCWtOxGtj/Aprk5g8fgc9sqJPfvV5+pX/Gvc/Pt0hMgUX3SQcv8uNeSr/5OVaiEyMmPixNYb6xVNhM5tO7gQ897gSZJi7vujbgS0/PY6h2mLIF/RL44eP38R1c5sJOxRsoB9esFfM+4sJJB/fd9wGXL3mhDfu1824Kn586wX4TP2Ull6bBCRbXkJjnv+Zlvm7kLbxmA9f5AA11ClMwn1CwxOgTsVPu7KvwI01Nw58C69YPAVDbx4f/dZBccTex8WULfbT6dwwhJBQrw2f91SvOmQ8Poh4btFC3B8u1MOGR596UE9x+CRn+pw79bUpwY0zYrY4TI454h+pKD9FGpSx4MTwegy0bEdseOwaQFtRztk35wrKumSS6Cpd2TSxHRZJEqnW+XPgTo5RGrKrGBr3HBhv1AAvimTX45+LPGBH3+mv51ayRhOK0imesnRhafNaePzAMv+bB/T8o6F2kPnmnCqShB7/tGDY5jAX5g09TxRjJ6xyZsL0Sc6MobHipx0ElDkJRc0x49umkSn+jENM8uzvKrqugihsC2oCyr/w5ENAI2VF/ffOA7cxNHTxXCTjBOfQnnJKO9v2McNlpSOYgbPBB/n0Y4lW36dod4vZLx69dHiMnWInUxEdS58wEKsXvZEY4J+FH5QlRwZ7RXOu7ddZuZ+4NI2Qn/EVkiycEDoQMqUK2AjmQCERuK20SBC/RLKy1/WEk/aWjInmFHGPupVd3UKQA2MwvrmQH/7khxgkCKPCyw5zX7+oTw150VkuQtlzSv+a41B48qdUEIz8P51ocBvWqkGcmubKIkpVkJq2sKQtkta44I1jR2kYPv2AFSMxSfZsxLpInEikw2B8iDLTwpcl7WxLLmkG48L3XDa/yj8dkAlxbOWHsfSlO2T+kTmZyYiVdXU1LaThOlJfROwXR62QyXHNbWO5QDgwuHU5lh97IJJEWQPFT3t7NK4SLt/s2RrFJCV841P+HVMARYFPw+mh/qSW3+TWTNKfDXCsG2nEfOXzQAiLrMLLyyCRpm/s5VoHrxjte1Fply4KS+P+WOCU0dxhq3i0pQUL3bXX8zyR1i18q5q9aKdjyFnzz7kIeFGFhwX/ufa0dqOZ30RQUbZKSAF9kHcOra9AXW954TH7M88TGaP5d5l6cdMP6dKO7vhKApQ0OWWqcul5ZiQeXbMrfMrq8tDB+7jCZxxiCp99F8O2/mkHlbw2snfXjh2R0rh3eiRqUDkuYG3cDl8a95mr8XTRBJzQhjsYf1hcR0x5Px710jphogbba8iJQzz7zWPFl4NcGYzFiyYy8xnQphC3n3YQJwUd65VgyPvF4KyStV0RMf7PPU9UnCTb8CJnApKBSeloz/j9OcfmAbnOnl7CLDj5C4NDtoaHQnhA2HNH9lvZVS8dr4kYCNfriW3XwAFA82hg2/ZNTme9STp1ACcjdS9wV2bjhsFFTiT7bplkFrMv5jhLJHFxrwQt1JGGLXGOW6tg1EPIfAbwMhQBy2nUd6C5dmACmXcK+4TKqXrou2IihayiexfOYWDIv2G7ge5rxYkZxCcP0iA29Q7h+7c+Xv4pSPvqKRIeBuWDusZbDn0WvTJ+P3ZyyKLIlry041MHX/8NkFtqyulRca0AAAAASUVORK5CYII=;fontColor=#FFFFFF;" parent="cVnY-JXB5LHUISSboKDK-10" vertex="1">
          <mxGeometry x="30" y="370" width="80" height="80" as="geometry" />
        </mxCell>
        <mxCell id="j30cdUnKlF8bIS7Feb2P-4" value="DynamoDB" style="shape=image;verticalLabelPosition=bottom;labelBackgroundColor=none;verticalAlign=top;aspect=fixed;imageAspect=0;image=data:image/png,iVBORw0KGgoAAAANSUhEUgAAAFAAAABQCAYAAACOEfKtAAAAAXNSR0IArs4c6QAAJMZJREFUeAGlfAm8X1V17ro3N3dMQu7NDRkgZCAhgmFKkDEJEUVEilUQmX6kpk9ttY/+KiotYkF99T1tQW2LiC36A/sA0Sooo6IVEggBwiCIzJnMdHMzDzfjzX3f96219v/cS+qjdifn7L3XXutb31pnn2mff1I35/zf9lldnbHURf17+1DtC13Xh4DmFNb3x+F46mKUDuSjD9K0TZ9Fj3DiEbhh5xXx3YdjOSbHWGRXiSGx00Q26KQv15clZAM4yY1zAOtik1jpq0Ge+wApx4JGMlh7Tlg7FkBCLmOosE8zt4KbYu72tGWRWIqkiYK2XKJXNOWfg47LuhCHFn32809bGIublKMFofwRh3IVP3AUcNT5V3xDp+K+4odcOMhx4gtAysmlPhvU7NuPTRbyKnK0k6uUF1ZsuL5Ds71fGOzXigBquMCp4wYFIRRcxyIHL44vLDSp5rgud2PK2UdBzTY313NxjnF8YJFtyFl5/PtdLdy4f8flQD8UGNULeAB4ElGNgAgCCJETCIMUUoQE+0IajUIMciZVhSbhJ/GLjWtgH76oJ/2aDYz72UshAcRF5u4qdYXjgx4LuGgMBzp80Q9lCaWadtKo+ZQdc4EhHWTU1NUpnIHl1OZ87j+lcwqTH8Grp5P8c0DTnODE4SYezoiD0sld+mTfg+E4bAJf7AgAsXuMRgDIRgNp4y5kQv/ERSdazidsBYixPig5TwKhiDP5qxOBCcnBZShNjw1NzUDp0zM3FrWdQPb79uOoDZQDsJDEmNoAY80/aJRAaM++xkIubOwYpHvGXnzZc93iPzGl6bgcI57bCD7Mw5ZjUfazHZvbKGrZu0sfFxeaqctGmlHgbdY5H+pTwesaaTmRsYNwXAgKgE1HE40kipp2RYZG4mgm9IOCLi8FgspEozNQxn7asY7N3ff3RU41/0Smfz9w4uQi3zuA2rDqn3j0HUcBECWOUY0Ax7k1cMdR3UGrDga0aepHx/V1CNCkcy9OUXv5jeDkmnr7YYKZFqe4H0JYRz9RyqEldt7W6UA8YZ98E5d9FPplSwdKbfjXOYoO+9Cjf85E1lkkh5XiSDHtXCLgWtxV/o6gGVhLniOIZHoIqBgp0qITkXNcOiBYbhy0ZYDcSBKV40RABa3WoH7VnkY1X+6MGK7DvsuIUPzzoEjstrR3G6+FyUtKKVVc58ahxKO+Stbo6OyBuEFgQncdHp2qM5rqCOTx9UEI0WBwGmcYoamjWxtzVOzlHHKMK6CoOU7LLO4/dCSkQ5q7ltwydvlxW2poXPDcpT5HUErfu2Ja8S+FjIC4A/RpVcV3/o6FmwhHvUN3HJRytCmrjmMwxrOmAkpgVO1rshhOYuEz/biPyuyAD+fi0PTJTTkbwNWRA5A0QlcAIOA2bs/MhLmA0394EZT4cwZTSCxWYaWpJVnIoRc3ETqgPq5TqmvGAkgg1MVpyAaOs0/HrueO2Hf8mpzjIil1byc2a7VllzaAAOE8dVPXE13xE3h+inkwqSsewGChLJOkJ4SQiShTRg7SdF3KJROnkAGgoahR2xHDDB36TxiNS0HjxClHl6rq18bVoj0GBg0yG39Io02e2GTjxw62g0c0WGdHg41oH2StzfXW2FhnTYNxfGG0a0+f7ca2a3efbd7aa+s29FrXxl5bu36/vbZ8ry1dudf0RARe1O/TBd95+sXH40gm9K/AkhDZU8SiALypJArQ+5mLYh/qaUoMQtbNOufZvrpYBKgCetuD4nVJhqjzDlZkAgaUxpJbnY0b02gnT2+zU7AdNaUJSdJkD3Z/eLVnb5+9jkQ+9eJuW/D0LlvZ1QvXjp3cPHhyIi3nlh6Td023FhNjyPKm8RwKneKTCXRDprQ/WAEhajEMJPYrMiZ4EOKYeeJQu+Ccdnv71JbkYr04bX63eq+9smS3LV+119at32frNu6zDZt6NeP27PWZB+/W1MSt3lqwdQwfZKNGDLKRnQ02bnSDTZ3YiBncYPV5wOHhxw/tsH/90XY/cm/iTwp+8BWLKFf4B0Mmg2ea6/h4tS2UiLWsOOno6FUOoTN6KrBGURf7MvsxxqlM0Kx9EMo0g8GUic121eVjbOK4JmFswen36OLt9vgzO+y5F3faTpySIkWTIExjJyohPeL0NWy9tnX7fuvasM9eWhI6dAL/zTjlp01ptJnTW+zU45vtyRd2O4EkEmHoWi4mNAve0BF/HAA/NStjiiM4wpdSETHTb8at59aq/axzniEzkfcAK0GRlP5y3J2xz+KBe+esOQfZZ/58jDU01GGm7bE7frLRfvnoNtvX67okULOJAwRZ+hMmHcTMcrn7KH4dQDY5W+oZWBAqeuQrf2zILQVqFHnBQiPGXCRj6VKePKo4kJZccNzfRPrjVI5O7eA6GGg606Iz7W2t9uk/8+TdfvcGu/UHG2zvPirVQEUfzqpHnTh+VAMSxPTwC+XUc5B0qQG5Z3CckHq/FXjNF23SvgQLK/IvcrSJqklNAxbJUMfscw2NcNCTSc6BlXp6kE5CjkhnuJhVc5CgJCG4AIb8kg+MsMG4g9724/V28+3dIpJHTrFhJ6cyVId8UNyBghAu+uzgrsqbmo9Sz22I8al5HTp9KS0Bq9N/J/j+IsE898peu/HOHT5SvXszeREjB5N/gSAvlkyy92CCd2FnGkeIOhykgfNGOwDpINo0pBPiHX1Uq+B+dN9G1W4eDtWBvRICWdrjpiKSQSjxBKBYavZ+xOvtpGOa7ezZbcXHH9JoGMTodihwuQ7/ygGH6LbinyIV6Gn2RtzkxOD5p996IIUeDM2E5HUYuAdBKplsDW3DQx7KBNw8Nm3pgUqAF+8pSoGzFCHYMQaasDCpukiTnLhQyJE+u+yDB7Fht/x4iz38RI/HSmMWVAxGYOq7vcaw+/gFQ+3kY5vw2MMbjkt1YESFs92FhHP6QkMbB5q4GBefBKQ6xjiJdQ10slQmByZRnAScfYFAw11hfMBj3VWXj7W/umaZre7a5yykGzONzgRKOk6YuMR0MS8ZHkZygRqHxefk45rtiAmNeOzZZz98YCuusS7PhMlG3GNHO90pzdpa6+24Ixvl/4FHdzoo1eSAbsGRNy/YMDZPIltRxNOvt6TEIr16T4D2pC6+DIIRoV+yH32Px8dy3HWFaSNHDLabrz/cPoRnQF4Tcyxr10p7ukAbm0jJh8vcb4xjkP25Hxwu8+/f68lTB3K9rkk1+aMz4FXtjBObrRlvOrz+renGY0FQoMuBvsinJpMX9H//eqJ/VAqwGrpYCQyQQiIwi79jqtlv99Ajm60Fz2h/MW+0/eCmyfanF3bahEMbyVKb7NlkgIFFaMp9CzFkLK7fZ6dOb7XJ4xttPR687394G+w9oNAq/dR3OQH4tw/XTX+gf2A+Li8U0x8Ho7hvEekvp05NzfnARnf+NEbtnzWlGWe7jHBEMXVzVkrf5zaamjNKhJ+Gjvblb6y0h+ZvsXkXjbQjp7TaZReM1Lama48tfn6HvfLGLnt1yS5bjnfZvZwICET29AdIR0U7A4xTZ25c++64Z6vxjSXExb4So4gokYiHTxJTJw62SYcO1jv1wufi+lfi8gVeZ+/etdcBpR+S4sENDfRrnCmHD5zG/hjjqfI0ytADdFPfixgxC1B11PWfeHqbPfnsdnv7ES125pzhNvukYTZmVKOdeya3Gs6mLVgkwOscr2k7d+233Xi/3Y03Fcrv+OlmKMIRCJ52QqsdPr7JujH7Hnh4C2QiUALxZEFcoUJ+/MOxc2b7E8LPF+60ffFsyvD0oZANlDh+0qdbTxzkypzrOJ2aF9lEHmIGBgOMaHqjFhBBqBhuNCcloz7kcb0Ja/qR4xdf6bEXX91p3/iXNTZpfLMde1SbTTisCac0VmNwWncMb9CWdlkzUbf/ZJO6jG/uee1q3/6TzbZHN47+gZGXJ8zlyZkB8uYx+4Rm8dHpC955syBoclVDXlzKxCltSrDjA8Q19ApalIXtK9IC5wc6GriCbNBJR5QXHEiV1FSmCXzwu8cnPzLWfv3iDlu4eJuSv3TFbluyfLeTD98HHdSgJa3WVixntQyytpZ61PV5/ZejWSe22SQkvQsz9YFfbYUsD6RgxSXdO2+Mi7/XZ5zUYs1YkHj2pd22et0+JVoHHKclE/3m+CJAjSmYWi7AOw8O4+QrZ/oqM/APXQ+LnCjok08Yahd+oFPbyjW77ZGFW+2xp7bZbzEb5Tgi5kIDN5EigA4aDhbHQ2fu+R2C5ozc1wvWHNKBS4+MJIKWnDoCotTOmuWn7zFTG+2eb41Jo371cy/vsWu/iUsDimazLNGRL4mVqJqAPlGior/aTzt8SAbMrg6R7pgyl1VtNdg/yFCvqxvLJyhHH9lqz7yw3b5+0ypbvXa3HTqmyS49f6Td+JVJNqpzcA2XypwpqkBbvihkYX+/nX5Sm1Z1urr32oMPY/ZRm5TAR6sscemgrewzotChbOs25zgIs6URj1UH2tqH8axzvYSAQPxq2OG++OIwdFA46cpNxI8AlRlalGjTwE9myHOYIGjf/9BGm3fJaPvcp8bZlV9canc/sMF+8uAGm3Zkm5124jCbPKHZk0yscEx0Uaj4SlKchXM/5LPv/94dsw/aPlvTOQGIgH6InKOLKPzc9eut3l+S0PXZ3Yy1xi//1Qg78vBGndbX3oDrrWCw87/upwpNOeMn1/AVFZzFY4wrVBRhQAySzNMqQTQL4hpAldt+uNaOP2aIHTdtiN103RT73p1ddtf9G+yF3+7Ahmcv+oXzYp+YqFUwzqb8oH7nqUN1s1mzjrOPd96qfXL06zXt/bSWElTjQAOQN+xeLqcpeWaNDfvt2r/AIxaStxbX1Suv22AbN2P2MTHikkTk0me6CFb8w5viqMRfd8oZC+HdSyZLPTkGKEtUIkMQinIcY1d8Ypx94JxOqXK3ecs+JXH+41ttyYpdEaTbJNZAX7Sj7DvXTbCJuHlwFXsvHm8OVBY8tcO+elO39EWO/KiKwFiEHTXFPH2/+JedNmNaMx6Jeu3Tf9+Nby08dX1molFiIj+3Z4MjKEyyKtYhVPycgWUmxACPXqjV6IcjCHSUCRh6Z53RoeTt2bvfvnvbWjt5xjA77ughNu/iUdr4IP3EM9vsVTxIv7Fsp/GuzEcSHkkWkWVbJPv0XEg5r12DcModqEw7olkR+6xWk6k44HoiP2h9/pOevI14zrzyH7pxZ/frHqdCiTGSRH+FGzA5zj15FnlwFe2T5zzal0esX6apVAGVTvRTn+Df+9ZRNmlCi33x75fZLx7BNQVmRx7RZuecOcJOecdQO7gTr3OVwjvqho17bdPmXjw477M3lu+y79yxvqYBH3yXZmFS+NeDqLN5eD286P3tdvfPt9gNt6YNtHhKST+sos+DcDWSN+sdrbZlW6995qvdtmK1P9IwNtrIIuPM+GBXk3ub+hyWH+m53B9j0nvUJdOCwQ4GkiHlOhKEISD+jB+H2YDyxGLeLRWvvfxqj738Gq9/dXY4biInHDcUdQs+azbjQbrJRo1sxCZ1fd78TizEusTKqSuexFRC8F48w9cDFzxR+4hEG3LLg6qEq2925cc9edt27Le/xmnLD1riz6mD4rGoGTu/hgoPQK4V2LBRP3IhbtjhFGZWE5BkHJj5TSBq9HNGdQJCaZAWKc1mn3qQ3Yc7sgdDPjxcffbG0l22ZNkuglJoXNRs7xhs7XiY5hsJKdOGRUlwAqkuOUV8gzkM35b5/Pj8SzsJrULYWhtYfNSB8NMf7bQzTmmzHTv321XXrbMleAevlvRJGePnZCBnzwXa7IoLx9mlIzSiyAZ9Xw/klEVHimwmIypH4PpVUzGGONbDQmRXfHKcbd/Ra/MXbkm/wIvEy7GT5IembjzfrccXtyw6OOmzZMSDyaTOfIfPvoVPb9cNRnJ6ALZ/gojQYX/5n3TYWbOH6Hp6NZLHz6ks8hNO3d47TI5i5z79Kw9uQycKATL8VfGE531LLCCnIjYpyYIiXHBTFsaqaMMtCj+c/93Vk+yLV03A+29T4AQLuCem06CN+8kDlTDs12SOnf1Z+N7MsuBJnL4s4d+5Bg/I/uySdnv/u4fh0+h++/zX1tmLr2H2owycQbTXq52ggh9hKg/p4sx+wKtmmyJt+G1MIU3AokkdakA5SgYycD0sx6+/YTmOeK+9c2a73XrjUfaP/3uynfveDuvo8KfZtBfpAbjuS4ySWb96FD6sHzGp2XpwOj79a3wUInsWmcCa3NH+0w932IfOHo5lrz675utdOtUVg/R454Xef3E9UX7ky33KVyUxuIlwQMcxZp6T0RR/C+th6eCue7ttweOb7eLzR9u5Z3fa9GOHavsMIluKO+3Lr/fYq6/vxMLCLv9lwoa98aAL74WC8yDJ6ik288QhcrPome3+yRSnWdEJ28uwcnPJH7dr2epL/7jWnn5hp5+yxKK1bFQJK+09LRIVOXOiywIlsJeLcmr7ycszkxxxDfT0EZCePHG0k5kjQ+597yZgVUZH6zfssRv+daXd/G+rbeYpwzUb+ZbCxxxu73u323NPW94QtB6I043rgcTlQy8/0M+9/HUFTtnsk/z0fWQRVnhYxFWkZHPRue32Ebz+8eH7yzd02aJn/dsHbUvJeCrJT/5VPcbPPxxT4mOfusqjnsF9NGZguqkYUlNHwolK4wDrYWmpGkyYhp07e+0Xv9qorR533UkTkcDxLVgT5Nas7WAsMAzHnXi4f2zrB8MOPw8wuR3tDfqdzR4k+Sks1jJ5DFiBoPHBs9vt45d24hdbffaVb3bZfD7iMAlOX5OikjslRkJgEMkTRlhv1/CZC/ejBn3GzRZNpZU2ONb9jelZ2U5jjtMgGbPD57J0iG4Wyr78t4fb87/Zbvc8uF6/h+El57U3euz1JZwV9BZYaPIRqK21wVqwFjgEn0d5Y98bPzTahesp9WdiQYI/Jnryue1KaACQtP3Ru4fb5fMOFpfrvr3OfvnYtsLTOcubdInlqad/FynJUMlYqrX8xC7j1/V7wHqiTmHq6WhEgKw8VAdXTwJCSdlrMOjFmwUT0TCoz045qd3mzOzQ9tG5h9jjT22xRxdtxrrgZiVGxN2SDm0/crR1+z5sZuu63SkPVBKmap6+Cxb5g3qav2f2MPvUx0ap+42bu7TsRduLzh0uPt//6SbdUD0pbqVTMwHcCwOEJJJLguqp0o72yniKqI7isxdz6b+7HrZsBWeW2ZxZHTb/sU326atfsaef22pcbX7X6R127V9Pwooz78RwqbW3rMkdbHDqOW1nJhnkrNta6/Be3aaD9NhTW10fSFyx+ewnxmi23XBLl93zkC+KTp/WYh+7BA/Qpw3B9dDxS0oAr4fsqMmZPuRPyRRF6VQ5UE8YRTdwIaSe3kRy7YYh+KnqVm6YBuhJUCpi2213rrZr/mayXXXFJN0Bf7Vgky3CzBuJd+CZp7Tb5EkteO/1VygZBAa8BxAvBxzRzv1L0bSeyDeXxTh9t+N1jIW/P7z6L8dqlv3LbevsR/dtks2Mo1vs2it85dkTqmg0U+hAcWUABJLTWkxMhqjljvTYhlxIMTtpykJzDse7sDtLqXrYsWbRaSUHDBaO4hrIsQcf6rZpRw2x894/2v7X5yfbLx7eaDff+jtbiZ+53XVPlxOHc9mx5oyr2DtJOSkOnU2fzT55GF3Y/EV8u+nDSs9Qu+aKQ5S8W+7stjvu2mCjRw22P/lQp515+kFawXlo/la760F82VMivCr8IXMeb209MTInqPzkIW4kDT5s6ybCFrs1R+Fd9F1RTe08CTw8xOFjx8QJ/v2B9me+c4S9e06HPfn0FpzSm23R4i1l2d8TE0mkfUYJ3HyuAi/x4OrxO44forvro3h8mYFT+UtXjsNKTT0Stx4/o/Nfgp2Pu/B73+m/XCC9iYc16iMV34HJz2PjSBTI9scznMZTjgPb7+bIiQIFJrxaBBn2PDyDxh469wtSYEBEpEYUBuhBe1AJVdWbd9k4e99ZB1vXut12Ja5/XKqahIQePrHVTjt5uF143mh71+wOPcaMxXcS3m1589jR0yvs4ot+FZETmInZd+bp7fabl3vstaU77at/O0Ff2f79nvX2rVu70szW4IsbfxL8z9/t0vfoSXhM4rXzCfwyNosQhe0S8WegCIhjHqMfUKplnGnP2m1CEli0rTvhpF+8eT0QpxhLceQdxSdnlUDv/sEJNurgJvv4/3zefvOSk25uxg0EM/HUE9ttxnHDbNgwv1IINHb80N2D58UeJJLPe3xNu+u+bvvZr3hNq7drP3sYEt9uD2MWnzh9qD5//vRnG+36m1a/KZgMbuzowXbbDZOFd+5HXsPsQRyREM32DDzicyoY4SUFnYi61q/EycH0oxpjtBkQGaYt/ug6wVoefCpD6H0aanrTY52SR7VV+IyZLPgMd9+D3Xb/z9ZTxaZOGWJHv32IHXZos43jdkizHYw1wWFDG7TJDXYLn9xCnjYYN+1TTvDr35zT/PR88D+QvBtXKQj3D6ZQLqcYOt1Y4eFnAD6ED2mr9y9zCMIThAbb0NN1mMbcUBJPnSomx/DHV3uy7fFTl1ha0peSqDNpTBvBaU2PNGQVDbRZZMOBKJd8eKx989vL3QTAbg4FzIKXX91ur7yGHzZCN48if9HfgodoPu5wxrLeiJ96MJgTjhuifmL/cv4m+8o/rcyualJTga9M4nlnd5TV7OokUxiRrIwmbShOrGpy1RZhekGj2LvbtNcM1KyDnOmTojw6sAJGX3zhjIlh8RR5m/tLLzxEbwzf/s4KLSWVkXA8cD2xt69e64dcQxRZGLDmNvvU2k1h/uNb7O+uX6GH4uRJbJzlXsCN786XnNepHzaFVDEzyMJfMRHBJ4nkiMrFAEND+YJ/JUczwDmpH1jKA/1HXEpgOhKYIwpEzvjYQeUATIIOlHCmXw9cfMFYm31aB54NV9kDP1+vROruStrhMO3FnB0Sxh/5om+Uk+L0XYjnyS98dVlZQHU9qciciXvXrOF28Qc7cff138HwnZivfgoaqhlbWHnFYMKXeClmKXsSc5zcIh/kF4MB5clv4PMNQUoqMlAI3sq/1w1G9rFP/to+d+UUm3J4m135qcPtzz863h57fJM9+vhGW/zMVtsWM00zMX2IcySPDHiQULgsNhjJ+dqNK/FTOD+AGQh/LDkDS2Wn4h2ZH+7b8VmAhT8lue6bq+0Lnx2nRQolKJLEccZXDhL9kANj1Ag13Ln2HIJtRQKtyFOZUBzlm8iAIqIYeKvrYWn+8ivbbe7/eNbmzB5hF11wiB179DA7+z0jtRFz5SqsCeI6uBSfNteu22Pr8NjDH02W5Sz8+ziWpqZBdstta7DAMMiOmtqKm81gfIDCL7sww6ZObsWNqEkzLP2+gjXGH927wX65YDNmqoecY1nnDFfGIi1KUCSRomIJrkpqHOSSSPR5PELsCUYnbiLpigo8Tj51HdT3nlgH0CttIoWpr1SYPTx/gz28YCN+F9hkc07vtBNnHKRkjju0BXfg2j//qnn8r7W4VP/iyzvwerfNuMCwYhXu/gO4EFFJUDIwzHjwRy2Gk5ko46FPTWFBKcaIpUIbjNNXJp913ESo76dKGuq0zozLGLa8tRHHoWTjPe7dgXDQW9O12+74wSr7/g9XS2XM6CabOAG/E8TC6kSsDXJW8c7bhi1r8uNzYU8Pnwt79bC9Hg/my/DrhmW/26169do97kmBMB4YsaCKlvexr8VUGUcsYgplhZX2Tr/EJHGRhb1sQkh8/BlwE6lcb6CQxR0i83zdGbAeljqs+Wjy3W8fb889v0WJW4skstB+DX6xtQbBL1yEj+/xjFGCxzi/8ing8vzBjPiMINEyM6gLudIQwftBo8wXHKAS2VGrJJJ6KrTz7Kmbic6aYx4zh2u6LhUtmRNGpzCVqoQgL0VOg6iEwYH6FG/Het6QIXggHjbIjp12kB0xpc2mHjHEPnz+WHsJ18UFj220f79rDWYTgyvGjl/BzZf1VPHpBC+VQKkeCGqQp9/oHJq/aOBDNH/9sBNvNlTOoGVY9YcxdYlPXPWJ6EUt2mMgzfxSkBoYhGH8PpAdFBpglok0DJ288OUh+wnK+plnsfKBcsmHxylZF1+22H567xqdgke9bah9bN5hGqdu1Z5CJi1lUqIs9VD7imj4Zyr+P+uJf3z2CL0X8+PVrt35/9wgAVVcOgJ2P1mEjwH5cA7OxVOKfeSGH8B0JgbmoDFjLv2CnxJBlBZIuf64NV1CFFB5OKTBa90ue997R9uM6cP1FvDIgg32CG4kt+NZ8IXfbLVly3fak4s3uzYgiCOkgkO/fgZU5fI3QCeIeCVSvuNz38XnjbRPfMTXA7/2rVV4rNlTOL/JTgLsAj/jdzHYUO5kos5ZGGM0lTL604+73w9HBczHXIVOBMgZIeAaSOqd877RdvXfTMUbQb0tX9Fj37tthf0c64T+rzZdnwdZOKwRMPssLqOODrKuhZwhEuR4hZtweJ1Eg7+8moPv0JdeMMqmTGrV0tdNt6yx79/t7+AA8b+wl10FJ5xrnLvCLXQzgTThWH97XK9dUkkgNeICPhAs+wzKwXhEgFxxPAXXvS9dg19qTfKfYGzGKvQjC9bbows32FPPbLFdWHFJmyTvEMTxonEJ0Q9fGkkVyJqwHnjs0UNtJpbK+MrXiX8hxcKfFf+fb6zAD9x73I9ssNPfSgICa6AvYjg/Ndg9cB/2mUzq100/9r5Y9YmjEAoDAfqBR5DiEm0GzI9Lc04faRdfeKgdc3TteyU/PHFm8qayZGkP1g73aP2Q35GZWF6v+B9N0If+AwouLuBBesSIRq3ajMZy2QQ8+rwNN6iJeAzyf3WpGPXF7867u+0/8CnB/4G3WHnigFcN1i2UGW9ivBoXuhz0MTW9LR0fLLipV3f8MffqP52QI5kCNE4xB+9PyHEhC3KlX3UI+3HjWmzWaZ0289QRNu3tw3RxF/zv2fHiXQL6T/T24oecL+Hnc49j6esxbEtxjQXhmraoed8Dj6FIVia0GIT8QP2099x4zNTT83AYKIGa5iXDkTAqRpLKa50wYvxAhDiOP76OKWW54Uv/hPGtdgROcz5McwH2YGyd+PDEL3ZcUW7CrGPZzdmIjR/n+RDdjX8FsG79HjxE78RPQ3r0MO3/7IGeDsSFKCLCANipHBRYlJjYrp2OqVvqil1OKEVXxUQbD9K8dcuPg8fLshyVaYlGGLomrNIIAl5QPRieMmFE7roZcKXG7I0lPdoKjmLkjoooavY/5RxJis6NaqkPbB0o9AuXaLsK7MSR+MmfiF4K/Yq9sMXZk1vVLX4jvvSp50AFT0LY6Jy1EsE+UNSPXzWpHfJ0QHunRqIy4E520iFeYkrTcTlGuduwneZhS0EU/SqMfWxuQ0dunxw5Ji40k6rbuxkFMlftSRaA3Ms5FVlkwKrWL8+swgg5AP2+W1VEW9QoQyNBPMmOn06qD5QeBEb4uodCO8nYr/nzNkXa+vuiMO3SRg/PgSXg3DmAerByX2FPJ46jAMjGxwVKMj6esRGKhf2azIXZDw1qRRM19PULVZcwXJ8BmbiKBGYHXg9jEnW6OwgA3Ip+3sp6YhKkFanpQKkN3PgoRGjq0c9bWU/UuQ00hQpgn5XowT75KqOBy7Z+YkdH/0lJbuJLsowTQj4RqkjGlo5C7aVcBpCRBivqsSggb/bbU+6vXCFWP5wIxzHytUwsQlXY1OdBkYnPiPSVtTjyklKK49OeLqjHkngSUhByNStnRi15Hl3aU4+FhyJGXEBZYPlvpEOJLv1iCXUoOI2wkQHkPIpoa9YFSFWP8jzi7jRch64OHGNnA4W2bIkQGvKP2gm6DhWScLEJHuwHgmMRd4A+Nar4bId7DOAv3UQQzt/1U6x4gqnsGAsbqGsPUAFA8EK2yAI/iVGOLfXoiGBZi6CLOKIxjVMhMNUkEQmypqqAPScYK4SlmzcrgoauN30vU/DnDHYFyXMqMBHk4T6xz1lIEUpyyrgyjipn2vu410pg1UBIFaXsE4R6VWORhAJl6Zz6RQ9ydMIGTRDOU9dxaqSLn7RXcP3tiTXwJiX8OJ2TGzzJJ7QDlq2QiRNpQRYBqI0uuWm1RerceUmurLONhga5iomGD2RCOKI2hnSUmD1s1XH2VWjPvwFIWVWvKnd97Is+/Vb60aZeYsiecpWiTIcp9JG8JlYw6EgHLGSJmVBKluKAQsGrAEgc/TLubrPr64HUUXGHJE0F1u4Ue/Z5akRNddejMTevfJZRiRguF0alL1xCShY3g4CgXdqmPUm4riulvDybuXenkH6IE6eo/GcyS+2Y1MlxhTDQP/ocr/onv5SVa2BRgN9+gMWhky9c5aj05IDAcOXCxIEsA65pkxD8FHU0qnqUo4gHhyIRLk1+0SOQzLVLFa/jTiH/GE5qGqRdCARR9e/W5UZT+LsizGoxIYHeSbKZ2VpCa9l2XVwn6DpBkrzokBQbwAzckCAJmGlpkzroq/Sr3TZ16Sf9MV6/pFT8y11Fp4KdPl3kvt5sT1COwQur7EJWziaKg2PWsoHs/wHXDEDPcmvaeAAAAABJRU5ErkJggg==;fontColor=#FFFFFF;" vertex="1" parent="cVnY-JXB5LHUISSboKDK-10">
          <mxGeometry x="219" y="370" width="80" height="80" as="geometry" />
        </mxCell>
        <mxCell id="cVnY-JXB5LHUISSboKDK-31" value="" style="edgeStyle=orthogonalEdgeStyle;rounded=0;orthogonalLoop=1;jettySize=auto;html=1;exitX=1;exitY=0.5;exitDx=0;exitDy=0;entryX=0;entryY=0.5;entryDx=0;entryDy=0;fontSize=12;strokeColor=#FFFFFF;" parent="cVnY-JXB5LHUISSboKDK-10" source="cVnY-JXB5LHUISSboKDK-35" edge="1" target="j30cdUnKlF8bIS7Feb2P-4">
          <mxGeometry x="0.1889" relative="1" as="geometry">
            <mxPoint x="906.25" y="230.5" as="sourcePoint" />
            <mxPoint x="1231.25" y="230" as="targetPoint" />
            <mxPoint as="offset" />
          </mxGeometry>
        </mxCell>
        <mxCell id="cVnY-JXB5LHUISSboKDK-43" value="Step Functions" style="shape=image;verticalLabelPosition=bottom;labelBackgroundColor=none;verticalAlign=top;aspect=fixed;imageAspect=0;image=data:image/png,iVBORw0KGgoAAAANSUhEUgAAAFAAAABQCAYAAACOEfKtAAAAAXNSR0IArs4c6QAAGpxJREFUeAHNm3uspldVxvc5M9PSdjrQ0nJpuExbLLTQWiuUS6glIkGMN2qsMTFeSkWUi5hY/pLEf7wlXoqiojbFa2KiRNBQjbdCQYtcUugNECilNrX0YqeXYZjOMMf1e5619t7vd06ZFltwnznv3nut9Tzr2Wvv9/2+850za5963hs2WltrrW20tTX6mEWv0TSXPX0BiJiKM0Z+g+SDM+His9+8xtufmXAv4sZ8s66Bn9GJRxfqqxcvbMWPSHOOdcrk/IWrXri4qMcY3xsDvz3G0TDQ09bCL4kxltPWCHBoLigmiktcFZ/g4tQqkgO/eXMhETTY06ZME28PcE7wmJRrxrMuKkZDVzFjEkd4Y+z8k36ccoAfrXR24wZ49MOXWgiP8XoF45TAjUNiKhESFs4eB04RvnR7xmwkvkK8WHNjk4Z0Vk6Eks/5kz071kcjdm7iIacYjT+UGnocQZ27WzXo+CRmLvwhRsvmLFvYA7vuUDvNlZXGEWYXSCpGEVeFEusQDYyBM1JPghbFNiSu5FA3iiGDZbOo7s1x8ai20kiEZgoVMmKrx7gYJ//q5grcY62rctF7TB+HDI7Y3e0i1wQJvs286zGOr2pK5mCZukdHO451WIUPTMU6IR78uUCAMSxhvoVsJC9245koVXRl85zrZrzW43WRTWQj3msyJUrAp5SeB4xy6ZZVkLQS2NcU5sLDHs/AFJdFxM3QDd+6xVa2VFKEBJfYjTWPvTilkQ8+5wlWm7ugwhdG6x4CBp4ilixotNiwROx6aYwI2cFXnnUfCsuvLTaewmBfzxjozYs1WnQ1l3744wsvdppu4RJfC8UxbH4mShCOahHsGPKMhEubxROR+Qot7IgNQXi24KwYy+1wQsVRJVG9Ch8T/LT5ERIzG7EnnsTOkYUWkHEE4eMRJJgLBwHr1VcE6QRKvYJGZR2WC1NCTsBaPGgPufpVkcrkLIopPp1IMoYBkezaoRAE1DsbWbArxhdyLPH2apEBZEFg4aBJjzBpSD3a1AzC0/HKN/AqUAQUn0gjxuVITozgIqjnU2CcwKybpxHvyuapCyd6lByO+NICxWfkEu9dqnhIjWc0eFbHcnIJgfDp1TCNcJlP4lzc8PnVfpFdiMInXALAS/cUPmvsseLdUP5uywWolIyzFX67Vhj0vebaiphH7Fo809yY5xgm+XJBHUkku+QXdscj2zjDvfP42E1c6XWauOp0icrbxVApM78ZwSfWBNKHzadz0gtBNOWMfuBRVmCPyXNYfCQp/eB1ApOGPOF0shqT0jYspBgNosK6Nzl2NfUTXvBC+KRlGQaPOAceiPOELSbOaH/P42SZMiKCw6kGj/IIXxnNOxIL7lxd94wPv4q3xPcXEUItyAJKNIJLqGzxDIK/bKStce8TI84ZH9i6PSt2S3zyG5/8ZVOBsYF08+3szcMCd+WpOYUauseauj9xNV/owxgNW9nr/WncwuFhZ8KpXVNoXlK0brdhUpyIYkd0lxeee0h8xRQJ43Ha8ZjxZ0d4NeVPw+POf2475ruf33ac/jS5D3zy1rbvvR9r+z9w44T3YyAypJ58cUvCylkLHqlYVBQbXOQbeB2wksNhUys8k+LsIiLz2ie+6bUbem4FoCfR2DNAAzhIZhvvo5TAS5GS4npE+O3b2vFvvbAd/apzxLd62fcP17R7f+mvW/tKFIuc2qx4JczVzppq3PNz/ALCM1BaU7PGrNFO++K6CS9P2Sk+Ny9vY+RgVxhQLOzKRLS9nM4cy2BrH24QD0HCuuOw+OIHsdF2/ejLVLxD9+9r9779ivblD35SVEedd3rb9frvakd957e0g7fc2fb+8ZW6HYUu6YpEQ5VIBt9yKl7YWaNTDjxhYauTVuusUKC+O8yX8FDrk9+fgbgxAlQfSIBF7H45h5w2xwgvnO3lq2dSzcGOcbyaHbez7br4FW0jTtedP3tZ2/vu/2hfueu+dii+v/TuD7e73ny5fDsvennEHgN4gbcOxIy88JOHCmkco3p22Sdn58nFC1P+YFgUeIEPn99zkNeZJIyUc4NEX84Xsfk+cQoqfPVaSfiBJKxzu5gWVhRHnPH0tha38Jev/nR78PpbtAh8hT9wwy1t/4f+UzHb4tkozjoOxKV+9xQMNAHWzoyGpYpQdxhkHW9mxbpyMazayMqbaZHHbI2Ps5Z+XJCJMHvHW+0s0HEjufhrt1NU54I3ucWEX6/ozrV995MEP3DzHdI7cztnawe+cIdidjzjRJJ2neWXM3OobIoZ+ojri5/xc9Fm3WEvHXB7PP+QwfvAILKzAjyXTZ64EENChmVT7wQMHcLcCRzNHkW5wBJAXH5rwjjtB2+9W6btu6M4U9MzKUDE7Ximi3zwtv9RBFDhScFXGIqvhNajO9N0ZukgPgPpdWfMgQR17g517riSK29hIrFkB7EypEBcstnIz4MWqrPUgcLoBJoHvh7XxzNXxkW3//qb28aDB9tRL35O2/Hcpydn6IhTSjviec9oR77oNMXsv+4LktqzOyRsHjgns+nEMbPA3gsvXWQottCXsdXjXYyzOGxuFDCJKRCBmaRXXuC49K20gbiK1VjowudCnFbXrg/+xBrnZ9LBO+9r9/7Z+9ratvX25N/5ybbz1S9qa8fvbGtPPLYd/f3nthMufY18D/zFVe3Q3fcrd+HVO2XXlEeH5U220J7NmLFm5gSrj6HvHJnEUeXNNIrjxK597JSL430gbr9VAQhtvZz3nsQR1+eMsUWb8RK+sHHIecmPaP7lRtAv8RG2Y1s78a0/1HbGm+it2t73frTd88vvau3gV8Qz41mYODFSgCmPuMidMcztd7A+T8w1y05h8n1m9ZbP+sXW8SrgIJQMORU3BddyTbhFgYu5iyuRjl1dUFJbSEyKH6HHfMfZbef3nduOfslzpHbfv3+q7f27j7R9/3JtCs9FVK5pM2qhvc+Yklc6XM58E678qrvXLnFd0aSx1kR+BbW1j578Go5H/EsDYjy0DR+Gvqsa9Hf/UG3GQ+A4RiWaHHW6h00Bmd2x5dv9sd8IZ2u3vODn1WPnTkNOxeBgTB6axgRoEnO+NE+gurIRtLLBYSE+whLnIpduEIMzfBgUrYEnfh7YUM8KFEJSTa9YMRmWmGRMvRLjZMHFJxEEgcNBr2teUnj5ypWhHYN9NUaxiS9tFedYiZNG23m3sMguCizge4sxeIo2h1f+/juRMqi+CIHEazVxkYYvnN6dskVgFde7XSelhCQfTHBCLR4MhfR4+XkiNhqLoOfkkL7yi0p+vDR4JTtiWLZscan14ZUHHpwp0ZyJD46KJ4Qmf/QDnzwf2X1RvogojggFuRApVK54yUZ9hekhq0oM0XJ7Ac94x8+0nd/23Ar/hvb74xl6zyV/4k0LJchkfdQOtatr7ZuA6toQ6qL1uwbUgo3QB6p15FX1YKXvO6A5TEt795c9e7YU3/+X4qH7SF6MpnVRuJDY2//l88T8SF/82pnOmknquGOvW8JqckcQEptC0bw3RI524xmv185592wfO75uTAK98zHxP/UsXHZ2n7icw2S7OcecIIdGQDvp6l/VvF+ycF5X3obhpIjW5cga10ExK74gmD5P7M9AwyDKDGkwUSSS2be0ihWfh3FykaD345lB+JGtaDsvfMa7h7Y/GtDWeLgXmYsEiXjDvwkftvo8UnH85AKcgk9r2YSPR9D4jdwQrDiIspGvcqKOW17FBx/8+jwQeAEJ7i2H+Gaz/SE0Wr9qQDKMEwdT4Ze2QorjUfo8ES4WqIae1ZT22B1+uaOX9AJRsEUcAQSHncCixxTT6U87qKyN9ALRR6sdoD/5j97YHv+yM+14GNczbvzdw0Y9cNUN7bY3/IE3kR1AsORJifLrtKfPeqBlY30SqmehXrDcBKmt4olRlgW+sjqvkRwK54Cbw6AXEGmsAhIZhjkQU+1FnU5sj6R4xD+cxgtOndLqKQ4K5qWgkUW4GAzzOESkcXOv0HbrC9+yiENPFXOCb8rvVPC70OBoWAqPFv9lAo6JbS6YQOGzeyznmme9FlfH4Z85SNTnwtd2TPaIOf2Gt0Mztdzt6QTihEvZc6OZSCeJ0u8RdkZccGpivB3WFWN7iF1q6rw9YBwusbLYxPfPA2XIXzuaclwhJHfn6y7stsqvuBHVR3YK323iGLOB/9o+T7RG9BhfErWJkabrDEdlrZzUmXIWxyyNWtGInRtT4vUMtCMjmYRjjtfuK5sjHeJdsYVoqXCnbD5xMHU8URGmWyDitTgT6ArMsY5DROEZPyU+5jrmvDMmxKM75A33nkv+VIXRIQt6NPldAgUufV4TFfOLSH/pBxHfgdZCGJYp+rnVjioRxOGMH2mUUYVhKDKjerHgjzb7ak7J4YUGxjkG/GNZPDLyhtv5EaAFYJaOrl8WlumF5PvA+BvA+GIBtYiMUyEpvcK9Mrm+9abLKuTR6bW9UFHEoqSY098npvmzZ79ZulRnEKUrDBoH3jbji42wiqWf8U+tN9xhrOKAIw49rk8xpT0Y4tMY7zougB2ci+B2G+vZaHuuvHawPEqj+99/fTCl0KyedWDLZ1qttnJOWrtCFlp4qa611aku8HKtfX3hXuLHfIv0io0TGD/CID6+1eLdoufR8wY3zRCzG5/5iUsp//jpAZDCHKidjeHZn/lD0X3itJ/yrodKfCHpsHgBI46FmXUsBJ8WKS5NMspl0LnKNF/L3yf2pEFnvBVUTn56qTWiRZ8HOjXTaABzFzWtnQ7Bc9zyZAqZl+kUQ9fxUA+Gwg9LBIdWYvqpk5alnspUGpd4aywfsSyllrO0L5BFK4Wlzfhaj8T1HbVG/YWqDoQWKpYolE4gWXMntbB8oTntnT/XnvDtZ/WEhxvUSfxqcdzCt7zu9zI9Sbn10FWLZF5jF1SnWaZ5Wzgd+Rmx4n0vQWx4zKlDTApv1sFNLAoARBQjXSu/GcFHSPicTWFJAtDZ3GdCwqF7JMUT7cO4HHv+83oUqUd+zC5mSupxDIirpbt3oQsfAUu86lGI+uR5zAdn2gIPxHnCRi2U0X7sehvD73n7X7p7i+CKeGU0qEouT2sf3n2RvdiJTZz6nGOqM4DdkRkrX2tnfvodwksSgsOudYtULlSbv6YOFjcmFgJ/7wEQA1mO5Y+7SI/1nsSKwM3N07AJDwWFDH6Rxlx4+vxvDoAXHyNhEACsFyXTdCmxkNOkd/LLFkaSdh1kVJMj7DXPPOntHWHKP+LwPfu63+4hj/VA+eckLDSa1xUvpgTIUI6YY6tvOSlm2Dip1VjSMsaeslVvK3jHM8fHBvGwXm3CIS98jnMEYz61eSzbvn/75Ph7nUi0mr/+SkL2KADz8XkgykLkfCp8QLyQ2Z6hOsKMq5gaT6eqDhwJZzNxkcxdXi02bhSRxYU+Qcavtf/66d/v+ma++mNHNAIDt+hlkmUFP9u89kRaXritC0rHQk+LJSlH/zyQAJ8LsDHiH0GIwbdS3Bfe8k4zPYpX5ZUs5y/qkX9omgtubfgk2EHFEyTgOe30LMp8sNd49OE0nnpBR9gWeHjCPV6F63aSGMOcMMKwxT993/Ovn4DyUW33ve865RApiVYaUvWVrv4+cYpT8WJevVbPPL8Vmtx+nxceVUeejit8yVjgHarNkJTAr135pB/2B/BRZXZm4swCagP6GA7tJD3RCRA28ZCfe/PlhLb4ywfzTsTG29C5oAp8NUZ9vqKt26cYoLaDjBOV2p71Uf91w03nXiLqBe8Cz/oJ0cWxMvh0Vs4FPib9RYTjxUOxTqIY8sJu1I5oS8vOuSjHV8UTt3IaxDHw8sPBoPPXwALwDC++ET/wfqELj8BrO7Y3vot3laPbM/fq6VbhAtTjJg3k9I9yztVdBM/fKGHO/3MjVH3H4KWNnYtgm+LaE8MZeAiMJ6YwGV+d8gNewYvX7wbMu8Q7rV/xJSD5arzQ4mC5dAkqh/t571lqzqgFPmxk1/8TcVl8hBWUtwyEBOHXLRHjakXGDqkwBDo4egajFc+wjMIQyloEzYl2HXsuCVzdQmUqn/InARrR5fQxrmARZPYsnIslYmMYgo+vyuU1Spl8YsjF1PrjbYwBShZPQ6+BgrGAFB4Dx9mGw7+LLcEP/XniC/JZqOTfwMvYZFY2b0gWjDXySVQUYFE4zcNXG5OFqSIvbmGKpMBIUL1fsZQzbDjGuBK5N6bGex6DV2tnfuTXBz4Qb8BdtwGOxZRW1q1GEfsJxVbFpLADyog4vtf++YkXcu56Aipb1TWm5rlT0E4xVNT4jIYqsxWv5iQrFdH3v0ZAjdIXnnwYx2eK1z77daRJvAaHwUPgOEaVFz0Ui/mwKQAJarPPuiZ84Kgv+go/fRoTRhARUA97GEnIF16u1fxjnS2znaDaRWJrp8g6x80ne+GIyYwvDksbDIUfloiUfPD5I6e0DD2sQ2tMXeLmUi01zvkpGN+0pd3GeBsTjhTd38J0IaD83QsRU8WBy+8wiVwxTCh2OPkSHj+v4LI51ry2gSh+OJ/wque3Uy57E2a1ky97Y9v1ynOWeDwlQDoGl/MrgCAGgz/m5LJRjuGrwvd4oohN7QWb8Gv/dPwPTn8fmPszHdE6qmHqxxbabo9d8xj2wmMjaorrYzsKQ9+54o/Mn/krP9aeeMFLhF293PM3V7dbf+HP28aB+CPzw/x9YucsIZm/pvJb8sifznmtxYMWcuayhKGO/deaONkZAC7wdNzZBciz8hVTYh7Z54nk8L4ihjVU3pPe9D0q3sH7vtRu+7V3tXvjhQjJu15+VjvpLT/Qjnv1i9uDt9/Tvvhbf2sMq4qmE5X6Jpnsp5vke31KKOHT+vq6c/0EISzjGGvN3EXBqaKqFvo4ayyCbODm1m/r2RjjoJJF4mPYnzs9LgTHeDPeSOGIRUh8bz9hV3vyxa/Ufyj87I9f2u76y6vagTvubQ/esafdHeObXvM2+U686BVt24m7XDThuUABDwNNfcHEm/ep1Yx4jdMw9BA8Kr/A9x0nn0n7j3JlEDHkETAvHjtzcPTiYh7ftOw0HxyZJaKNj//hpNjN+J3nnNrWj9zR7n3/de2Baz7XeUQe+L3XfL7dd9X1ijn67JPD7E9YtHGVJrlRWRqMR9+sFUBpmsHE+X9hKX4q/jxnTKPvr8IKqCrIXfswEqdZHaHQVHqNV/HaSPDjg9jiWMUf8fQT5Pry526vkBIgoWTaf5N9RzyNWGe2hipYQv3xSOAlIPGD1iMj4ZGWuPC1aIfF82FCICie7usigCy+deKipzHHrZ45X5NPJ1KRwzd+Zs7nT/Fsga/CPe7Up0gF3PUNLeMjT30qw7b/87dv8mGXpuq3wCti0pzDxTqqHvjm/HX3YVOu9PcTuAjwxtUGklffhsaQox3/MkyE4E3M7WlPbYqFBCQJBt5xmO//+OfaoQMH2+PPP7Mdc/Yp4ioe8Ed/8ylt13nxd4QRs/fjn5d/VlAL60kygs6FZUNs3PqOsLPzaNFaZo4gcoxrFeOQv+1Hjjz9F0Ubx5XleNGyMItvB/qVx/ZlTMaCT4609I47YcbM4wra2Peg/oT28S89ox0X7wMP7tnbDnxxT1s/+sh2/Pe+sO3+9YvatqOOaP/9tve0+/W7EbTR3K/mGB6PZm3L/Kt45hSq+ME/hH5K8/e7LpjeBzp4fd0Hc04kgV1skE/848cy22u+xFPg4Ccp7+Gm1he3bVs79TcvbifE25Wt2t3v+VC7+ZLL27oe7kkWQiqP+APY+cJQmRSTAaWvCrUVnvzmKdFznon3CgooEZZcZEUw94x7csSluhmPcSE6MA/F2fHCdLJ2fPzUccKFL23HnHUyKduXrr253fVXH2x7/vGazqXFJYG7zNtp0Meknu8xJM8mv8w443toJa5W0vVjSwKipeGKYy/gvIoYgw5v9KbLoApIEFPaahLmHc+EmLwUYwmQOZyacypNhlnjijO+0BmnqIrzRBHK6YIVfku+BZ4MEjAVbKs8UtLrUrzxKgw4KKLjAaqwfFjKZ3r5lCh8PU6+xAcPMMlhkHEkIoUfzjAmXony1TkWjp1GIYitbxlrHpPCW6jSCGW8X8AK65zOvXEo39+JA4gEpK4Yozk1MPQ3ttQTjw3xVlTi/bAjGg6cInLfFzMTRwytL4QxQHq+YoK06uvVXX4lYGSMc2URZTPeAbr2N++2BUHmop+11kL9biAXk5xmGjYJDp2b8Vtx5ntYFjW3xOdf6WvJdmdlLdRqVcgwcFuoMCIzo+aBrHXVzopMlc24Bd42YnhLYf60HebvE7Xo0FEMng8Bls9WRkn1gytZXBjpj5OIxofGd485DPe6A8XP/Xo8OFH8JNJXzh4GOObzz3+4K0Rii3D6MSdNS3yCWEoup/MQ//X6PBHNVWTrsNq6M2ptsmr5xD/8zxP1OxGBxcQpi7saon56nELX3Lnuq+z8HZ//+VU6heijC+vNIrL5+VcCYe/wni+MypG3ddgVhJ8NY87OhzafodyasFlT+PHUnPhs3V/47O0OfKrR6QoOlr/l3yfCKR86+LVmXEazECWTHyfkbsJqRz23qPIOW4mVqM4zno1SF+EVl8gi6PauQ5tpvMRkyiW+WDhBqVu98zCsO6wWRByRSScC4orXcBezxs6SucKo/29aP1r5AQxjihBzCSohTldJoKpbvmwk05jQHGtYvE4BVM23c25eWMBujU/eIOWLxrXfjko84TMAs4bFG5PS2u3d5tzSkHkqVja9Gg98fqQ/DM7FWaPlQhilCJmnS2ruglbD+qZMGIa9AEnQnzs9zid/M97IWpSETYXpcHKEGONRlbgcDbwRmjvMBq4xr8NRRkJoKmb0+f9EqmA4+MyunjA8B2pMMf2TCOD+nAkSj+lNTAJuGCT7mTISFo6faGoRW+OTBVK4KFLxxXgV7+g5/yqe+dDNs57iojI+VyaFmjQxzkrN+gko/dUH0pESGIRzc+mWoojQtxY0orfG46fwS15Zw1RcjlrmwabaCX/4zxO3yr8oSs9WWtxbgzV2mY/g80TfwiBV9SSnODGcRdVzsorR/bFQbN6pGf/1/TyxNqH60j70Wts8n8fGccbZ2Cqoe/lYcNprjul/Aa75Kwsq53MZAAAAAElFTkSuQmCC;fontColor=#FFFFFF;" parent="cVnY-JXB5LHUISSboKDK-10" vertex="1">
          <mxGeometry x="399" y="370" width="80" height="80" as="geometry" />
        </mxCell>
        <mxCell id="j30cdUnKlF8bIS7Feb2P-5" value="" style="edgeStyle=orthogonalEdgeStyle;rounded=0;orthogonalLoop=1;jettySize=auto;html=1;fontSize=12;strokeColor=#FFFFFF;" edge="1" parent="cVnY-JXB5LHUISSboKDK-10" source="j30cdUnKlF8bIS7Feb2P-4" target="cVnY-JXB5LHUISSboKDK-43">
          <mxGeometry x="0.1889" relative="1" as="geometry">
            <mxPoint x="480" y="289.5" as="sourcePoint" />
            <mxPoint x="580" y="289.5" as="targetPoint" />
            <mxPoint as="offset" />
          </mxGeometry>
        </mxCell>
        <mxCell id="j30cdUnKlF8bIS7Feb2P-6" value="compute target?" style="rhombus;whiteSpace=wrap;html=1;fillColor=#1ba1e2;strokeColor=#006EAF;fontColor=#ffffff;gradientColor=default;" vertex="1" parent="cVnY-JXB5LHUISSboKDK-10">
          <mxGeometry x="579" y="370" width="80" height="80" as="geometry" />
        </mxCell>
        <mxCell id="j30cdUnKlF8bIS7Feb2P-7" value="Lambda" style="shape=image;verticalLabelPosition=bottom;labelBackgroundColor=none;verticalAlign=top;aspect=fixed;imageAspect=0;image=data:image/png,iVBORw0KGgoAAAANSUhEUgAAAFAAAABQCAYAAACOEfKtAAAAAXNSR0IArs4c6QAAIJhJREFUeAGtXHm0XVV53/fNeVMmZXSJgiJCFioiCE1CCKiharXUJdXWAUdEVJzaP/pHV/9pq8t5qi6XrrZYrV1tbdVqRJAhQUSDEoeAgIDKIAZI8ub38ob+hu/b51yS1Vbtfrln7/0Nv+/3fXufc88990Ln3nePr5ROKWUFHXu81GMoebGa06qDbR3THqoV2nGA1t3DNlri05rjjkCopA1lRspewNAYzzgcO5a8FbwjSdpl3+AZJ+eOJ0xx4JzNnLpjtuQc0p7xo1bk2SdaFNBAR9CzEDNSc1NATJK8RpjTTzYysC0DtBtVDEZf/tNYJo2di0Yv2IW/sWkDJkGAKo3RrxCXvd1kx1kTXhpxbMf02Dnbl2NGQ5OATFlQcrHYMYltueOslB5buFBUrizbgaTZEjhw4Ae5o6rPAJStLDtA+hrJJGwXJK0QTMrZ+0XwtGN0x0u7xFQvn7CPse2oJQZeUYRuufWKxyHsiKL8q6HjqnChq5h0iTr0aB3gTaIEYUwBi5BBLbRcvqEjuZxrQGfiJLO0CxkL7ELDDEMvjjEUHzL7S115UCo/JWf8miexqQ8uHFqgkRZVRaRYhuw9yMUxF7oF/7CllW0zT/vRXSPExA6kkV9JnqErOAnamuLa6mrFSgSnAEJArny1DrwgSHETk+Nm5yaOi2sAh3dyAkXMQ/0JChvmIrcWbwjaeJw1MRnfL7qpYMCp+Ucs+jQvGtqnh071XI9AAqQN5tkckDITMyGMidS1E5kE0dPf9tx82YSbO4buTCiUGoevkiFxznV50BDTvA4lF6RBG2IQlwPOJXC/HLu/kUdBYJMxqXMtlJX9a25eZKUmXPoX7ECSp5Rx0TloykxQhGigl/wkamwpM2BbZmKKZm0Lv0mkO6aL1i0ztvFN1LyywOnTYEKPP3qYD7xywTKHFpdkSFvZw7bmkYWXX3KAHf9g35Mri7ladLRoXnA2IAPYsatgsKU+baiTe8Xo9nekiJd+adsmSpnmjstTVHwrAHFl1MT31PNql9w6pe7EFq4gWn419+rfzd/2KCZ8tANNktW10O/ErjZxSbJuc9pwhXRO2j7j0Iag0gUh6jyEjwwDVxOP7c+xbVyUmMOOhHVq2dB2BtNYvMXLBkqQ8+QTtm15O4a8REUHxTOSYys+uQkneXES94G+l3IUEuVuz5U1OJ2DBf1ZPBk5jDRx0KkiHs1O5ZRbnk2FAJZlElWZ9C0bxbBJkM+47KEwZHTGrD6IEWqYNvwzt7ogCUVjFOLQ/JVMk38GJhCa3oU1wulBViyUioWpCUAGjcZwYh2Dqm3lbDD7Q29ja1KlNAI09G07GUeclHvRImbLR0NxTY70ZqAWf4pgmGdFHVMuW6h1FjVz+zf8zcNz5cz8Ye74lPNGWkEJYkGdtyybRHJXGZS2Wt04nTMgKygfYOS7tvHbMZJGW0YSnLsnfp2LX9i2bi28u4geOvporM4JC5DJP4q/dpGLXvOWb5IgBvUUEj9jeExdH03YHMPBRdxiyOltubd9ztk3QFxN72rYdnrK+kuvLf3HPkM2v8theW5/mbzigrL84G6xcNQIHGcEFaRJfqoYBZJBmHKS0FlmBB5hEgf607Al4BDN+XtMtbwTB/F62gWyg52Il855vViOYqaPbQzu6F7NzuiR/y/FI3LP0JoyvOUvVSDHJy9qvDPERQlBJM7suNM4oR1byzbGeWrXN0NVD3bYCOmaeeYu14mm3Q9gLd4KHiYweJS2WQCNFFikkglXWA09yeUUQwcjbiNcmnig7H3PidSGvOkTpktHYbgTpjO8vqy9/LbS/+RtpfeIDWXp1z8Kg1oZwfCgotJHEpUnJ+JmWgEOqwYBMk10lYM3bSCgjE4a4qAxewZIH36UY6MxQdmzoOi1Cjjwr9FBHg8bWDDb27Y5fTwnIptshE1QzgOvKhmPMqnVc0S75emHytzNn5FsaOO70ZNj+AuLKvPOHZVzmpljY0/rCGUcqtjUR/4xp8gYFGTctj/H8SbSnZgD2o3JtYAtjCKSMvTxyntHBu3gGtjVxAY41RYCyjR33ySWcqBj1ee+/ZGysnSwDDz1wtKz5nj5uIj0zvhOhhLqLG9wOGLLGHkpcnxipC5zZd6Jr6Fs0j5xuCv1OEu5iAyRTIJGlMs4wCTLHRg62/DI1iZjiXxSjV7J83RAS2z18qXcSaTf0sR9ZX735/C+1FuGNr4rikCb5BlnQvKXf/vs6NYTVwUmF5EIHhwHRsYmV46zmJZTYI6U43EWW5OQV9dznc4YCkOGIac95ganAoA4KmB9nigBNPaRO0R5iVDMxJAcKl3AjUeRW6fM7PwAsJfL4KkvLz1jx6Sii5eTM4fMh30tlgi0+BNF8SNejJWTItAWLyx2Yksc+VBHOXYgjIjRUshQMhKyG7ssrntis3D2J9GECRfDCMA2FQsGFkMuXHU4cE5iNKDCdsuP3FUWfvLvpdM7UIbOepsvIdB5cYyh+PSRf7iHP6XGooHxk4vm1MdZwaET0UiLqiJSLHz2HjCmLlYUWNhOlIECDH2brEkEEHS0M2b4OHYcU+ZEU1VjxgLan/EYFLZanLQuZXbn+zUZOu01pbNqXSumeST/xDFf+xPRBXJ+vkwl5/SHTXKRW4s3ANp4nCV/3AcKHc4ByJWQjHN6whgmuvBygFeSJZC8aRM6BSKRRzUHpK9tc0GwdIpB84YLgzRzyg8+8MOycPv20hkYKUNnvrn6yJ0JRTzi0t4vSp1P1/0drH27lVywj+hDjMw/MCgiVn2KU+XMMXcgrRQodmIURGR4TUPSTjjsaEsxkTF2oR1IotDbhoYcOSBHbBSlbfaShy1lLoYE8p7Z8T6alKEzLimlfzT82zh5JnXLumOzoFlkYgd/AmOaXLiwZOw5rFhYtejD1jswJoSr25gye+iYxWp2YhCJO/c0bvsougQmLHgwSpKe48hY8VIwJkWxDhzYf/EXN5aFe3aWnlVry9Dpr5dp9Utbpd0k6eIRiwGAQ74OgiNxPevCYUiaVzvPaV93ouKU/CyMgP4nF++oJOGAesMgYqwEbTwMuwwGed5s9645thz73onUHLafv/Oasu+zfyCddjn9yZ6wSUFDFnWlcBcOPGFjWfXsy8rcTR8vZWk+cG2spMUt5sSiP88q9p4pxiH8+VwPTS6RJyfyg6OhGlxiNl8q5U4iAp3pCE9D2lmJUWYk6aQPmeVYpakHy8J9u4n0v7bBJ51bBk5+oWMJF7GDvOJj1zAQsTk/eOdVuB7egtuZo8rg018pGcuSetrmqY9hbYLWwblJQQO8KBZ3OUDPMqdchsS3HaeZJ807t79p3UoW2z3E8CcMW5cshUD3ivo6kf52ip0Ztup0sI+YBe7IWa8vq1/0/rJw783l4U9sqTEVv/qIhg4ZZ+DkF5XVf/xPZWnfPWXfR0/Fc9Al6JkOGvz+p5i2CS6sCu3lkL1xumX0Cp/YpdSzkHEbI9ha2ay+3Wgof/UaI2r2ZOCxAes8fIQhg9YuIRz009+7oixN7S0Dj3tmGXjSeRWHg9wR+a5tHMdYuPXLZfGhO0rv2ieUwQ0vtW3yAK7CMT6rk/OIadzkzL2aY2PLJ2yJQJhmx/kskJwKVFEFrAIGrA3AGIuMZNSFPki1rW2XkrQNcnEa6hpXsTBYnCvTOz4qyeiWd6p3DPtjzYN8qNRBh2AzO3xfuGrjOzDPImTcsBdPZsHmYjU5WJ75Vf4Uk69iY6hPVpyjRR51UWCLb+Wsy2NzvwStY0Blgu3V8xaGiSJHAMagGw7ZEzcv4PkhPn1oM3XjZ8ry3IEyePym0v/4M1u+beyMTzTL53f/c1k6cG/pO+LkMnDSC6wInWObC7nnLnP8Rl45qmB0tg7sxeOw+UcttBlg7x0YK0hABlTQWIUEpcYro1EUiAGRHFU6WGcMjoElbCgrdsptuzI/WaZv+JQmo+e+yz5WKXEOs+AWm9/K0iI+I39IolWb3t2Kb71ix4XMedm74ZZz9ypmFcVulT8XT+ShJTZb5IwRCmiDrCjVCZY7yTbUNMkIM3GjOJaxaIEBAf+qP+Wx4ys2ZFM7P1GWF2bK0EnbSt9RG2oxxIPuwdG4gQfp7M1/j2eGe0v/404v/U/coki0JgHht+4sXIQsBntzTG5N/o3OHCOeeKQPewLkDkyCDB2GZpOrKVZBELcpMoIuVoiKSlBWXimTMiEj4Mj6xnVFegiWZ/aVme98VibchTzlZRg7SJDa6ZbzMiPZwbkycyPuBdGGN/OBa/K3nXFCxjNKuWURGSHiyI9K6ywnWqPnLGtT84den0SsSGMHkiwKk8UhAcpdGI4twBGN/mhxykrFKZXhI1nuwNBJDcXkjo+VlcWFMrThxaVn3QmBbX9hwN7xCeZYlM/e9GlcQyfKwPFbSt+xp8OovYMiPqXwcSxMZONiMQfjB3/pQgaHR+tpW/MHUjxMSKLe+jTJplUUECUpj55yGXpO8Fpsyrnq+EebJDl+/rvKMX91V+k/8qmWSdHBG8L9Zebmz+PBaU8Z2/J2eBgzd4PjBKYmBl6ePVBmv/tpKLALdS2k0r4SYmxenLXl3bzSpos/7GuxMqZAAweyehvDReVtA4Oo6hjRR6dbXXGTS70ItU4NYQsjnNkpsLE6w2vL+HnvLL0j68v48/4idoUCi+jEtR9CvKWy6rSXlZ7xYyNxxySZipXj4DVzw8fLCk7ngZOeX3ofe7L4m3z6RE5x6isnYHhxXAyOjR8FD+4Z0/HNRflziBZvIhFIxGyUladRBcnihCzlBrRfk2gQohgv4o2fc1npGRgmZFm14QX4pu0p0hGHr6WH7y6zu/8ND077y+g5b5POC0oPJ8oRW42JBVye+rXeUHi2jGzm/SRsMWbobE2xjJMxqa9Y8MucbG9v4Wix4MuJLlP0YwFxoHF1xBdCCW6ZnbhqbXkG6LIhOAOxRyOxTGRlYLSM/d7rJJ+769vafePn+8Kv6xN98Jq85oPyGznjVfpaUw6B5fjmmgXBRUcxpnd+GF8+LeKTyUtKz+rHCyu5sefmyya5CkLgyD+UWQvHolPm7+siJYypSxt0OoXbgZS0ceWcc+I0zUnYTxxkywrXoiUxvmlgxcY3vQGPoVaXuTt2lIc+93q9YQw/7cLS95h4wyBP+Bx8YE+Z2/P10ulfVUY3XSYZk1QiLRJKJOT0W95/b5nb/UXs3r4ysukd8nMxZGRPDM05imJVlZF75pt2njP5LAB9M398FqahcHjgWBMHIO0kbjn0sRNTJ3n4yRXgiaM5EfqHcPq+SS77v/k+PAS4D5+Dv+A3jK3vdMwwZjd5jT+mjZz1utIZHCdC8CI/74RMqB1/6np++bRShk57RemMHtHgRsIkkAXimI3+iXHIQomTCyc/4vDe0q44tj4LSxbbuglC4iacWzt9FTQnXB348o/N/hzjhWijZ7269I4+psz//GbswOslP3A1TlWcciPPvAgPBY6zbdjP37MLdtdqx46c/QbhNfEdS/eCYQ9nteW9t5f5PV8unb7BMnz2W1McCSMXSZIjJx7bkGPbtPlngXWZsaHtoordT6QldCHsSEEGxDj0wcRwFPPFlZGeLvDBRPKevrJ662Wy3X8lHsnLfqUsPnxPmf7Bv+qUG996OWxpTwDEh//E1d6FoxsvxQ4eti7xdUFjjErBseA/fV08ZDjjtaUMroHcdsanPTcFOrzYayxZ8IfMi4W54XW0DyXOzcJ6GwNhtG5QCy2jTayQxBjzdCZgzJNckiKDsTNfXvrwZHrh/j1l9ifbw5Zdpxz45vuBsVxGz/iT0jvO73uZnAs5/7Pry/wvdmnnDp/5KieDwopLxJStEBsOB+/9QZm/4+rSMzhWhs+6RGspE/jwT0CqjLEYs92oSv65oIrZ8tEQfpTHbQxFCegYwfgQeQMKn4jtgAxsHPp62FPWnOdTaf83+e7aJoc3jF/fWWZ2/6dOubFz31r95Qvbiav8JdLoZmDgO2EVjCHQZAMC2i2xIy3Dc8Zr7Td81pvKSt9I2NonObpPLIJG/slRcVzwxGUvv3pN5TUwDCtgbHlB00HkOANV2qY+xzI0uVpRyXBP9owXl/4jTigH995dpr//JWFIRVy8WH/tQkxGn/3q0jP6WKmtwe9i9mwvC3hX5g4exs21dpAsml3j5JB8i+fC3TvLwi9uKj34ddeq0y8OzOzsS/rCizwSpysH8aQBG63pG7HtEB/lZAOFKutzn/pcLTpynBwzGGW6q1cAH/JaSJQ1z+VHslL2X4V7NJyqwovVi8skTu0fl9kffw032KvK+Bbftgg34k/GtXDs3MvLciQgHHHKhWMUJ5e+U9d4F45szN3b2NImc3Iu9HdLf8qtc+E4PtzzRP02BrowJkhUmD2zREsgTaqes7CNojR22H2nbCuDx55SFvffXya+8wW7cvdGo61fncJbGzbeaPcMr8Eo7fC7mFu+hMf3+OyM+8XhUy+UnfQk3WpOnEL7zv90ezn4q5+U3tXHlKGnv7zKrffpyjIqd/YehB0x8OrKHyK15OaZbqR9GmehoABYeyVoyjlBm75bpu1NEzSart3m3bfvqo/hM9qiZNYlDg0pKTjdbimzt/LCj08rm3C/CLmLi32ML4wmrvmw7Ma24gaZN+ZoyS9t9ckg8LIYU3EtHNn8dpghceHSyIUzKcrtGO5ENz5OuVBpfmj+8SZiBWklFqvsrSsZD0GgAQlZ6FxY+686cVMZeuKz8IXRw2Vi5z/KggcTPPzzxH3feK/sxja/MW6ezYCXlanvfb4s4mnNwDEbytDJ26KIyc9cXVjvpPyYNfcj7N6H7yp960/AY7ILXUQWj9cikaEvm/04csEi//YO5NkTPpkrGcT3wk5NRQqQXOFcTQWRjrbdAdtBqVu3DV/0oO3/1if1pNkBTYC2uVslh4CI83d/t8zesbP0rlqDNxR/30u5sBcP4tOJv3waP4+P/Z0Ldbbhkc0FkZwHXHenrvugNCPnwI/2lHcVhrL0deHsb7l1dEHOMEtbf1sYH+UUOMDTIcmwl6wqTDLlKWZPcoPHnVaGT9pclmYnyoFrP63AJp4kWz19OI3ElyZ+pVnPqnH1esd33cvUd/5BO3rwuGeVwRM2y1GxdcjksBhxiifm7Pc/X/hb7f6jN5TBpzwPfgHImOLsUBrrlCWjzJE6568wXXJz1zWwJgFw/tkYvgpgQMpSrh5z7STGQOOi8jqz7oJ4573uM2VpbtIJ1RVPLO86EY2E+tYdh9ueP9THu8kbrzA74GZMfmcyuePvFIvPFNm8K1wI8ZbQPsmXT7nzq9ORLbF7M5fKS3BE1MtnBoZpp5pwcSjAPy4SesasbyJJVM7QUw0b9TpGsFxB2tmnWaGBY55aRk7dhtN2thz4Fr5pM0AtggkKVLJ2zNW44ebPeKd2/UtZ3Hev4kpPjCA7scOP74dO3IIvkp4JDCj4L17ijDGbFlfjTpnG9y3LM4+UgeOejS+fNkpv/nT0AiQXk4UM+QZUgwfUzCFjxiN9KsTFBvQkdiCwb36VFHa1oCZLm/XbLteuOLDzirI48VD4B0GsWgZln7uX496xI8soPvIxqQNXfyQC0J6GToT3YCt4fD95g3+1P35+PDglY9rANAvNsaY8UHxwpkzd8EmNR8/x0x/HJzaMIhdhsEgBkHP23HzZJA8f/JdKDq53Lmhol4Tc48QEZk2YKAFmW8frP+L4Mnb6i/WL+keuxBdExBG2/TFstUiYNpCPb7209OCR1/QtXykLv/ppxOcFAXYoPHmYL758uu4TuNW5pKw65fdL35EnlcUHb4tCm4eCwJjFr/whnP72pwo/Eg6eeH45+m8mW1w85H3j/iteotodPn/YISmnziJ7jB3IEU9HvhpcDpt5JEzTuhSuCG1ou37bW3QKHrjxizgFH7BQcLRrCsaCtHE7Q+Nl9caLZbnvyg9AGeQCVwocxBM4i5N7y9RNV6g447ovDN4kQTt3HnAigb86nbr6PeDPHyId2gafgtuj6gy+MNFcgxb/xkgg2oEJFyWxoyciwH2pVRFsWAGIMhr0rT26rD7rIpBbLg9v/4iS9Y5hYF5xuYM45q5yIw/arN6CJ9VDY2XmtmvKwi93S6liGUBZMIfcFXSa+NZHy9jZF5fhZ/xROfD1v8aC3WNQHgFs7OAZMvpPXvfhMnU9bspFG1x6MIBx7kjuePuTHBz5QlN8TFiHFGYM3wfSCDoR5w4QkB3pwjl1tGFzT5nH65/7ZjxRGSgTu/4DT1juhnXq6GAWxqY35oHDx/ZrtryRwrJvu5/WaMLiRbwwjVgMiN8k7ftlmd6Fx/d40xk773LJzI/WuViCkC75Z1xf0BoeiomDOJJfLJ7zs12Tv3MjFvVd/52IAkFTgWDgVSF6axwRadc7ur6s2fQKSR7+Gh4aBLCwMGarRIBGkcX4nuTsV8p/7u5duIm+AZosPL1MvManJBKj9sDVfkAx+qyX4VniUQCFvfyDv90tw1Ex4S8uxKYMk6Co+SHxIW1CkkmAGkxY2MQENYz6eg1KWepbyUFlF9z3PecSfIYdLpO7ryxz9+4REXnqkEmZH0WOBaxOb1nzHPzaHu0R7D621DGroKQENQ5ZxtWzxB/68f3Ylrd0+ad9Vidx2ds/8aMo8k6ZiJiLYjpvmtC3jUVZ1yN9roBbJt4ULxRVT7BefGJYt/U1kj30VbwBsMUCeIxp602n/Txx/MyLSv/aY8v8/beV6R9tj8QyPr0Rm3A8qJmThkrEzxI553cuHfzw/NH8hSEQ+KLXDhJAE6fBlyIwHItXbBcsdeztS1ji+V04hBlQTgrMA5tXwcEMSue1Wy8uvcPjZfrWnWX2ru+reFpleNA2V4u2HGctSWzd894q5Nx9mtAPRvJlxhm+xqfMXHhqLdz34zKz50qcASNlbLO/9cu42RNXb0Do80dBycs2tMhmnilPu+78nVfmhE8iUdGaMMEApC5WgohhR7HGeAC6/jl+A9j71dYbQLWDb1xA5N6Sj532wjJw5JPKwYd+XiZ34Ul1FKWxAz3uZPqIl4LKLkaxQHhgwVsftDF879zBl/du9GWjv4sSCVkcuDGpXVMwi1gktm45ZV5EbgR/FgbJNJZSXnCs92xBQmBU4nnf5j8tfeOPKTPYedN7dkjmAmCopGMnsfYUxSKwX4dPLGyPXIknLPGkWvGrrSDkk0VN7AaHoHyKc1OZu/MGnAl4isNfPrDwio8OTvzLhCXnXRWadFTxlS3GioUxe8dtFqHGpw+UXTswA9Vi5lsQgQXm6uNjQ3nsBZcq7N6v8FeiXhEKMiBliUN3zokxcsp5Zejxp+L53oPlwA1fkMb+trI/xJpGvLBKnDwVvcPxRPtKf5W5egs44XZKsXRkzIabYChSEZMfY2Szrd/tIe/KHzrmgFc+VOBYbyKVdOA0q5PXI/o5EHVrNr609K87Bu+6t5bJH3wDRXNqBGTjNDGkimKwW3/B22TzyFWfxM875sOWIpNTL3+IKg49oQ+5FiZ0BJj96TVl/pe34DP1EfhMzWeJDe+MTx+OXTxBec7QtXXzz3jCoE3GrLUAq10XHYX/ToSOri+/esv7rVwAecLE85Vy4t/uLEPHPLmG/U0HSzMHys/+/GlleX5KrhmnU/8bjODDTkMwh1HGT74Nrw6+L3l+OfK1eAz2O7T7/mxc3vkf3CevGiewJQ9ePoXJjytkd6+Mqg1XlR/WnHPr45Tgk5bftvHnHHu//F78qnRaMROHpOopgpjkohdjRibJRTtMjnQyt5kf/leZvf36hPuN+7lbcSbRi3DMtb4odQyVArPUaVF3vfRommIMI/zzuHLWXIZUyU4DjOjTtssx4CQnGINb7gKxRCk/NKaMhdvsNgMkdvYuMJFc21ZMZqf4RkvOzC85N3HSJnAImHklT8maOI5HK+evd+EEh0wJZoVdcSBAnquOoVbAp5GvK2Ks0CRge/twbvv/y/NE2vJ/WHHY+NiJbbkXwrKMKb5eKUKJMytMznrjEfmQq0CujvIPnc5EjDXlIZrypzzelBxftzFNEezEY8rokBBZGAd1Mm1b621v/yRDhAwoOB7wSuy2j09TqeWVc+VLIDXjV/+QEVD2LBrwFT8uO45PQ/LPHEiEtjKWjzFTZhxVs+VHFHrSVp9E5JSSAKeRrdw7EQPTNIlIDgD2wpGuCeBpQ6T90Y46+ghP8T0XtoPAwgkndnNvSu8WbsVpFrJCKA5n8ZUqh7p2wj8++ZhEcIG6nXuNQ3HN04uA88UE20R9nxPEA0urSeCaUNJr/HOVM1mZw0xFjlOp298kZCdoz2UvYSwYMBQ/Q0LXFYOcgN/Ep2HwUnyBh4/l7RjVlj60566Vv6bi38R3LG8E/f8DfWFPQPAAFxAnhg4G40VTjfEre028BuGgJMJGawNzB7c/8elerzvSN6Eotzvt+eKMPvZnoQwgsUykEShxIQ8bZsbGo90jV+DKRFroAZD5Kb5CRDwBeCFlTjB+qA+A+knEYWiYwcRNhgQ3XOqJYtCUC5wy/oktWdDKfdfYxmHHCfHcmviORallEZNzmULPN5bqG3ooFT7i1vjwYXGaFvgGg1P6B39Maxw4aQx/cYmYzFPvwt6yDEyzFjCneCUh6j1uZO3dJX9dWxKLPfEaXA1bmI7X6JkgZ8EYg+ATogYLVlGPhpNxGs6Gace0bWJm0RiQXFs8OOSLXZUfmr8e6cuodd6bmdllQNr45OKoadIjUNsu/dvFazw4cgLN7sgiQxULIHvi5jMwRldSsTVyLMNHx6cQmDial+fmRaHlUX8qD8s/eSanJv/G0w9UESwbA7LifllKLeX5IT5JpW0lFoXRinWxd8Hs52KRTI1BW3KI3ZquwoE8bbOWbZw8e8wUEPGuigwwSWnGp8xjXcI4Fdjh8k8dmPHUBVSTP2fG6f59IOVqBMwXgUIsWYwfJaONyVDvgLrQKhCNG5Kpp7S+OFBLO/RxzcqCdes5C9soSmOHknMnUw/cyl8yo5gvdeYqm8NxEDZBWvEClxLfxlAZF8h20LpD4JABTKYVFK6UcZe4RfEYkxf5CJzF9Tzk0hHAnqlz0r7epCx3StMTg47k5nfXNg41lNs/+IfMPpzgxaY+bFhkzOknfylTB5kudaGDzX8DyzrZzCUqNMsAAAAASUVORK5CYII=;fontColor=#FFFFFF;" vertex="1" parent="cVnY-JXB5LHUISSboKDK-10">
          <mxGeometry x="760" y="300" width="80" height="80" as="geometry" />
        </mxCell>
        <mxCell id="j30cdUnKlF8bIS7Feb2P-12" style="edgeStyle=orthogonalEdgeStyle;rounded=0;orthogonalLoop=1;jettySize=auto;html=1;strokeColor=#FFFFFF;" edge="1" parent="cVnY-JXB5LHUISSboKDK-10" source="cVnY-JXB5LHUISSboKDK-23" target="j30cdUnKlF8bIS7Feb2P-1">
          <mxGeometry relative="1" as="geometry">
            <mxPoint x="659" y="99.5" as="sourcePoint" />
            <mxPoint x="759" y="99.5" as="targetPoint" />
          </mxGeometry>
        </mxCell>
        <mxCell id="j30cdUnKlF8bIS7Feb2P-13" value="" style="edgeStyle=orthogonalEdgeStyle;rounded=0;orthogonalLoop=1;jettySize=auto;html=1;fontSize=12;entryX=0;entryY=0.5;entryDx=0;entryDy=0;strokeColor=#FFFFFF;" edge="1" parent="cVnY-JXB5LHUISSboKDK-10" source="cVnY-JXB5LHUISSboKDK-43" target="j30cdUnKlF8bIS7Feb2P-6">
          <mxGeometry x="0.1889" relative="1" as="geometry">
            <mxPoint x="479" y="289.5" as="sourcePoint" />
            <mxPoint x="580" y="290" as="targetPoint" />
            <mxPoint as="offset" />
          </mxGeometry>
        </mxCell>
        <mxCell id="j30cdUnKlF8bIS7Feb2P-15" value="" style="endArrow=classic;html=1;rounded=0;edgeStyle=orthogonalEdgeStyle;exitX=0.5;exitY=0;exitDx=0;exitDy=0;entryX=0;entryY=0.5;entryDx=0;entryDy=0;strokeColor=#FFFFFF;" edge="1" parent="cVnY-JXB5LHUISSboKDK-10" source="j30cdUnKlF8bIS7Feb2P-6" target="j30cdUnKlF8bIS7Feb2P-7">
          <mxGeometry width="50" height="50" relative="1" as="geometry">
            <mxPoint x="539" y="330" as="sourcePoint" />
            <mxPoint x="589" y="280" as="targetPoint" />
          </mxGeometry>
        </mxCell>
        <mxCell id="j30cdUnKlF8bIS7Feb2P-17" value="" style="endArrow=classic;html=1;rounded=0;edgeStyle=orthogonalEdgeStyle;exitX=1;exitY=0.5;exitDx=0;exitDy=0;entryX=0.5;entryY=0;entryDx=0;entryDy=0;strokeColor=#FFFFFF;" edge="1" parent="cVnY-JXB5LHUISSboKDK-10" source="j30cdUnKlF8bIS7Feb2P-1" target="cVnY-JXB5LHUISSboKDK-35">
          <mxGeometry width="50" height="50" relative="1" as="geometry">
            <mxPoint x="529" y="270" as="sourcePoint" />
            <mxPoint x="579" y="220" as="targetPoint" />
            <Array as="points">
              <mxPoint x="919" y="100" />
              <mxPoint x="919" y="250" />
              <mxPoint x="70" y="250" />
            </Array>
          </mxGeometry>
        </mxCell>
        <mxCell id="j30cdUnKlF8bIS7Feb2P-18" value="ECS" style="shape=image;verticalLabelPosition=bottom;labelBackgroundColor=none;verticalAlign=top;aspect=fixed;imageAspect=0;image=data:image/png,iVBORw0KGgoAAAANSUhEUgAAAFAAAABQCAIAAAABc2X6AAAAAXNSR0IArs4c6QAAAERlWElmTU0AKgAAAAgAAYdpAAQAAAABAAAAGgAAAAAAA6ABAAMAAAABAAEAAKACAAQAAAABAAAAUKADAAQAAAABAAAAUAAAAAAx4ExPAAAeyklEQVR4Aa1beZxU1ZmtV2tv1XQ33U2LohAQBXFX4m5ERQUixiUu6CT5xSWbgybRKGPUjGt0EjTRmNGoicZxkomMghEQEwSDRoMdkBAX4oKICjS9b7XnnPPd+6oa/Wd+v3lW33fvd893vvN9975X9aow+OCq+kgQiZRKAdogwhYH25J1nbFUch1gMIdZTVe0JXmKwdyJFBpw4ulnLSkQRDDriFAGeiCYU2KYCi9jgJMEGD3J3NDYaDALx6QqKUHwxCkTAyIoiKEAjQQ8W1RoobOb5clNEGAO7AkMmOCIERiVn1IE0MoqEtAA5WkpygUWP/kq6J0tpFWHsjVBwQzEAQJQreIwACUyW2MrRQlQejQX6aVIrAt6ZOCJamgHmZnQKdLDwAIxhmYVWyZMm8WmKvCIH7IZXi0ZxKmOfBWXckJ+s7AlLQNxeajGOZBZGXo25WJZRLlTtVvpia5Eqw0Dk9LsoLE+TWRBSMWUlw1RCNYFtROtYIBSnAAwezYY6MhAFEsADm0uBeLIGVlf5ixfmo1O4hXIGgcQDI2pJQXgPAUBVjgMb5ooziYdJ3A6pAlozjpxPKn2HkNf9wpp0eEBu3kJQwdTQDx6Jc4awMEtEIHmSFjoK6PRjggEHmI8Icndi/HAHyWf7XhbZ1hVDwZiBwdahrRkOF9eZ1DTgEYKIlgGO2ixVTJaWcFAOF+cpiOvC0WkUtsymNAykNKkGz/borZPGNFIjBZGJUJq0bvlZQYKSnCECUMERYVWDVVUqrcKUa8jCuvt6uJqQS+jDNldx+QyimEMqH5IjvDkMaPBwqxgBk5eTIlSJL0CQIvccWaHQyvNCP0kjlqNmY1ScicmJzezA6khMZpCK4sw3miihZEbepoyFyMMtVqHvEgV6ywwhapLswI5BjdrQQO3zkqb0iqQjOK5xEZPj+F+4QqXXwjDGzWrSEe+XbmCsXLcr9pjJEGPfV9IWhRItxxj4NgWxDp2RxGJXxBuQrrisEDsuJdclb4sVgKqchglamCLQwfN4swOXmX9rpR6H0ZM/gcvHsCFGly9qQHZ2hVliRGiq86imDenHI+KpYFojZPquOVERVWmz5ipzhwUntuYEQWSxdS7SOS3YpkfzAEtFfrpa3ExR2qx8fYgUpgohQi3iloQzFEi4eYvOPvCm2IOTZvO8pcwlc7AdIDNLIyiJfVDU2GBiMSsANKDEcM7WnYcQPvL93chpJPJVl0km/nbTYtOoQjpqrRoxmvlJtHella5idju5C4M57SSpBnBzBkGp3pjoDf/mC3sfhM6L7mjkSgiuB2FlDvLbIHM3ahIJDvdyC0HNXgf1mEDdUnh0ZRVWVEADKmcMfLgivQ8CSXSFyclE9/rmFGXvlj/1ZUEOBFB+pKX019ZFRs7XUYKFb+LYr4mJry5gE12YejBw9XA65GLm4NEIeQVwTWsi4ESXDB0gMH1gGpbOXW12DVj6ZKDfz4Mu7x6vAVdozVAtK6lduYtVQfNA4CYaCpSyAAfrR4dH3MALOmvPJ9tf3D4+etLw92kAjkjS5M6PqAtZlkPw0BYlPM4uAzo4iW1OlOx0QEGcBRTMNGMFw9zhmSx0xhaNK9GgTBnU2SEGUZvwZB7DFqqpl/SePk6ZFvKZwQQoasOuUrFQqRYSB16SfprryUPuJAm6XFytMl1h7BsMen0AKCXAjGYj05PrqfTw6GzUBD7QhCv3SJfNiaannqoUJIEY053Q7nSixa8hEfPRYrtfmjjpavTc+6KVjdkNz3bee9hkXxG0fCU4nOH93BXz/3Tc5tfiNa21Hz+gbqLnguap7KCjtDIGdzpgQunFEWdECkrRyP0lPF00fuwl0ixqp/isXLuQHS9P2sltXoaAqCdDLOqzlDYL0FQ3VT3+buaLl2Z2P3gQs8HPf89r/vRLxQ73wnp/P53hmLHm32PzBx46uLiwPb4nsekL345NePWSKIO+hQRMAY1tKnSRxUz0i6jCWalzMvLJ8zloocH64tO2xhjKucfPTm0FZZRU0blIrH2+E8vxK4++MLmK9prpn81UioMrF648+5DMhuf2kVxCK7IIci89l+99x6QWXt/BBfCEVemL1sX3+cLIAdY/OoobViYEsPalNGEeriS5uX0c6CcSxF+AaB6GJ3de8BkSNJp9YQSRAW0WwoD6ppgJDjE26aOOuOu5F5HYJh954XeJd8ubH+dE5hnOUBSefDesctRzPQMLJ2fWf9IzWl3x8ceWnvW47m3nx1efkWp511lY3JEB16S8j9dX2Ann7YasZh3ETmShTnzCwCmEJoIlRCTh66lac6gZnFt5eXEOAAl0+nZtzVfvgbZFvq2df/mq52/mJXf/obFNyofQvzmZToYQ5vI1i0SFD5q73/ouMGl84vD3YmJM+subU8evaAUTZq2UE9IS712TXnxPOujofTLT2gUnzctUBgLA8ubrV5AeKHa25gQpgzDHj7w7NbvvFp3zDdBNfDiz3f86JDh9b8t06qgwjMwD330sa5vuQLkZnTTU8y8+kDvzw7IbngsiFdVHff9ukvaYxNOVmJaIV59lXi40S4C7V6/MGEISxNvS7AIig7q5EOaLN4bYCE1p/XCjBhLkUTL5NGXLGm64KFYfVv2/Vd23HN8z+KrisO9fKvzy0V/lV+BFJ1sDFq2KFuDEY4pkznYgTtZ36MzCztejzVNqj1vSfXcX0dqx5oi3fks0P/h+VkrTHakyoN5WkjcqHB1MEnNqmNpow2S1fWnXt965YtVk44vDOzs+t3lO+49Kb/1tbAo8KGscmLGQy54R5PpSKLGyicLGl/0spf0RCL5zS/0/WL60B8WlLIDiSlnpS97LXn4/AjuPn4ZpIrxXDiutfW5NgxpWQgQbPpGozcCRwDsZlHLWwItcOKYWVTvP7tx7u3xpj0RafCVR3qeuaE01AW7QzKEEuUHIHXwPUP9mKqpp6fn3BlEY/ikgZYgdUq54f5lV2XfWBIZ3GF4ChQJI1pHmqOjxlWddGdy37kYFbb/bXj55YWtL8FFYNjohddI/bKgxpYbwEqYvETy4CKTwhaa8VggnUvx0Xs1nXlH9dRTYMtuXd/1xLez768th1FRXDwx4NNccsKxdSdekxx/dBDVhxzxfbJB8rl3nx9adVt+y4sMKAWKyjqSTImhF5t4as0pP442TEC5cxseyaxcEBneSUI8Hhovcxupn4SYE9WmrzfaPEy0OihPAjmcDXe/8fX4qN2KQz3dy27pX/MAagQMAgtJOsAYGqmVSvHWfUadfkdq7xkmA+3gKw8O/eXhQs+W1gWbS/lsx+3jY80Tqw48v+bIb4SY7FtLB5ZdXex6mzySpFRH6klUp466OnXkd4JYEks98NBhJk8C4MdrUhavJxzi6zKbVKK8eu0ykItbcs9CAcgWpw9vP7z/hfuZqA6wa2/wTqN0yVN10LnNl69CtqXcUPY9bLxIsX9H3zPX5T5cX8r0YYijlOnNb/3rwLJr8ts2Ypj/eAO2d3LyaaMuW2P7loRiRBxER+OGueHh1T/of/goeGGpycUUAeDBkW5DVGMdB+B7lW5ahhEpEN5FHQ1dGMHgW+jdTk7h2dirbCmlT/1B0/m/iCZrM5tW7rjriGJ2EPi+lXeUsv10swDEU0ipWBxYdSc7hVzXfUfkNr8YTdWnz3286thrnBjCWFSHZwd/QaHrPUzg8HbgtJRGSzstBncwfrTUIR+idWit5CYK2X08Q1TgWVryAo+LqBSpP+ma+hOuRBpdi+bvfHBuMZ9NTToBG3ho7a89WxjIxcv8fXFxqCux+yHYoj0Pndy/7BporZ1xfdUR/+oQoWptc/EgnD7xCuH0mAbbC5w05dqBpl/fWjpOnOwhBlP4T4ftIgzZ0YXq7HaCEcqshQWbv+awefUzF6Df/dR3B1/+Jaaqps7B7Srzj5V4U/Fg86aHfLFnspk3fo9xct85sAy/9NPBFf+GYe0ptyemnukwShV9PTbYqvrC2d2KYrQPdFIMr1+BeOe1L+ItH8BUErwLccXkKi9/8xOAFtaRf5q1KhIfRBv2aJj7Q1h7V9w28NKDBkhNPA6WoY1PszAObI4gCS1B9q1nYU1MOE7EweCau4de/AksdbN/EtS2WbFDAbvwAIYpJ0d1ER7Zms3q4m4x2NKcsOxDT1gEZoVkxMn1NUajIfysroSXms75abQqPdD+257lt5sXrMkJvLVkN/3RFJHQZJCIocVQyr3/CsaJcZ+NxFIqZ6R/+bVY9mhNU+3sheHzs2TJq0IPOLx+qtILwLJmdlkUxrJr2CgskAnSIhNm8gJtpHALyRkhOUkj4qXGH1k1+YTiUHf34msxtufnePPEWO1ovI3lO7dYjXTPL/Nwc5EhKHR/UBzYESSq42P2MyRo+39/JS6E1JS58bYDqQTRVGIBlASsOnx6WjlayOmnePb6A36WVgEM4XcyjTzoJoAvIZ0VSnS8tomCJf25yzHVt+reQl9H+Pwcb54MY+4jvuuYAoVzWhWXdKQIArxjARRv3kd26in2fjj08s9hrDpqvoFRLzgbgPtSh8dj4PQYZ2hHx/TD1x4eSCHpsDgWLoVS9RZnVwj2zcVmY+m26mmz8K1V35qHyng8bbdawhukcsTvz+JhpXho3fJKONayryx2By0N/eUBfAhL7Xd2UNWgiJgMlZQ7NsXCuVl+ZvkU/X5L8yK3rcW0WXTtSd2XjcXslIKDMi2YWtyK9z4eBRp663k8SIR4gLCl0eY7NyO8OXnRMOMINbF8+e4PYIo1T6ICHiDHVt+Cd+YgFo/vdSyGlIEHXfyHdx2PExRTPKPFma2RsIOeX3n/66Gm/Vy4e52Py81TkI4HWBiYvEHV5ONxGn7jD/R1eMaO1jXDXujvMJhaTFuxnC8AdhT6PkIHX+V5WkspyL79HOzJz8xA6/nJYGzqOD278tNBeiBS76wA8EkSLA7qL2kNlU+RvPYKhTKupaqNAdrE2GloM1vW8d5AdrjgFMRqmmAvctlptEDohgeVEqyV6d0Ge7RmtFQyqAKV8PETvXjb/rBgde3grDagQNo+RIvHR6cMCEIrRXa/jMPBnDnDKf7JU48EbjFIy3kdBnA58fm5FEu3YCa/8319dENmcGN+eFOBvTjQGeGX4HLmXSckRRz11RQG8HiIFW6mvxgYKMBHyM2wB1h5CiOxmFh0Oyr0E4EhvKBKJHKg1eAlPkZjaCWyAPIATuR0s+vZaWMMc6aXCYjEtHXH/fsbnP3EMWb+yk/Y8CCSHHt7zyftSLjt5t5Ps2OrQ6b0lJMhkBmag5XP9KnPtLlURAjjP0sT7xHyJchgrIiOsKMKAe0qwmHFnEP//58shi2Nha6MAQunKJrCuKHw4lI7FC04uMKYNyum2ecMXuhaH13bKM5V86oZmTmV792WaBq3+brJxT5+a2E0mNn9++vjTXvhcTK/4y04kx/waHzcDzvwOPHhAuxSRrbn5yBZs9tN22D/+PrRNBoPnvibxjd/e0Oxb5tWTnjbsezaoTWkizJkShSPg1LhJpGWp/ukpVlOC+GKoSFJ4CVyxyKw7B5f6OENNtE0Hq2yFQSfHDID6EVTdRBPHh2qJAGOluolKolvuSKlHJ4lLZDspUiscTzsxf6P0ZIes95TlnJDM4UykNpw6PTD7D5L2zSwxMun0uL9OcF5nc0IMIa5js2wJ8cdZEMBJFdPwkEqLS+40Sh+4zGLmGBI1BKWHeQ7rSHlFh97MM7YIz4uIjpH2HH4IZk9P4syAq83AtDavwCwksBBxSMHb+hi00VgdjPIKi5bB4yDwY0rcKre9wT09XKxi8P8ciNI4VcinvFXBqArWnc3wdIlmTC+5QUmjI5+cu+TYM+8yccpf5CqLMcn40NYdK+/LIkWfbQ0NXRTgVgbmLh50LHEKxT7oKB173KlwY3Plgr5miknxhr2oK8UwD/fpQ9P6THmwxkejgGbH137WA9rbNQemCh0va9pFg7G6Oi9k+OPwYfWzDurZQnXDdWyCjo2nMjNEIYx/SOenzGF77RYKi/CLwLAzugtZVpMQIojZV1KQXGob+jNVXinaZh5BddNBzC21eNjJpMfLx5uFj2pCy1BvGVvDPJ615V0OAR1M67m152lYs0hF+r2GuqhBjtg9/yY1aus3yDloLppydP5+0WwITWp0mp9AL25WQKYBwKwzqX/gen0ERfGG7XIEpHfuRnGRCsyMU3lS0tcTqg9XVnChZ3vgVN380hs9MTqA88BEo+N9af/ePS3XkqMPwbxnCpRsJHWMH0WS1tPMyP0A8ibVpiMHDm03SIKu6qhzBMyghs6G2eC4XdeGXhtKRa58fTrMbSNmt26AXOJVqywArM45WKXKRGkGEm0TQU4u+VV8uPZIBLUz7oZX9kPbXiy67F5WPlE235NFy8ddd6j+EaeV1pZkQrnEpf+cIXt7uMFIy/9KuMiUwq6rBBbDBiVZw4cqWEwdC+PBKbjyRuL2aH0YWc3nHoVS1aKZD9+szDYnRi9Z6xxHBx1LYiMA/IDxlhFPH+MSu55ON6EM1vaDVE/66aqqbPx+NXz5JXDf1uy/ceH9q24Gffwqv2/gN+fa09cEPDHGtFIp+kx5dZizm4TlM9AePHfeHCA2BioryEay9CZbFms5RzMwrMQHOOEJ/iPN21/jN8zNs2+tu6zF9BaimTe5Xc3NfudYi4hXpPkMUv1lJl4BsxuaY/khmGpOfLiuuPnY65v2Q149iAon+3/4w+3Lzxk6LUnsMPrZizADofdHayaJRCKVCk9v8Ew4jVMI3PmTnYJKh8YpZLTtAvHASZYIlCzZjbDTRgE/WsXdS5fCEDL+QvTR30JpoHXnsGwZtqpdLPqVPDQlwRB1X6zMD24fhFo647+WsPcO4WP4Cvu6sO/BKPBit1bux//8s77T819tCFWz18FcJCAh9NDndRPC+Vp81OeNpS7aZmPSIVz/lw3dnUl+NkIfhwl3hfFdi9RCty5+OauFT8JYgnk3Pb1/8m8u7aUy1TvfRz1eR3kxCEFkBVv/kzN/p/nfn7vlZbLnuZXn0G0b/U9w2+/gK/EGs/6afM3Vyb2OMxygF/uvTU77zmm58n5xcGd+W1/97SmAHLCz8+oAaugF+XhFay/qFVZueBw0r7ncuvQupOCnUl3bkg0tBWH+zuWLux+7r5IIYcqCIkWDsqYESPp6V9sveCuIJEqDPVG8tlYurln1f2di/BjQilIJMb/aDvS23xVK0LAreUrj9QccHphsCuIxvG9ZzHT3/n4ZcMbnwZP1YFnNsy5JTZqLAINrX20lzu8w2IxYCyOHyy42xSalrJ+pwdGvKgzynPs6wfWMaqwYUc5E6f/2IAQTV/77xNNe1SNm1Y75fj09LNynR9kP95kIEWyUtIxu3XjwIZliZbPpHbbJ5ri3SW158GF/h281DIDDSddgX+b1fv8fandp9UcNLf+c98EIJqoDuKpoddX7PzVRdnNf7bq5be9PvDyw7hXJ8cdmhx3SM30L+O+ldva7gSViszx0/VrqTTrIHZad2ErfeTHDFUuWbRoWkBb3nANa6Yc23berand+W3bwOurt//m2tzHb5KDvlpwVFxUMNZMndE0+3tV4/EDnzu0KUynN0F+qZR558Wepbdk3lkT+roONWDbT2y66NHEbvvBp2fJ1QNr7tM/wOOe8vqVoW1GEku/9EiVrWkpWHfhGHOwJInUiloJwySRTEhBQDTW8Lkvt5x+Tay2AR8qu1f/smPxraWhXpezSNh4r1jj2LoDTquZenK8ZUJ8VBufn/ixua/Quy234x+DG5cPb1xW6P1I+HKxqEEksXRr/awbag6dBz34RzOdvzqXi6xdyhZRQs0KbXERPkzKmNEG6+aNUYnQqCSSKIurkNdt6jFSAPHG6hpb5l7bcNy/IP9Cf2fH4tt6XvglNq0rE9jBxhsFTwyGsyxBVZpvvjk+PGrKAbwSwCxVrGyi7ujL6k/+Hq5tXPb9f/pZ3x/uiOT4KyToSGgXG4kr9Is3nDU9xELDX+eNqRi7MKZPXj5tydVuZKCKMJHUHlNaz72ldl98jRrJbP379t8sGNr0J5cGZSlPxPLieK4c2lhyuffcFMVVTTkZ/7Yi0cLveodeX96z5Jp8x9su+ggGOPlP8C6cX5WQLeRfN6/NX3gjcmPAiK0Vwslfykw3ojov4YBNHzKn5ewfJJv3BLqvffGOJ27Id+I7PYx4hF6slA0pchdacsmjlGid1HjGbdVTTgY4t/2t7qeuzbz1nF2KZQbxgNnuwI5NC04ShgzTrkjtrxe0kUKRnD7FNLSz+PLwxu62kLmMJE2kmk751ujT5keTNcXccNeKe7qW3V3K89dwEyA2JIxgSlu0SpHrAxOei4Kq+oaZ300f9zW8k+NHqZ4Vd/T/6T8jxbzmmQVeYeYiNHrmVrn1Rup3XtAftJ+vLc0vIC1oRTHI5xfExIVDzPBwlRI7w0FKvGG31rNvrJ9+FqZzXVs7Ft3Y/+oi9EVGPPPlWC07LnQQC+qmz2uccz2+9MXv6f2vPNr9zE34hxKWhuUDfosVto7Z+CVPvMyCEWWxjuNpP78NY9bM+UgKoUQ7kA1H+CsBQEwuWx3CwKt64uGt595atddBsA69/fL2316b3bKekz7bCimkSk2YPvrs21P4kgi/YLzz585F38ttXW8lkVx1tS/IoGBic+uxy83FAlXoh4FI+iJhdghhepa5m3NGjVgU4P2Scsp5ObCGdCeX2iAy6qgLms+4Ll7PFet96bHOp27O9+NzEjxMKJHYEaPPuLHuMD735ru2di65cbD9d+T0VMoVhAjHz8Zy52OebtSatBLoXSoEMDcFYmO+IMSr/Xx8BHd14pSp4ckWDRkqhYpUOUc1FFXRaruS3P4cIFZd1zT7qsYZl+KaxMfMzmfu7FmJfwGEaxIfrVKjTvxG48wro6laXPM9f7ynZ8VC/KsfyHKF+/TtI37qctEZ0t//TI9ElDcdjf79Inj1PCZcdvbJcz1DRp+ez1DrLBpY5E5KGpwRfW8RItk2qfWcm2qn8a6LT6MdT1wXSaRazrwp0bwXLP3rlnT+73X80dwuDbgaE88WS2fpQS3cLIbsEYOGEW3PU4nbqlRBjNPD7tpzcQ3DrHq4CV+5MJgo5OqDaYr+YnS8hMFEYGgJ+9BQO+2klnNuSY6ZRIQOvG/vfGLB0FurTYNPj3o0L6F+nWEhN/8qEkBqDObWk1u9MroVxSxElZDwbujAJdyl3qGSlDEAUhoqOWnLXqQKRWgdOFsJIL+kRmONJ17aNOsqPDx0Po1PZg/zcUeKMQ0Xo1WvXFwAKuQ5YXBy9opAIqAwlsBoNSte2oO1X7QtbdEAMjQdyEcgjRpXzjpSquS0E4culVEvLApJX8dgFmDwj3H52JQfNma1uMjoZn1H6y88hheJy5CczmI9evlALrowxqZWwoJIHA6OhfLsiwWSoE8I/jN2nPW/B+k2CJPpA4apUqu67iZJVzFozmgBwI+pANCWGSS/Z0EHhyycV2jxGymZ+TQLMewIzLKKARzomN06FEwS4mAXnCbDY8sDDSPobNqG6AsJb07QGxb5OzzszpE1cV6qLqnk5UhCmIUXMfB2tihoyWA2NwEExkxG/PyOBlkoD7YmCVhRuXIbj/OiBo9EDyNQseQMYyNHZ0O2miMjfeXMLsc4aMLhXNmlOHr5n2k4i6EDsU8Stur4MuHBybN5BudFsGOQj6LqO2AGwix/lKGvOB2xDTkQGzUIo+zwNa1Viy2p+ZWX+iLh0pXFGaHDW7G9UKLJyrsLI4kNXXT8oU1mkW2WcK8JoDIVzW4xhVdEZS5HYEN+1zcLNWAjKChiw9fzk1DLwP9/2KzUySCmWKphwCzsZHBy1GMDKx1tiiUiCiVzPExGu9F5c54W+QODF31c/jDTQSALqSHRmrI5+dKJgdD6vSKVFpcBHKfieX7+hCUq98sDJ/FCFLxIaWg3MrsBbB59IgingZGZOrphRwgf2/Ckkz8JcWgoWosIQuxtKsEhu8dX0qpogkgwg+JgyVluRnSFgDxNqu5Gi1m+T2sbULt8hBJWsoxFnKRGBWmhF1qEUdIamh2tsgq1OjzthLk/l4+NfGiXrEPyZPzOkQbRCmCEFTzCG0ZhwoxMr1TxM7jp8FufMfhy0+hw6SqOMKrBDI+LxURXACnILbuvkRWIGOj2NzYthNsdWijNU1UYVxDptHCOwdVnF7zpVzm0Hl6/Y/M/tdCLSUK3Dg4BgcV+FmOeHuClkBRglsymmZh10dGVRi7MikxFMaysbrNY4iKgl203BoOf7sAMQAYcYUR2dLlKgC+NopNb/ACwUl4/uvSq+H3Ykyof1gPTOlxtwqg2ZaRkwRjBSUdS8zE7xu5FEA6bRdHZEb+3aNoBWJpwFqqBKe/tyl0gmF//XULYpqPRhxBAb0vouTuq44V0U8PWx2ZXPmjDfUIDAO6N1HIuw1yNvBeTUvnB4Kkw5yoloxv6a4EwmEbo0VBeZDNOP6zQzzkWjhF5wTqSfwIxqjY59ctQigAAAABJRU5ErkJggg==;fontColor=#FFFFFF;" vertex="1" parent="cVnY-JXB5LHUISSboKDK-10">
          <mxGeometry x="760" y="440" width="80" height="80" as="geometry" />
        </mxCell>
        <mxCell id="j30cdUnKlF8bIS7Feb2P-22" value="" style="endArrow=classic;html=1;rounded=0;edgeStyle=orthogonalEdgeStyle;exitX=0.5;exitY=1;exitDx=0;exitDy=0;entryX=0;entryY=0.5;entryDx=0;entryDy=0;strokeColor=#FFFFFF;" edge="1" parent="cVnY-JXB5LHUISSboKDK-10" source="j30cdUnKlF8bIS7Feb2P-6" target="j30cdUnKlF8bIS7Feb2P-18">
          <mxGeometry width="50" height="50" relative="1" as="geometry">
            <mxPoint x="630" y="540" as="sourcePoint" />
            <mxPoint x="680" y="490" as="targetPoint" />
          </mxGeometry>
        </mxCell>
        <mxCell id="j30cdUnKlF8bIS7Feb2P-23" value="" style="endArrow=classic;html=1;rounded=0;edgeStyle=orthogonalEdgeStyle;exitX=1;exitY=0.5;exitDx=0;exitDy=0;entryX=0.5;entryY=0;entryDx=0;entryDy=0;strokeColor=#FFFFFF;" edge="1" parent="cVnY-JXB5LHUISSboKDK-10" source="j30cdUnKlF8bIS7Feb2P-7" target="j30cdUnKlF8bIS7Feb2P-8">
          <mxGeometry width="50" height="50" relative="1" as="geometry">
            <mxPoint x="890" y="330" as="sourcePoint" />
            <mxPoint x="940" y="280" as="targetPoint" />
          </mxGeometry>
        </mxCell>
        <mxCell id="j30cdUnKlF8bIS7Feb2P-24" value="" style="endArrow=classic;html=1;rounded=0;edgeStyle=orthogonalEdgeStyle;exitX=1;exitY=0.5;exitDx=0;exitDy=0;entryX=0.5;entryY=1;entryDx=0;entryDy=0;strokeColor=#FFFFFF;" edge="1" parent="cVnY-JXB5LHUISSboKDK-10" source="j30cdUnKlF8bIS7Feb2P-18" target="j30cdUnKlF8bIS7Feb2P-8">
          <mxGeometry width="50" height="50" relative="1" as="geometry">
            <mxPoint x="920" y="550" as="sourcePoint" />
            <mxPoint x="970" y="500" as="targetPoint" />
          </mxGeometry>
        </mxCell>
        <mxCell id="j30cdUnKlF8bIS7Feb2P-8" value="S3 /bronze" style="shape=image;verticalLabelPosition=bottom;labelBackgroundColor=none;verticalAlign=top;aspect=fixed;imageAspect=0;image=data:image/png,iVBORw0KGgoAAAANSUhEUgAAAFAAAABQCAYAAACOEfKtAAAAAXNSR0IArs4c6QAAAERlWElmTU0AKgAAAAgAAYdpAAQAAAABAAAAGgAAAAAAA6ABAAMAAAABAAEAAKACAAQAAAABAAAAUKADAAQAAAABAAAAUAAAAAAx4ExPAAAfjklEQVR4AeVcefRdVXXeCQnzPCUBQiCMQSDMkwwNguBQVKpiQSwogwUrtjiUoassqkvMUlFQZInVWiYBFUVUkCqIIIMiQ0BIGGTKBGEIIUCA5Ndv2Pvc+35AhS7/6Fo9+b17ztl7f3t/e59z77vvvgcj9pm62VCMiIihiBHscWDv4QiKNUYHuXW2tRFlbnBDvQ0bPpXqGh4zx7CPsil8+Wyuc0Df1lUs4ykXz4xfuFfzQ1s2xdIkOWcBiJWketkK4tjEZK3oY9QQZxQ4ZVkODYmOLXWEFsaWO3jhBMChyBIJwxKrFykeEIgq+9Is41LWQSoOpMLw2PzDQeFjBJxVqJ6DLnxTGg8FJcZrJP8KU0yGuGkS5/BEAMO0IMef8JAymZEOZtDQ0JIYWmLHPPJFsEcp7xQSV7Lsia25oHlQXDsrak1Ne0agguMl9NO0HHDhrBsQY6KYMlZ2DT9gh8xtR0NFamrKFVgSc1+CGrSWEDKSaVNgAB1lIyWTlkVEE5fUqpM0Sdi5kqS4+NhErrqEHcAkOUZxuDj4Y98nRIJq5QdKDrvE7auK28lNQNYDO5CS9MGYLCL+DeAVsBbH4XnkmejYoioOlMtfkq6cmP8oZlK8a5v6dKFzB6eBZXTlZic+8ZsHO7AtF6J5JrHBViR8OlFXsdzTHiPh1JcDTAb8Mg4NZOtCsWAqBBStJ7dsMk9Q5azSyZei0YXybygI+nEr6Eg5s7UZIyST078kxk4yyjGp4pGP8R0zBrStexEQzuHtl9cxY+wr/cCbE7bj0jFoXR6Eh7oWlHyYvGISz0RNkjA3ctbu54C8VC7pBvCQw5UN1NHQhePlTcnSpjnOU1gBM3CRtoy2QPQAgGdDKikvNZPjaaKmfkQ7bcRMwTv1gCnEnHc+7adOO6PymHaDtlnEdEo0a9HwmFBmr47T8CnlXHDaYqDFbJcbFrLzoTEOI72y6RAGrUEpZ7REa8H4RpOyklfgAbmVLWKHZ5m7ZqwXQ+NUyapnKDzm2kk9DwN+qU9M35epWNF2YsUhAC91kAmXfshBPFJuP/2dyAKmo+rkgNs9m1zk1GSxPPjTGwFsinCzZ3CdLpYQ2kj0Em87tYDaL3BM+55TJwQvOpXK2Du7ZknPW47RXg0P/8PlhVfvtDQctOtytHyQ4yiml3/2A6IiCxI2hRiDxolCFEjXoJ6wgkqe143APVW1KiJ905lOjyyoRVUGaCoe7/Oy9f2z+M0Gel+lbOhr42CxqOnwPq1tJwUOGRBd46/cIMhGfM3EigTAX/eBFMieVDBRMBhU0uw1FqafFF10L8YitsgWpmxYtAYoW4J6TZFMRlxUnnSgonfhW5wO3uOfuVAnPvDplDsHvhx0aIXp8288EqOaOIXyi/vAbrVa4umE+HJagL5NhS4ifZ2wAmcCMNYFfTiplJd/BjSWYDRM6Ld4KEba2MB+bZp2sDYX+5A/upK7kqFnRQdk3ZyYaoqPufseHg58CsOSyraty3PJy1Puym3X3yUO2/242HjtLWLpUcuU9i/Sv/jyonhg3j3xvd+dFXc8ehNL0ePlIujI/MmHmXJjq88dToFklReplW6QZrvKJN7l6Wzkt5t6VEYMs/tnJw6NBBG2roAc25ayvny7CbvG1Pd/Z0Bmy7/skcRP+cnRMW3mTQOxios5OxPJmAyLxKZxDofxr7wqZ5mPNE5+ckEqDnv75UJ2MUYkBp9EsErEi8vgaosJ9dwFYjUUh+/xCSV03m/PigtuOjteWvyiE0RgBRMXWA/08KQ5ew+s5hEXYsgYnjGWHrV0vHf7I+OgHY+Og3c6Nk64FLswfTPZaj5ZPZMXOUieEhcHRHhVfIdl8PKnPKmCTFxTR9qsLcuglhN9Fq5tSplfcKcx3RJFOQWB03aS5uff8I3g6UaZdCwCbGitnmPdM1KSNmXLecnQ110T0VyQS245B9KIDdfcHD40lE+OFCv7/tg6Hrv4r7zmklPHRzzTnpWxTiTBxLZ9+/LtXsB6mNAjptSqzJTnSy6jXfOYaLccsMkqiF/CuYKkK6L0w8ho/fvE8tEnat9drMYhHZRt7ZaKId8wLnllIT3jCl+FYuSyMEcXkV7QMlZ/UqKKT/ioSri5ghWrr9b2LVxrh1nMoywIJlAdB/biAKmQGlRzh2LqMUFyQoll7CVyppyq+KSh0wlahUwu5FlFoE21lmCSo8r48sciUtjj0HPQhS+C5k+QYIqvET+J2IhHBq7gkuJQgR2xKNJYgBRzpxH7/+954sgqBEujoqnHSMswWNAqrm1VXQ7T1qcrF112xMsNDjJxgTn2tQmD2jU2oQotd4cn9oUxff5ffJ6IR/omV9ucRHVa5GniPCDrbXHKqpjEVf40EV62LAQ0EvZ2sh0m3icgd6+aHQzEar4TV12LDwzDiEXiGbN4tZ4DNti2eJgWhCqipBPe/CVjTWiYzeHMTA9UpeyRcOKwhoz3O1SpMOVBvR1SZ7xGYjSAhxk1mSWtOQEmH4ZTUtxg6ISEgMbWxEoiQ4zwNzLvw8QLcup5dMLGEVXcVGTGyVh1H0g5bYpzjc2SOmAYUkXEWFEQXwr0FNWK0Jkd0SE1mOeTlYxroTW2pY1ZqNe4yVJXznpoaHp4K8iDp3e/6XSXAAyoKl7oy7TfD8SHeYfveRW2H59OXcSGl6SHHwzfch1Z1yMC+a+R1LwLWo5LQtJ6ocAeC11q+aG8S5gTYl7f80QZC0AQcYUfjCPe0LU+gbIyRBLh6Ue3W51iwC/1qZK/9MWu2WlDdXh8Fs6mLcaTwMZ5hjSgt3YZ20YyiGp3/uozMzqDNzh6+1feJISL3hH0KE9NsKtYXPg6jRyqNMXN0kp8kKufJxaeMTJ9jLgYmOcpOoCHwlfXisHvhYurUAYS62kpDTCl4UfY+G+44g3N+0R94Ul4Umj7Lsm1Cz7MLCqu0CR/3eeVm0yUhWHxmw3xLFrauXA+nVOkruPn07oK3HYgHXAVmiHdQtgCQVmgciwinAgYMeW0TaUixra5YtSjUZbDzlezTTeZqBEEaX00HdmfUJ4EyyeN6tRlLKuzp6uUFQnizVPuaSEMvZQtc5Fd4VupIcfp3PssTLDXgR3HnOklgWUViiIT7+NonVjiMW34nrxs2LP5utT5Lx5WdnJfr7sY0uNAOZtwjKmXZZy0XHJMUgkRro8nipmbg33In+QZo2KhAPlJpADy1zu8ltyO0r3sB5KuJa5AZoUZik1ZvtB5wk4X9/5ekrYVx7MOyyS1hOmsilB2tZuGy23e5VW8qzc582DhdPMuITxnrH4/isRHjPQ9GYMrEeK1d91J3l8yCmDDoPRZF+NXs9MpwlPHSrsFjnIm51Am/Gp4ytgqQZ9arx/PNApPDnVqknPzyYWFnT8aw4oYEbY9BUyf2dIfcYVvp7CKQatqNSSw5CWjDcf5UodDsysfZFJyGgmQSs2bC2E7PDPoWoXvJBil0EvoHTXcrl+8ASzh+tcxIta+ypJvRubR8SqdcUxBbyIEu7KQEENN70lF2y3FiCbJtu0IAH994n3Q/O/aW780yT4bEfthnH4MJsmvEVZYZqVYcZmV8Vopll16hXjhpYWx4IX5sXDR/Hh20YJcEOZV78o9P5AN588CdHVgAbIM6Ft87gfVqsOjgF2VO8Nyhl7VlL906bFqzGTZMBm0s/iNHHUpaQQ75MZj3hQbrbU5XpNiIzzM3XDNTWM5FOx/avyF1UIU8ennnoiHnrw3Hpw3PWbMnRb3zLktFg+9pOKRet0TqFz9hcq8MruuAr3iaWHgAfeBgnMBWitZE8CFi9tJuqKJiZZhz89t3Azkj4ckRjwbjxp72uI6GQu3W3832fJw5sGXtHENnlv0bMxbODcWvfR8LHr5BT0ZH42vApYZtSxey8XqK6wVKy27il7jV58Yu2+8n6C0nzbz5rh6+mVx84PX4Bq8uBXx1fMnH+SOY/HvzggKh1zAKg53Ud+YUeVYOyzHFGZT7eGEydcqUiV/7HPFZE5jOJNd6rxveYp5p++0wR5x1JR/jglrbCQID488+ae47eEb4v7H7o77HvtjzJ7/iE5XEaUzEK7kyL3my6KQY1dZDzt2M+3eLdfdUV8R7LDBXsHXUwsfj/NuOiOumfETvwnCF/OXS/CRL/rDyHvMm0iiPKiY2524HjX8Uyso53wRXE8+aHDjKQ/KbrdTN4Rrg4RNB5IQC6uWWOoItMxkmh7yY95yUhy4/YdoErOffjR+Pu2SuOaey2PuM7MaN+oaBj7LrXhkzBJ28bvEV1lu9dh9k/1j30kHxga4FLDd/Ker44tXfRJ5+rePJE4s/ajXMEfUDZPreWCWGADvBBOryruIRZa+2WpVGEgrARmde6xI5ZbW0hHHsY52IJL7b/1eFe/5FxfG2dd8Ia6Y9gNgmRBsGVhdJiE0RMI7yXb9lW3GEsyxCCF6/vNPxs+mXajXLhPfEkfveVLstOGUOGiHY+LCm8/MWI5Je6JbzwEbhC0epngijYCUS4EBJhpzLpLuh/+qFJZuwhOEKe2ziDodNLeK93z0RxFfpmbd7pu+Vb7OvOrU+OntF8fiJS+LpO1sY2zh6cAZ9VzJ0Ll0drJSXMiA4pG+bvrTL2Pqlccr7s4b7i0dtdpENpSdDIjH/bI4yAPTdHy9C5OoF0907KQ584oaYD2dEqOALFjaXvcvD1D4utqU0zaRD/rV16NAfWCXo/Cu+UBMn3OHyHY7Gsok3DlnQk6k8SeTlOXAN+vAaq929GPcyhPi0F2Ok7uXl7ykvnKqTcA10s2+8F1khFHOlIyyAUbt23WgWFwa6Q2CZuXI4zqSD1elTqSSv57eZOVA1zxi1sebx9cPvSSmPfr7uPrun8aND/w6Hsc1kHwUB4n41EZEckSj3M2CJodwRNPBDv9WXX6N2G7Cm/GuvL/6kflUfO78Rzs/WSxtCn08sffK0zwoczzdSNuEMu6mjixNzMG7UMo07hylAMa7nToxJ/x4hyGzgQPuJO9gixzccsab9fTDws1++pEYNXJ0bLXeDnp9HNLHF8yJe2bdjp15f8zEO/JjC2bH088/EU8vfDIWLX4hXl78ksLQwVIjR+lWZpXlVovVVlgz1lppTKy76gaxHm5lNh2zVayz6vqKwwNvup9+bl6MX32jmPPMo5CQsFs/N47ZdDaw90w7kx/n8j6wTkMb0shAjQDiytdKy0M7NDEHMHexXHgvh007fPpkpzYUs5+qAj4an7748Nh5o71iny0OUBHXWmlsrLXZ2NijzIf19MtTkIWvRRpm0qbPPP903D371vjNfVfEDff9Vxy11wkq4FwUsM8v1x3JdDmXnjHqrGXKgzsQoWyYpwgsVPn0M5wg31hKRhOVhl41ZtFZUBeziiultnL3MGFm7sB1VlsfbyBLkNzVceP918B0KMasvG5sse42SHQi7uvWxXydWBuv5fFpRDfOo5eL0UstLd4v5I01383nPTs3HsPp//iCWdjhD+FTyB24h3zI4XEk77Err6f5HJzC1Xjq8q/ybn1ilF4uPmulAnJgwzqt7ETZ03PplbhDqdA9RwN4wJNFGaN+3uVUsagmSfUIXANnonCLccqN1Wm4OC/q1PI+cO4zM8XP1k5OYzrC36gRo2NxvNx4Nh0GemqCYOQnOQ7FlTfabLPm+wxQHcST0sQgd6VDPMZszkWh/QtVClUQDTjhgAD88e2bU7Y2wJDO9EchbNK57NrhNeTEFTFgedvCa91SI5fSDjM1O6k4ju2LgiNmEEx4CusxHDkPazzd+q2w/Fp1zRXH4XRcojeq4XbkQOhwufFdXviJLycZAr0Ts4HIQ0VatitD2jvAcOLd/RIxtHNr+IxBp5QVwVl5HVxn1fEtVsXnlqWrmldP7GFvPi6+f+yN8f4dj1Ag6vqvDN9knFO/9krraMGewKn+MhawWh/LcTWOiyvF9b4wsm8gkiVgr03YVbuvghRTB+gHbTZWyaQRKRmNCo6ew5mtgN07ZRJw4YTVwSFy+O7tDtVDg8N2/0Qcu/fJumYKJyvvyF4djMVx3CrjNZ6t07eK3tQa5Fnv+IMqcHYFVMBKsOuRFKL6RaQv+D36WRh7LYLsaeO+8EZx9azjkbvXenrguHbgONxqVFz1QtmGQ+94z6m/9A/nBt80eE/319scHN/+8JVx4ju+HJuPnQw//A7a8dUTn/Mx+QbChxO4SqmZIWySU//TV+H6Pce9HZhOKqCmuYKZRHVUZUyMapUt6QLQKk89DtVsw+uORm2JeztwNe4M+ySEdPQCojBVRNp95zdfiQPO2D6O+PY74so7fwjbJbHnZvvH6X97IV7fi7/a/J24xdEvWBpn4msHrrfaRD3+6nibI2PXG0/jkKqy5Wmc18AOpKSBoFH3ojsWrWdHPf+lnS18LJl7FsA4dtyJDExXTQ9Y7cB12w50tPJlXsBou3TXxOLwMD4CfumKk+KD57wlLrzx7OA936Rxk+Mzb5sa5x55TXx49+NjnVW8uxl+TL4Dv2md7eIbh1wWu260j8iTacWsnmS91s6XhpWLCmiBL5IEkaxfPtoRrQYbTW3fOax5WSqw7EpCOm7C56zuBcdpB6YNDGsXiDFgxAqvAROiLxaU4yXxxILH4jvXfzUO+eaU+OpV/6pniPxk8r4dPxLfOvzncfoHLooDJh8S6+MTCBs/dy+/zIpxwttOj90m7tvykTIPztMThespfR8IgXcF1NwcRLCG+CxIgItAil2TCW3Qmo1mwBAuHRYFT6X8PNHJ1j0Y/a+90rh4386H4ZPHHro5Jpw3yO/Z4YNx+a0X+fZEvsyDjo2HUwQYKC7mZMi45M+nzz+742K9Nh+3dbxj64Ni9033i83GbqWXqOLw4Lx7dUPO54OH7HJsXH//VeJfemZXnJ1XfRJhfNCYdPwY1YUFpICNgBp3cyqH4rbPz6Qotj1hPdukITv6YNO456Dvr5I+YNuD4uP7nYwvh1YUZviBp/RJ3z8GT6LvGfDXcwt5RXTQ0lluvgRzRBk/sey60RR8THx37DRxr+Eh4/ZHboqTLv2I/ToV2fTjcFyNQ/02pu7WXQLuINbUhgRwzlcfTDUkeuJhG0PoVHBFeeXqEbXfVu+KEw44TRa/mHZZ/PD358Z9c+7GqbR8TJ6wU3zozcfEJmO3iLP+7uI46j8OjIfm3ef4QnS8OBXTFhS65Cv6UEolwyE9Nrt2xpV6IMECznzqobjstvNx6zNOX0Bdcef3DWv55w+YmD990BlH+Kun9O2jXAucdlUw90Lz0JqLVAVKolk5rrlOJ/aQscAu/pA+rp30rqnyM/Xyk+NHt5wPMP9GxPMvPRe/+uPP4tp7fhEnHjAVhX53nPqeM+LLV5wSW+Lz8Hy8MbAAz77wDPBcVMbtYjAWm4qWcRW/hNKGvivh8IHH746f3I74aKqNRvaZzv2mR/4kafeyylD1NAagBNdAtkmCKpNrVmWdAWhAHVHoc/hqzxMP3vUofa/rnXee/IgcsYTCDz8Xf/6yz8TEtTeLTcZMijMPvUB2PBw95VNx/IWH6c1BQmai7MW46ItKspHfWki+0Yxd2TfRs/D4rIouIzisQgpbVYJcGwJK2augil73gczYjYb1kYVOCWgcVaC06zkvLKMzcN00U04zkdckYs9J+3IU/3nd2erbQRQ6PD/f/vuvvyL1IvwHPZf+/jw8F5wWqyy/WnxsnxPlk0rG6zfxrTtjKJhPUVXyyIlPfdh4E106CXAQX+LTMTv6YKue46qRnweCPIHMQZu1VZqmbi5CV2hKTYgjJs4rIka5OkWWYemT82VGL4uHmuPxteQLcd/cuwlU3DaAA5/ull83/ar43I8/GffO/SPeTKbrTeCSf7g2tpmwc2w9fkc9uab//JMbXSqSf2OLQSsUxu0xFnagwMmPDhpeTpsHzFxEbhI6U06QtU8iii53MFW0XlTOE1927LsCdlLKaK7QGLh4EVuN3z6+e/TlIshrGO38yydjy73xntHPz+/4IYo9XeFfwq68fsYvBTjjgxfEZ//mG7HuahtIR1tGZS9eLGKSZq8xScGgnkzzSThh9aKHgfjUsAxpw1zaJG2HfRam1LtFjjAlQIQSQBGbZSrTK/SiC6IVeIt1J8dZh10QG43ZFJ84HomvXXWaMYY3X10c+y+85Mnju9d/Pa5AUZ978Vnc1+0T3zz8Ujy53r7HKbGMT0zjajmfXK+x4tr6KoCP0Njqo2EXP7FJoOS6NNEpMdnrv1jvF0laHJQbCZAIAalYhNOPbfRS/u+E009z2Bl7tUju0+88FT8AWi5+fMtFceDpe8VPb+X3vnTOP3svQhkmOyZSkS2aO39WfO6yT8V7z9gjfnnX5fqR0b8d+PVYdvTyPWiuDCQVR2GQFT/C8TTlg1r9X4rSfX1E7DnRsK51JTfb4l2fhVNLpT7oY8DARb62Luf3zLpL1kfu/fH2KL3lWDiWJfFrrzw2thy/bSx4fn584bKT9ezNfvN0y8+2jSDmwkLQ/GqcfDLGsy8uiFN+dFzc/vDvYtUV1ogpm79NLipu9RLqdHZOvAaz+SlMl6OEOBSu+uFyzqnjFmNxdR/YCSHmRRJNJhlYmUBMzZlXfiHOOfKi+Og+/6iXjF/H4f7HZuiHQJ1/v+kQakJ2osWSEAcGZMHwTzjztiHHaLwmTl5/R3zztqH8lH9r4aDwdIYvicZVAXEpYUs3GHjk9BmYzT1VWRaLeUxh7xpYIDpVVF0btBJpzxC/nXFtHHnOQXH7Q7fg86ZPZ/r7c42/4yO+nRIMQQFav6eIc3Lo7wJdf6SjRXed5m0N25ML5xlHLBzIB3tFtYxD/kyObSa+aNLCpT0r1OVasV/7eSJZ0H5gB3L1KGS1adCqzoklErKIN9z7G60PMdOm4stvtK0/s4762gXs+fnzVyffhjeQzWLzcVvG9Nl3qojUeclqlb3LHJ88GAq94sotDmKlywx1Ky67ckyZ9HYpZ8zxpYX25ZkK+uEbx+QJO8a7tjs49sDPSHij/ocHfwttb9Pg0gGXGVcuM346oQh6Ini9ZHxO9FmYxCSgERqDUtYabZUMxQ7EHqNBOwG8CIXlzzZ+cPP5cdiefx9fO+zc+Kfzj4g7Hr5FftqHFxiTTzUWcbCZH8WMOhoPSLdYb5v42L4n4qZ4fNw187aYjpvsNVZcSz++5OOrCWtOxGtj/Aprk5g8fgc9sqJPfvV5+pX/Gvc/Pt0hMgUX3SQcv8uNeSr/5OVaiEyMmPixNYb6xVNhM5tO7gQ897gSZJi7vujbgS0/PY6h2mLIF/RL44eP38R1c5sJOxRsoB9esFfM+4sJJB/fd9wGXL3mhDfu1824Kn586wX4TP2Ull6bBCRbXkJjnv+Zlvm7kLbxmA9f5AA11ClMwn1CwxOgTsVPu7KvwI01Nw58C69YPAVDbx4f/dZBccTex8WULfbT6dwwhJBQrw2f91SvOmQ8Poh4btFC3B8u1MOGR596UE9x+CRn+pw79bUpwY0zYrY4TI454h+pKD9FGpSx4MTwegy0bEdseOwaQFtRztk35wrKumSS6Cpd2TSxHRZJEqnW+XPgTo5RGrKrGBr3HBhv1AAvimTX45+LPGBH3+mv51ayRhOK0imesnRhafNaePzAMv+bB/T8o6F2kPnmnCqShB7/tGDY5jAX5g09TxRjJ6xyZsL0Sc6MobHipx0ElDkJRc0x49umkSn+jENM8uzvKrqugihsC2oCyr/w5ENAI2VF/ffOA7cxNHTxXCTjBOfQnnJKO9v2McNlpSOYgbPBB/n0Y4lW36dod4vZLx69dHiMnWInUxEdS58wEKsXvZEY4J+FH5QlRwZ7RXOu7ddZuZ+4NI2Qn/EVkiycEDoQMqUK2AjmQCERuK20SBC/RLKy1/WEk/aWjInmFHGPupVd3UKQA2MwvrmQH/7khxgkCKPCyw5zX7+oTw150VkuQtlzSv+a41B48qdUEIz8P51ocBvWqkGcmubKIkpVkJq2sKQtkta44I1jR2kYPv2AFSMxSfZsxLpInEikw2B8iDLTwpcl7WxLLmkG48L3XDa/yj8dkAlxbOWHsfSlO2T+kTmZyYiVdXU1LaThOlJfROwXR62QyXHNbWO5QDgwuHU5lh97IJJEWQPFT3t7NK4SLt/s2RrFJCV841P+HVMARYFPw+mh/qSW3+TWTNKfDXCsG2nEfOXzQAiLrMLLyyCRpm/s5VoHrxjte1Fply4KS+P+WOCU0dxhq3i0pQUL3bXX8zyR1i18q5q9aKdjyFnzz7kIeFGFhwX/ufa0dqOZ30RQUbZKSAF9kHcOra9AXW954TH7M88TGaP5d5l6cdMP6dKO7vhKApQ0OWWqcul5ZiQeXbMrfMrq8tDB+7jCZxxiCp99F8O2/mkHlbw2snfXjh2R0rh3eiRqUDkuYG3cDl8a95mr8XTRBJzQhjsYf1hcR0x5Px710jphogbba8iJQzz7zWPFl4NcGYzFiyYy8xnQphC3n3YQJwUd65VgyPvF4KyStV0RMf7PPU9UnCTb8CJnApKBSeloz/j9OcfmAbnOnl7CLDj5C4NDtoaHQnhA2HNH9lvZVS8dr4kYCNfriW3XwAFA82hg2/ZNTme9STp1ACcjdS9wV2bjhsFFTiT7bplkFrMv5jhLJHFxrwQt1JGGLXGOW6tg1EPIfAbwMhQBy2nUd6C5dmACmXcK+4TKqXrou2IihayiexfOYWDIv2G7ge5rxYkZxCcP0iA29Q7h+7c+Xv4pSPvqKRIeBuWDusZbDn0WvTJ+P3ZyyKLIlry041MHX/8NkFtqyulRca0AAAAASUVORK5CYII=;fontColor=#FFFFFF;" vertex="1" parent="cVnY-JXB5LHUISSboKDK-10">
          <mxGeometry x="920" y="370" width="80" height="80" as="geometry" />
        </mxCell>
      </root>
    </mxGraphModel>
  </diagram>
</mxfile>
